<svg width="90" height="90" viewBox="0 0 90 90" fill="none" xmlns="http://www.w3.org/2000/svg"><path d="M89.9996 31.4002C89.9996 33.7002 88.0996 35.6002 85.7996 35.6002C83.4996 35.6002 81.5996 33.7002 81.5996 31.4002C81.5996 29.1002 83.4996 27.2002 85.7996 27.2002C88.0996 27.2002 89.9996 29.1002 89.9996 31.4002Z" fill="currentColor"/><path d="M89.9996 17.8001C89.9996 20.1001 88.0996 22.0001 85.7996 22.0001C83.4996 22.0001 81.5996 20.1001 81.5996 17.8001C81.5996 15.5001 83.4996 13.6001 85.7996 13.6001C88.0996 13.6001 89.9996 15.5001 89.9996 17.8001Z" fill="currentColor"/><path d="M89.9996 44.9998C89.9996 47.2998 88.0996 49.1998 85.7996 49.1998C83.4996 49.1998 81.5996 47.2998 81.5996 44.9998C81.5996 42.6998 83.4996 40.7998 85.7996 40.7998C88.0996 40.7998 89.9996 42.6998 89.9996 44.9998Z" fill="currentColor"/><path d="M89.9996 72.2C89.9996 74.5 88.0996 76.4 85.7996 76.4C83.4996 76.4 81.5996 74.5 81.5996 72.2C81.5996 69.9 83.4996 68 85.7996 68C88.0996 68 89.9996 69.8 89.9996 72.2Z" fill="currentColor"/><path d="M89.9996 85.8001C89.9996 88.1001 88.0996 90.0001 85.7996 90.0001C83.4996 90.0001 81.5996 88.1001 81.5996 85.8001C81.5996 83.5001 83.4996 81.6001 85.7996 81.6001C88.0996 81.6001 89.9996 83.4001 89.9996 85.8001Z" fill="currentColor"/><path d="M89.9996 58.5999C89.9996 60.8999 88.0996 62.7999 85.7996 62.7999C83.4996 62.7999 81.5996 60.8999 81.5996 58.5999C81.5996 56.2999 83.4996 54.3999 85.7996 54.3999C88.0996 54.3999 89.9996 56.2999 89.9996 58.5999Z" fill="currentColor"/><path d="M58.6004 49.1998C60.92 49.1998 62.8004 47.3194 62.8004 44.9998C62.8004 42.6802 60.92 40.7998 58.6004 40.7998C56.2808 40.7998 54.4004 42.6802 54.4004 44.9998C54.4004 47.3194 56.2808 49.1998 58.6004 49.1998Z" fill="currentColor"/><path d="M62.8004 72.2C62.8004 74.5 60.9004 76.4 58.6004 76.4C56.3004 76.4 54.4004 74.5 54.4004 72.2C54.4004 69.9 56.3004 68 58.6004 68C60.9004 68 62.8004 69.8 62.8004 72.2Z" fill="currentColor"/><path d="M62.8004 85.8001C62.8004 88.1001 60.9004 90.0001 58.6004 90.0001C56.3004 90.0001 54.4004 88.1001 54.4004 85.8001C54.4004 83.5001 56.3004 81.6001 58.6004 81.6001C60.9004 81.6001 62.8004 83.4001 62.8004 85.8001Z" fill="currentColor"/><path d="M35.6002 85.8001C35.6002 88.1001 33.7002 90.0001 31.4002 90.0001C29.1002 90.0001 27.2002 88.1001 27.2002 85.8001C27.2002 83.5001 29.1002 81.6001 31.4002 81.6001C33.7002 81.6001 35.6002 83.4001 35.6002 85.8001Z" fill="currentColor"/><path d="M49.1998 58.5999C49.1998 60.8999 47.2998 62.7999 44.9998 62.7999C42.6998 62.7999 40.7998 60.8999 40.7998 58.5999C40.7998 56.2999 42.6998 54.3999 44.9998 54.3999C47.2998 54.3999 49.1998 56.2999 49.1998 58.5999Z" fill="currentColor"/><path d="M49.1998 72.2C49.1998 74.5 47.2998 76.4 44.9998 76.4C42.6998 76.4 40.7998 74.5 40.7998 72.2C40.7998 69.9 42.6998 68 44.9998 68C47.2998 68 49.1998 69.8 49.1998 72.2Z" fill="currentColor"/><path d="M76.4 72.2C76.4 74.5 74.5 76.4 72.2 76.4C69.9 76.4 68 74.5 68 72.2C68 69.9 69.9 68 72.2 68C74.5 68 76.4 69.8 76.4 72.2Z" fill="currentColor"/><path d="M49.1998 85.8001C49.1998 88.1001 47.2998 90.0001 44.9998 90.0001C42.6998 90.0001 40.7998 88.1001 40.7998 85.8001C40.7998 83.5001 42.6998 81.6001 44.9998 81.6001C47.2998 81.6001 49.1998 83.4001 49.1998 85.8001Z" fill="currentColor"/><path d="M76.4 58.5999C76.4 60.8999 74.5 62.7999 72.2 62.7999C69.9 62.7999 68 60.8999 68 58.5999C68 56.2999 69.9 54.3999 72.2 54.3999C74.5 54.3999 76.4 56.2999 76.4 58.5999Z" fill="currentColor"/><path d="M76.4 85.8001C76.4 88.1001 74.5 90.0001 72.2 90.0001C69.9 90.0001 68 88.1001 68 85.8001C68 83.5001 69.9 81.6001 72.2 81.6001C74.5 81.6001 76.4 83.4001 76.4 85.8001Z" fill="currentColor"/><path d="M76.4 44.9998C76.4 47.2998 74.5 49.1998 72.2 49.1998C69.9 49.1998 68 47.2998 68 44.9998C68 42.6998 69.9 40.7998 72.2 40.7998C74.5 40.7998 76.4 42.6998 76.4 44.9998Z" fill="currentColor"/><path d="M76.4 31.4002C76.4 33.7002 74.5 35.6002 72.2 35.6002C69.9 35.6002 68 33.7002 68 31.4002C68 29.1002 69.9 27.2002 72.2 27.2002C74.5 27.2002 76.4 29.1002 76.4 31.4002Z" fill="currentColor"/><path d="M62.8004 58.5999C62.8004 60.8999 60.9004 62.7999 58.6004 62.7999C56.3004 62.7999 54.4004 60.8999 54.4004 58.5999C54.4004 56.2999 56.3004 54.3999 58.6004 54.3999C60.9004 54.3999 62.8004 56.2999 62.8004 58.5999Z" fill="currentColor"/><path d="M21.9996 85.8001C21.9996 88.1001 20.0996 90.0001 17.7996 90.0001C15.4996 90.0001 13.5996 88.1001 13.5996 85.8001C13.5996 83.5001 15.4996 81.6001 17.7996 81.6001C20.0996 81.6001 21.9996 83.4001 21.9996 85.8001Z" fill="currentColor"/><path d="M21.9996 72.2C21.9996 74.5 20.0996 76.4 17.7996 76.4C15.4996 76.4 13.5996 74.5 13.5996 72.2C13.5996 69.9 15.4996 68 17.7996 68C20.0996 68 21.9996 69.8 21.9996 72.2Z" fill="currentColor"/><path d="M49.1998 44.9998C49.1998 47.2998 47.2998 49.1998 44.9998 49.1998C42.6998 49.1998 40.7998 47.2998 40.7998 44.9998C40.7998 42.6998 42.6998 40.7998 44.9998 40.7998C47.2998 40.7998 49.1998 42.6998 49.1998 44.9998Z" fill="currentColor"/><path d="M35.6002 72.2C35.6002 74.5 33.7002 76.4 31.4002 76.4C29.1002 76.4 27.2002 74.5 27.2002 72.2C27.2002 69.9 29.1002 68 31.4002 68C33.7002 68 35.6002 69.8 35.6002 72.2Z" fill="currentColor"/><path d="M21.9996 85.8001C21.9996 88.1001 20.0996 90.0001 17.7996 90.0001C15.4996 90.0001 13.5996 88.1001 13.5996 85.8001C13.5996 83.5001 15.4996 81.6001 17.7996 81.6001C20.0996 81.6001 21.9996 83.4001 21.9996 85.8001Z" fill="currentColor"/><path d="M8.4 85.8001C8.4 88.1001 6.5 90.0001 4.2 90.0001C1.9 90.0001 0 88.1001 0 85.8001C0 83.5001 1.9 81.6001 4.2 81.6001C6.6 81.6001 8.4 83.4001 8.4 85.8001Z" fill="currentColor"/><path d="M8.4 72.2C8.4 74.5 6.5 76.4 4.2 76.4C1.9 76.4 0 74.5 0 72.2C0 69.8 1.9 68 4.2 68C6.6 68 8.4 69.8 8.4 72.2Z" fill="currentColor"/><path d="M21.9996 72.2C21.9996 74.5 20.0996 76.4 17.7996 76.4C15.4996 76.4 13.5996 74.5 13.5996 72.2C13.5996 69.9 15.4996 68 17.7996 68C20.0996 68 21.9996 69.8 21.9996 72.2Z" fill="currentColor"/><path d="M76.4 17.8001C76.4 20.1001 74.5 22.0001 72.2 22.0001C69.9 22.0001 68 20.1001 68 17.8001C68 15.5001 69.9 13.6001 72.2 13.6001C74.5 13.6001 76.4 15.5001 76.4 17.8001Z" fill="currentColor"/><path d="M89.9996 17.8001C89.9996 20.1001 88.0996 22.0001 85.7996 22.0001C83.4996 22.0001 81.5996 20.1001 81.5996 17.8001C81.5996 15.5001 83.4996 13.6001 85.7996 13.6001C88.0996 13.6001 89.9996 15.5001 89.9996 17.8001Z" fill="currentColor"/><path d="M89.9996 4.2C89.9996 6.5 88.0996 8.4 85.7996 8.4C83.4996 8.4 81.5996 6.5 81.5996 4.2C81.5996 1.9 83.4996 0 85.7996 0C88.0996 0 89.9996 1.9 89.9996 4.2Z" fill="currentColor"/><path d="M76.4 17.8001C76.4 20.1001 74.5 22.0001 72.2 22.0001C69.9 22.0001 68 20.2001 68 17.8001C68 15.4001 69.9 13.6001 72.2 13.6001C74.5 13.6001 76.4 15.5001 76.4 17.8001Z" fill="currentColor"/><path d="M76.4 4.2C76.4 6.5 74.5 8.4 72.2 8.4C69.9 8.4 68 6.6 68 4.2C68 1.9 69.9 0 72.2 0C74.5 0 76.4 1.9 76.4 4.2Z" fill="currentColor"/></svg>