<svg width="90" height="90" viewBox="0 0 90 90" fill="none" xmlns="http://www.w3.org/2000/svg"><path d="M0.000389099 31.4002C0.000389099 33.7002 1.90039 35.6002 4.20039 35.6002C6.50039 35.6002 8.40039 33.7002 8.40039 31.4002C8.40039 29.1002 6.50039 27.2002 4.20039 27.2002C1.90039 27.2002 0.000389099 29.1002 0.000389099 31.4002Z" fill="currentColor"/><path d="M0.000389099 17.8001C0.000389099 20.1001 1.90039 22.0001 4.20039 22.0001C6.50039 22.0001 8.40039 20.1001 8.40039 17.8001C8.40039 15.5001 6.50039 13.6001 4.20039 13.6001C1.90039 13.6001 0.000389099 15.5001 0.000389099 17.8001Z" fill="currentColor"/><path d="M0.000389099 44.9998C0.000389099 47.2998 1.90039 49.1998 4.20039 49.1998C6.50039 49.1998 8.40039 47.2998 8.40039 44.9998C8.40039 42.6998 6.50039 40.7998 4.20039 40.7998C1.90039 40.7998 0.000389099 42.6998 0.000389099 44.9998Z" fill="currentColor"/><path d="M0.000389099 72.2C0.000389099 74.5 1.90039 76.4 4.20039 76.4C6.50039 76.4 8.40039 74.5 8.40039 72.2C8.40039 69.9 6.50039 68 4.20039 68C1.90039 68 0.000389099 69.8 0.000389099 72.2Z" fill="currentColor"/><path d="M0.000389099 85.8001C0.000389099 88.1001 1.90039 90.0001 4.20039 90.0001C6.50039 90.0001 8.40039 88.1001 8.40039 85.8001C8.40039 83.5001 6.50039 81.6001 4.20039 81.6001C1.90039 81.6001 0.000389099 83.4001 0.000389099 85.8001Z" fill="currentColor"/><path d="M0.000389099 58.5999C0.000389099 60.8999 1.90039 62.7999 4.20039 62.7999C6.50039 62.7999 8.40039 60.8999 8.40039 58.5999C8.40039 56.2999 6.50039 54.3999 4.20039 54.3999C1.90039 54.3999 0.000389099 56.2999 0.000389099 58.5999Z" fill="currentColor"/><path d="M31.3996 49.1998C29.08 49.1998 27.1996 47.3194 27.1996 44.9998C27.1996 42.6802 29.08 40.7998 31.3996 40.7998C33.7192 40.7998 35.5996 42.6802 35.5996 44.9998C35.5996 47.3194 33.7192 49.1998 31.3996 49.1998Z" fill="currentColor"/><path d="M27.1996 72.2C27.1996 74.5 29.0996 76.4 31.3996 76.4C33.6996 76.4 35.5996 74.5 35.5996 72.2C35.5996 69.9 33.6996 68 31.3996 68C29.0996 68 27.1996 69.8 27.1996 72.2Z" fill="currentColor"/><path d="M27.1996 85.8001C27.1996 88.1001 29.0996 90.0001 31.3996 90.0001C33.6996 90.0001 35.5996 88.1001 35.5996 85.8001C35.5996 83.5001 33.6996 81.6001 31.3996 81.6001C29.0996 81.6001 27.1996 83.4001 27.1996 85.8001Z" fill="currentColor"/><path d="M54.3998 85.8001C54.3998 88.1001 56.2998 90.0001 58.5998 90.0001C60.8998 90.0001 62.7998 88.1001 62.7998 85.8001C62.7998 83.5001 60.8998 81.6001 58.5998 81.6001C56.2998 81.6001 54.3998 83.4001 54.3998 85.8001Z" fill="currentColor"/><path d="M40.8002 58.5999C40.8002 60.8999 42.7002 62.7999 45.0002 62.7999C47.3002 62.7999 49.2002 60.8999 49.2002 58.5999C49.2002 56.2999 47.3002 54.3999 45.0002 54.3999C42.7002 54.3999 40.8002 56.2999 40.8002 58.5999Z" fill="currentColor"/><path d="M40.8002 72.2C40.8002 74.5 42.7002 76.4 45.0002 76.4C47.3002 76.4 49.2002 74.5 49.2002 72.2C49.2002 69.9 47.3002 68 45.0002 68C42.7002 68 40.8002 69.8 40.8002 72.2Z" fill="currentColor"/><path d="M13.6 72.2C13.6 74.5 15.5 76.4 17.8 76.4C20.1 76.4 22 74.5 22 72.2C22 69.9 20.1 68 17.8 68C15.5 68 13.6 69.8 13.6 72.2Z" fill="currentColor"/><path d="M40.8002 85.8001C40.8002 88.1001 42.7002 90.0001 45.0002 90.0001C47.3002 90.0001 49.2002 88.1001 49.2002 85.8001C49.2002 83.5001 47.3002 81.6001 45.0002 81.6001C42.7002 81.6001 40.8002 83.4001 40.8002 85.8001Z" fill="currentColor"/><path d="M13.6 58.5999C13.6 60.8999 15.5 62.7999 17.8 62.7999C20.1 62.7999 22 60.8999 22 58.5999C22 56.2999 20.1 54.3999 17.8 54.3999C15.5 54.3999 13.6 56.2999 13.6 58.5999Z" fill="currentColor"/><path d="M13.6 85.8001C13.6 88.1001 15.5 90.0001 17.8 90.0001C20.1 90.0001 22 88.1001 22 85.8001C22 83.5001 20.1 81.6001 17.8 81.6001C15.5 81.6001 13.6 83.4001 13.6 85.8001Z" fill="currentColor"/><path d="M13.6 44.9998C13.6 47.2998 15.5 49.1998 17.8 49.1998C20.1 49.1998 22 47.2998 22 44.9998C22 42.6998 20.1 40.7998 17.8 40.7998C15.5 40.7998 13.6 42.6998 13.6 44.9998Z" fill="currentColor"/><path d="M13.6 31.4002C13.6 33.7002 15.5 35.6002 17.8 35.6002C20.1 35.6002 22 33.7002 22 31.4002C22 29.1002 20.1 27.2002 17.8 27.2002C15.5 27.2002 13.6 29.1002 13.6 31.4002Z" fill="currentColor"/><path d="M27.1996 58.5999C27.1996 60.8999 29.0996 62.7999 31.3996 62.7999C33.6996 62.7999 35.5996 60.8999 35.5996 58.5999C35.5996 56.2999 33.6996 54.3999 31.3996 54.3999C29.0996 54.3999 27.1996 56.2999 27.1996 58.5999Z" fill="currentColor"/><path d="M68.0004 85.8001C68.0004 88.1001 69.9004 90.0001 72.2004 90.0001C74.5004 90.0001 76.4004 88.1001 76.4004 85.8001C76.4004 83.5001 74.5004 81.6001 72.2004 81.6001C69.9004 81.6001 68.0004 83.4001 68.0004 85.8001Z" fill="currentColor"/><path d="M68.0004 72.2C68.0004 74.5 69.9004 76.4 72.2004 76.4C74.5004 76.4 76.4004 74.5 76.4004 72.2C76.4004 69.9 74.5004 68 72.2004 68C69.9004 68 68.0004 69.8 68.0004 72.2Z" fill="currentColor"/><path d="M40.8002 44.9998C40.8002 47.2998 42.7002 49.1998 45.0002 49.1998C47.3002 49.1998 49.2002 47.2998 49.2002 44.9998C49.2002 42.6998 47.3002 40.7998 45.0002 40.7998C42.7002 40.7998 40.8002 42.6998 40.8002 44.9998Z" fill="currentColor"/><path d="M54.3998 72.2C54.3998 74.5 56.2998 76.4 58.5998 76.4C60.8998 76.4 62.7998 74.5 62.7998 72.2C62.7998 69.9 60.8998 68 58.5998 68C56.2998 68 54.3998 69.8 54.3998 72.2Z" fill="currentColor"/><path d="M68.0004 85.8001C68.0004 88.1001 69.9004 90.0001 72.2004 90.0001C74.5004 90.0001 76.4004 88.1001 76.4004 85.8001C76.4004 83.5001 74.5004 81.6001 72.2004 81.6001C69.9004 81.6001 68.0004 83.4001 68.0004 85.8001Z" fill="currentColor"/><path d="M81.6 85.8001C81.6 88.1001 83.5 90.0001 85.8 90.0001C88.1 90.0001 90 88.1001 90 85.8001C90 83.5001 88.1 81.6001 85.8 81.6001C83.4 81.6001 81.6 83.4001 81.6 85.8001Z" fill="currentColor"/><path d="M81.6 72.2C81.6 74.5 83.5 76.4 85.8 76.4C88.1 76.4 90 74.5 90 72.2C90 69.8 88.1 68 85.8 68C83.4 68 81.6 69.8 81.6 72.2Z" fill="currentColor"/><path d="M68.0004 72.2C68.0004 74.5 69.9004 76.4 72.2004 76.4C74.5004 76.4 76.4004 74.5 76.4004 72.2C76.4004 69.9 74.5004 68 72.2004 68C69.9004 68 68.0004 69.8 68.0004 72.2Z" fill="currentColor"/><path d="M13.6 17.8001C13.6 20.1001 15.5 22.0001 17.8 22.0001C20.1 22.0001 22 20.1001 22 17.8001C22 15.5001 20.1 13.6001 17.8 13.6001C15.5 13.6001 13.6 15.5001 13.6 17.8001Z" fill="currentColor"/><path d="M0.000389099 17.8001C0.000389099 20.1001 1.90039 22.0001 4.20039 22.0001C6.50039 22.0001 8.40039 20.1001 8.40039 17.8001C8.40039 15.5001 6.50039 13.6001 4.20039 13.6001C1.90039 13.6001 0.000389099 15.5001 0.000389099 17.8001Z" fill="currentColor"/><path d="M0.000389099 4.2C0.000389099 6.5 1.90039 8.4 4.20039 8.4C6.50039 8.4 8.40039 6.5 8.40039 4.2C8.40039 1.9 6.50039 0 4.20039 0C1.90039 0 0.000389099 1.9 0.000389099 4.2Z" fill="currentColor"/><path d="M13.6 17.8001C13.6 20.1001 15.5 22.0001 17.8 22.0001C20.1 22.0001 22 20.2001 22 17.8001C22 15.4001 20.1 13.6001 17.8 13.6001C15.5 13.6001 13.6 15.5001 13.6 17.8001Z" fill="currentColor"/><path d="M13.6 4.2C13.6 6.5 15.5 8.4 17.8 8.4C20.1 8.4 22 6.6 22 4.2C22 1.9 20.1 0 17.8 0C15.5 0 13.6 1.9 13.6 4.2Z" fill="currentColor"/></svg>