<svg width="36" height="10" viewBox="0 0 36 10" fill="none" xmlns="http://www.w3.org/2000/svg">
<path d="M5 10C5.98891 10 6.95561 9.70676 7.77785 9.15735C8.6001 8.60794 9.24096 7.82705 9.6194 6.91342C9.99784 5.99979 10.0969 4.99446 9.90393 4.02455C9.711 3.05465 9.2348 2.16373 8.53553 1.46447C7.83627 0.765206 6.94536 0.289002 5.97545 0.0960759C5.00555 -0.0968503 4.00021 0.00216642 3.08658 0.380605C2.17295 0.759043 1.39206 1.39991 0.842652 2.22215C0.293245 3.0444 0 4.0111 0 5C0 5.65661 0.129329 6.30679 0.380602 6.91342C0.631876 7.52005 1.00017 8.07124 1.46447 8.53554C2.40215 9.47322 3.67392 10 5 10ZM5 2C5.59334 2 6.17336 2.17595 6.66671 2.50559C7.16006 2.83524 7.54458 3.30377 7.77164 3.85195C7.9987 4.40013 8.05811 5.00333 7.94236 5.58527C7.8266 6.16722 7.54088 6.70177 7.12132 7.12132C6.70176 7.54088 6.16721 7.8266 5.58527 7.94236C5.00333 8.05811 4.40013 7.9987 3.85195 7.77164C3.30377 7.54458 2.83524 7.16006 2.50559 6.66671C2.17595 6.17337 2 5.59335 2 5C2 4.20435 2.31607 3.44129 2.87868 2.87868C3.44129 2.31607 4.20435 2 5 2Z" fill="#181818"/>
<path d="M31 0C30.0111 0 29.0444 0.293245 28.2222 0.842652C27.3999 1.39206 26.759 2.17295 26.3806 3.08658C26.0022 4.00021 25.9031 5.00555 26.0961 5.97545C26.289 6.94536 26.7652 7.83627 27.4645 8.53553C28.1637 9.2348 29.0546 9.711 30.0246 9.90393C30.9945 10.0969 31.9998 9.99784 32.9134 9.6194C33.8271 9.24096 34.6079 8.6001 35.1574 7.77785C35.7068 6.95561 36 5.98891 36 5C36 3.67392 35.4732 2.40215 34.5355 1.46447C33.5979 0.526784 32.3261 0 31 0ZM31 8C30.4067 8 29.8266 7.82405 29.3333 7.49441C28.8399 7.16477 28.4554 6.69623 28.2284 6.14805C28.0013 5.59987 27.9419 4.99667 28.0576 4.41473C28.1734 3.83279 28.4591 3.29824 28.8787 2.87868C29.2982 2.45912 29.8328 2.1734 30.4147 2.05764C30.9967 1.94189 31.5999 2.0013 32.1481 2.22836C32.6962 2.45542 33.1648 2.83994 33.4944 3.33329C33.8241 3.82664 34 4.40666 34 5C34 5.79565 33.6839 6.55871 33.1213 7.12132C32.5587 7.68393 31.7957 8 31 8Z" fill="#181818"/>
<path d="M23 5C23 4.0111 22.7068 3.0444 22.1574 2.22215C21.6079 1.39991 20.8271 0.759043 19.9134 0.380605C18.9998 0.00216642 17.9945 -0.0968503 17.0246 0.0960759C16.0546 0.289002 15.1637 0.765206 14.4645 1.46447C13.7652 2.16373 13.289 3.05465 13.0961 4.02455C12.9031 4.99446 13.0022 5.99979 13.3806 6.91342C13.759 7.82705 14.3999 8.60794 15.2222 9.15735C16.0444 9.70676 17.0111 10 18 10C18.6566 10 19.3068 9.87067 19.9134 9.6194C20.52 9.36813 21.0712 8.99983 21.5355 8.53554C21.9998 8.07124 22.3681 7.52005 22.6194 6.91342C22.8707 6.30679 23 5.65661 23 5ZM15 5C15 4.40666 15.1759 3.82664 15.5056 3.33329C15.8352 2.83995 16.3038 2.45543 16.852 2.22836C17.4001 2.0013 18.0033 1.94189 18.5853 2.05765C19.1672 2.1734 19.7018 2.45912 20.1213 2.87868C20.5409 3.29824 20.8266 3.83279 20.9424 4.41473C21.0581 4.99667 20.9987 5.59987 20.7716 6.14805C20.5446 6.69623 20.1601 7.16477 19.6667 7.49441C19.1734 7.82406 18.5933 8 18 8C17.2044 8 16.4413 7.68393 15.8787 7.12132C15.3161 6.55871 15 5.79565 15 5Z" fill="#181818"/>
</svg>
