<svg width="81" height="81" viewBox="0 0 81 81" fill="none" xmlns="http://www.w3.org/2000/svg">
<path d="M30.1835 54.2843L30.8906 54.9914L31.5977 54.2843L54.2841 31.598L54.9912 30.8909L54.2841 30.1837L51.0432 26.9429L50.3361 26.2358L49.629 26.9429L26.9426 49.6292L26.2355 50.3363L26.9426 51.0434L30.1835 54.2843ZM35.0449 9.11784L35.7258 9.79876L35.0449 9.11784L26.9427 17.2201L26.2356 17.9272L26.9427 18.6343L30.1836 21.8752L30.8907 22.5823L31.5978 21.8752L39.7 13.773C47.3641 6.10883 59.7899 6.10887 67.454 13.773C75.118 21.4371 75.1181 33.8628 67.454 41.5269L59.3517 49.6292L58.6446 50.3363L59.3517 51.0434L62.5926 54.2843L63.2997 54.9914L64.0068 54.2843L72.1091 46.182C82.3442 35.947 82.3442 19.353 72.1091 9.1179C61.8741 -1.1171 45.28 -1.11724 35.0449 9.11784ZM18.6341 26.9429L17.927 26.2358L17.2199 26.9429L9.11765 35.0451C-1.11736 45.2802 -1.11733 61.8743 9.11767 72.1093C19.3528 82.3444 35.9468 82.3443 46.1818 72.1093L54.2841 64.0071L54.9912 63.3L54.2841 62.5928L51.0432 59.352L50.3361 58.6449L49.629 59.352L41.5267 67.4542C33.8627 75.1182 21.4369 75.1182 13.7728 67.4542C6.10867 59.7901 6.10878 47.3643 13.7728 39.7003L21.875 31.598L22.5821 30.8909L21.875 30.1838L18.6341 26.9429Z" fill="#181818" stroke="black" stroke-width="2"/>
</svg>
