<svg width="201" height="200" viewBox="0 0 201 200" fill="none" xmlns="http://www.w3.org/2000/svg"><path d="M108.827 113.424L104.579 103.171L99.2904 90.4944L98.7081 89.1484C98.6126 88.9003 98.5172 88.6521 98.4122 88.4039C97.7917 86.8479 97.1426 85.2251 96.4457 83.5355L94.0593 77.7029C93.2765 75.7938 92.5606 73.961 91.9114 72.2045C91.2719 70.4576 90.7564 68.9971 90.3841 67.7371C88.9092 67.8857 87.4276 67.959 85.9453 67.9566C84.5134 67.9566 83.0815 67.8898 81.831 67.7657C82.5278 69.0639 83.4156 70.9254 84.5038 73.3691C85.5921 75.8129 86.8521 78.6671 88.2267 81.8268C89.6013 84.9864 91.0905 88.3943 92.6369 92.0599C94.1833 95.7256 95.768 99.4293 97.3335 103.152C98.899 106.875 100.436 110.55 101.944 114.197C103.452 117.843 105.524 122.874 106.822 126.015H106.908L107.691 124.363C110.663 117.547 113.619 110.811 116.559 104.155H112.807L108.827 113.424Z" fill="#1D1D1B"/><path d="M126.067 120.593C126.964 122.788 127.785 124.898 128.529 126.903C129.274 128.907 129.847 130.587 130.276 132C133.537 131.631 136.829 131.631 140.089 132C139.288 130.517 138.266 128.376 137.025 125.576C135.784 122.776 134.359 119.543 132.749 115.877C131.177 112.256 129.49 108.342 127.689 104.136C125.888 99.9291 124.097 95.6907 122.315 91.4206L122.267 91.3251C125.755 83.542 129.312 75.7271 132.94 67.8804C132.061 67.9282 131.145 67.9568 130.209 67.9568C129.102 67.9568 128.023 67.9568 126.993 67.8423C126.299 70.3051 125.262 73.4011 123.881 77.1304C122.773 80.1278 121.564 83.2525 120.253 86.5044C119.165 83.8952 118.086 81.3051 117.017 78.7341C115.292 74.5657 113.686 70.6837 112.196 67.0881H110.43C107.137 74.6389 104.35 80.901 101.085 88.2895L103.204 93.3584L109.132 79.6219L116.091 96.4512L116.015 96.6326H104.56L107.032 102.513H118.64L119.031 103.467L120.75 107.486C121.551 109.529 122.417 111.68 123.346 113.939C124.262 116.173 125.169 118.397 126.067 120.593Z" fill="#1D1D1B"/><path d="M90.1073 109.701L91.606 113.204L92.1501 114.569L95.8825 123.781L96.2548 124.669C96.608 125.538 96.9421 126.387 97.2667 127.218L98.0876 129.241C98.0876 129.241 99.8154 129.146 101.906 129.146C103.997 129.146 105.887 129.241 105.887 129.241C105.887 129.241 105.82 129.079 105.782 129.003C104.674 126.521 103.433 123.702 102.059 120.545C100.684 117.389 99.214 113.977 97.6485 110.312C96.083 106.64 94.5175 102.942 92.9519 99.2196C91.3864 95.4967 89.8718 91.8088 88.4081 88.1559L84.1984 77.9991L83.4156 76.1949C79.2059 85.8458 74.2707 97.1959 70.1182 106.484C66.7454 114.025 63.2961 121.598 59.7705 129.203C60.5819 129.203 61.4219 129.127 62.2906 129.127C63.1593 129.127 64.1043 129.127 64.973 129.213C65.4026 127.972 65.9276 126.645 66.4049 125.223C67.8049 121.404 69.3673 117.398 71.0919 113.204L72.6288 109.481L81.4492 88.9196L90.1073 109.701Z" fill="#1D1D1B"/></svg>