<svg xmlns="http://www.w3.org/2000/svg" id="Capa_1" data-name="Capa 1" viewBox="0 0 276.18 68"><defs><style>.cls-1{fill:none;}.cls-2{fill:#1d1d1b;}</style></defs><rect class="cls-1" width="276.18" height="68"></rect><path class="cls-2" d="M147.39,48.54,142.94,37.8,137.4,24.52l-.61-1.41c-.1-.26-.2-.52-.31-.78h0c-.65-1.63-1.33-3.33-2.06-5.1l-2.5-6.11q-1.23-3-2.25-5.76C129,3.53,128.46,2,128.07.68a45.66,45.66,0,0,1-4.65.23c-1.5,0-3-.07-4.31-.2.73,1.36,1.66,3.31,2.8,5.87s2.46,5.55,3.9,8.86,3,6.88,4.62,10.72,3.28,7.72,4.92,11.62,3.25,7.75,4.83,11.57,3.75,9.09,5.11,12.38h.09L146.2,60q4.67-10.71,9.29-21.17h-3.93Z"></path><path class="cls-2" d="M165.45,56.05c.94,2.3,1.8,4.51,2.58,6.61s1.38,3.86,1.83,5.34a45.71,45.71,0,0,1,10.28,0q-1.26-2.33-3.21-6.73t-4.48-10.16q-2.47-5.69-5.3-12.3t-5.63-13.32l-.05-.1Q166.95,13.16,172.65.83c-.92.05-1.88.08-2.86.08-1.16,0-2.29,0-3.37-.12q-1.09,3.87-3.26,9.73-1.74,4.71-3.8,9.82-1.71-4.1-3.39-8.14Q153.26,5.65,150.92,0h-1.85c-3.45,7.91-6.37,14.47-9.79,22.21l2.22,5.31,6.21-14.39L155,30.76l-.08.19h-12l2.59,6.16h12.16l.41,1,1.8,4.21q1.26,3.21,2.72,6.76C163.56,51.42,164.51,53.75,165.45,56.05Z"></path><path class="cls-2" d="M127.78,44.64l1.57,3.67.57,1.43h0l3.91,9.65h0l.39.93c.37.91.72,1.8,1.06,2.67l.86,2.12s1.81-.1,4-.1,4.17.1,4.17.1-.07-.17-.11-.25q-1.74-3.9-3.9-8.86t-4.62-10.72q-2.46-5.77-4.92-11.62T126,22.07l-4.41-10.64-.82-1.89c-4.41,10.11-9.58,22-13.93,31.73Q101.54,53.12,96,65.07c.85,0,1.73-.08,2.64-.08s1.9,0,2.81.09c.45-1.3,1-2.69,1.5-4.18q2.2-6,4.91-12.59l1.61-3.9,9.24-21.54Z"></path></svg>