<svg xmlns="http://www.w3.org/2000/svg" viewBox="0 0 161.15 68.39"><defs><style>.cls-1{isolation:isolate;}.cls-2{fill:#1d1d1b;}.cls-3{fill:#EB671C}.cls-4{stroke:#000;stroke-miterlimit:10;stroke-width:0.21px;mix-blend-mode:multiply;}</style></defs><g class="cls-1"><g id="Capa_1" data-name="Capa 1"><path class="cls-2" d="M19.08,66.15c3.22,3.61,8.33,3.11,10.25-3.37v0H16.46A32.68,32.68,0,0,0,19.08,66.15Z"></path><path class="cls-2" d="M40.92,1.54,32,2.73V56.5L46.29,8.6C47.23,5.39,45.8.89,40.92,1.54Z"></path><path class="cls-3" d="M13,1.81v64.7H34.72V1.81ZM32.77,64.56H14.92V3.76H32.77Z"></path><path class="cls-2" d="M11.17,0V64.7H32.91V0ZM31,62.76H13.12V2H31Z"></path><path class="cls-2" d="M31,58.93V2.87l-6.23.83C19.85,4.36,11.87,5.5,7,6.25L4.2,6.69c-4.86.74-5.62,3.77-1.67,6.71L9,18.19a15.06,15.06,0,0,1,5.2,14.09L10.73,47.41a15.1,15.1,0,0,0,.42,7.35c.64,2.16,2.69,5.3,5.31,8H29.34Z"></path><path class="cls-3" d="M23.62,18.76h.92V21H19.7V18.76h.95V8.17c0-.62-.95-.6-.95-.6V5.3c1.22-.48,3.92-.5,3.92,1.37Z"></path><path class="cls-3" d="M22.12,26.72a2.14,2.14,0,0,0-2.36,2.58H17.09c.13-2.81,1.07-5.12,5.05-5.12,0,0,5,0,5,4.64s-7.06,5.07-7.06,9.09H25V37h2.13v3.19H17.09V37.91c0-4.71,7.09-6,7.09-9.09A2,2,0,0,0,22.12,26.72Z"></path><path class="cls-3" d="M22.11,43.36c4.4,0,5.83,3.58,5.83,8.07s-1.43,8.11-5.83,8.11-5.8-3.65-5.8-8.11S17.75,43.36,22.11,43.36Zm0,2.51c-2.16,0-2.81,2.43-2.81,5.56s.65,5.64,2.81,5.64,2.83-2.48,2.83-5.64S24.33,45.87,22.11,45.87Z"></path><path class="cls-4" d="M10.64,52.56c-.05-.26-.09-.52-.14-.78A7.55,7.55,0,0,0,10.64,52.56Z"></path><path class="cls-3" d="M16.94,24.5c-1-1.39-6.83-5.78-9.06-7.26a8.79,8.79,0,0,0-1-.6L9,18.19a15.06,15.06,0,0,1,5.2,14.09L10.73,47.41a13.79,13.79,0,0,0-.05,5.29c-.2-1.93-.35-3.27,1.11-7.92C13.42,39.63,22.7,32.88,16.94,24.5Z"></path><path class="cls-2" d="M52.57,32l3.1-6.32H60v2.09h-.85l.64,10.35h.85v2.1H56.17v-2.1H57l-.55-8.39-3.19,6.07H51.85L48.6,29.74l-.53,8.39H49v2.1H44.47v-2.1h.85L46,27.78h-.85V25.69h4.32Z"></path><path class="cls-2" d="M72.53,40.23,71.29,36.6h-5l-1.28,3.63H62.1v-2.1H63l4.53-12.44h2.6l4.55,12.44h.85v2.1Zm-2-5.72-1.74-5-1.77,5Z"></path><path class="cls-2" d="M77.86,27.78H77V25.69H82.7c1.36,0,5,0,5,4.52,0,3.76-2.34,4.12-2.34,4.12,1.41,1.67,1.2,3.57,3.35,3.8v2.1c-1.14.36-2.91.31-3.62-.9L82.63,34.8h-2v3.33h.89v2.1H77v-2.1h.89ZM85,30.25c0-2.64-2.25-2.47-2.25-2.47H80.63v4.93H82.7A2.16,2.16,0,0,0,85,30.25Z"></path><path class="cls-2" d="M91.33,27.78h-.9V25.69H94.1v6.94l3.78-4.85h-.76V25.69h4.5v2.09h-1l-3.76,4.85c1.45,1.39,2.63,5.5,4.71,5.5v2.1a3.24,3.24,0,0,1-3.69-1l-2.69-4.42H94.1v3.29H95v2.1H90.51v-2.1h.82Z"></path><path class="cls-2" d="M104.13,27.78h-.85V25.69h10.87v2.95h-2v-.86h-5.25v4.07h4.84v2h-4.84v4.28h5.25v-.85h2v2.95H103.28v-2.1h.85Z"></path><path class="cls-2" d="M123.57,38.13v2.1h-4.48v-2.1H120V27.78h-2.1v.86h-2V25.69h11v2.95h-2v-.86H122.7V38.13Z"></path><path class="cls-2" d="M129.44,27.78h-.85V25.69h4.48v2.09h-.86V38.13h.86v2.1h-4.48v-2.1h.85Z"></path><path class="cls-2" d="M143.69,27.78h-.86V25.69h4.48v2.09h-.85V38.13h.85v2.1h-3.62L138.45,30v8.14h.86v2.1h-4.46v-2.1h.85V27.78h-.85V25.69h4.46l4.38,9Z"></path><path class="cls-2" d="M161.15,40.23h-4.6c-3.31,0-6.1-1.46-7.13-4.56a10.25,10.25,0,0,1,.31-6.8,6.45,6.45,0,0,1,6.09-3.6,14.37,14.37,0,0,1,5.33,1v2.19h-2V27.8a9.93,9.93,0,0,0-3.18-.11,4.6,4.6,0,0,0-4.15,4.92c0,2.6,1.83,5.52,4.75,5.52h1.8c0-.79,0-2.63,0-3.18h-.83v-2h3.61Z"></path><path class="cls-2" d="M50.4,45.07s7-.31,7,7.23c0,0,0,7.29-7,7.3H44.47V57.51h.87V47.16h-.87V45.07Zm0,2.09H48.11V57.51H50.4c4.19,0,4.19-5.21,4.19-5.21C54.59,47.2,50.4,47.16,50.4,47.16Z"></path><path class="cls-2" d="M59.91,47.16h-.85V45.07h4.48v2.09h-.86V57.51h.86V59.6H59.06V57.51h.85Z"></path><path class="cls-2" d="M77.18,59.6H72.59c-3.32,0-6.11-1.45-7.13-4.55a10.19,10.19,0,0,1,.31-6.8,6.45,6.45,0,0,1,6.08-3.61,14.38,14.38,0,0,1,5.33,1v2.19h-2v-.64A9.94,9.94,0,0,0,72,47.07,4.59,4.59,0,0,0,67.84,52c0,2.6,1.82,5.52,4.75,5.52h1.8c0-.79,0-2.63,0-3.18h-.83v-2h3.6Z"></path><path class="cls-2" d="M79.82,47.16H79V45.07h4.48v2.09h-.85V57.51h.85V59.6H79V57.51h.86Z"></path><path class="cls-2" d="M92.93,57.51V59.6H88.46V57.51h.85V47.16H87.22V48h-2v-3h11v3h-2v-.86H92.06V57.51Z"></path><path class="cls-2" d="M105.74,59.6,104.5,56h-5L98.26,59.6H95.32V57.51h.85l4.54-12.44h2.59l4.56,12.44h.85V59.6Zm-2-5.71-1.75-5-1.76,5Z"></path><path class="cls-2" d="M117.8,57.51V56.7h2v2.9h-9.59V57.51H111V47.16h-.85V45.07h4.5v2.09h-.88V57.51Z"></path></g></g></svg>