<svg xmlns="http://www.w3.org/2000/svg" id="Capa_1" data-name="Capa 1" viewBox="0 0 276.18 68"><defs><style>.cls-1{fill:none;}.cls-2{fill:#1d1d1b;}</style></defs><rect class="cls-1" width="276.18" height="68"></rect><path class="cls-2" d="M119.37,62.31h.89v5.61h-.89Z"></path><path class="cls-2" d="M122.87,62.31h1l2.9,4v-4h.88v5.61h-.82l-3.06-4.25v4.25h-.88Z"></path><path class="cls-2" d="M130,65.11c0-2,1-2.89,2.83-2.89a2.76,2.76,0,0,1,2.12.75l-.64.67a2,2,0,0,0-1.49-.54c-1.32,0-1.92.67-1.92,2s.47,2.06,1.91,2.06c1.28,0,1.61-.48,1.61-1.47v-.15h-1.71v-.82h2.6v.79c0,1.57-.51,2.47-2.53,2.47S130,67,130,65.11Z"></path><path class="cls-2" d="M137.6,62.31h3.9v.88h-3v1.4h2.93v.87H138.5v1.59h3v.87H137.6Z"></path><path class="cls-2" d="M143.92,62.31h1l2.91,4v-4h.88v5.61h-.83l-3.06-4.25v4.25h-.88Z"></path><path class="cls-2" d="M151.31,62.31h.89v5.61h-.89Z"></path><path class="cls-2" d="M154.81,62.31h3.9v.88h-3v1.4h2.93v.87h-2.93v1.59h3v.87h-3.93Z"></path><path class="cls-2" d="M163.47,65.87H162v2h-.88V62.31h2.53c1.51,0,2,.66,2,1.75a1.59,1.59,0,0,1-1.28,1.74l1.2,2.12h-1Zm.17-.84c.72,0,1.12-.2,1.12-.93s-.38-1-1.14-1H162V65Z"></path><path class="cls-2" d="M169.06,60.7h1.09L168.89,62h-.82Zm-1,1.61h.9v5.61h-.9Z"></path><path class="cls-2" d="M173.37,62.27h.93l2.22,5.65h-.93l-.41-1.08h-2.71l-.41,1.08h-.9ZM174.86,66l-1-2.62-1,2.62Z"></path><path class="cls-2" d="M181.92,62.31h1.18l1.75,4.31,1.76-4.31h1.16v5.61h-.89V63.85l-1.67,4.07h-.74l-1.67-4.07v4.07h-.88Z"></path><path class="cls-2" d="M190.36,62.31h3.9v.88h-3v1.4h2.92v.87h-2.92v1.59h3v.87h-3.93Z"></path><path class="cls-2" d="M198.32,63.19h-2v-.88h4.89v.88h-2v4.73h-.91Z"></path><path class="cls-2" d="M204.44,62.27h.93l2.22,5.65h-.93l-.41-1.08h-2.71l-.41,1.08h-.9ZM205.93,66l-1-2.62-1,2.62Zm-.62-5.3h1.06L205,62h-.79Z"></path><path class="cls-2" d="M209.73,62.31h.91v4.77h2.82v.84h-3.73Z"></path><path class="cls-2" d="M215.64,62.31h.9v5.61h-.9Z"></path><path class="cls-2" d="M218.89,65.11c0-2,1-2.89,2.83-2.89a2.76,2.76,0,0,1,2.06.76l-.66.66a1.91,1.91,0,0,0-1.4-.54c-1.31,0-1.92.69-1.92,2s.55,2,1.92,2a1.8,1.8,0,0,0,1.45-.57l.64.62a2.68,2.68,0,0,1-2.14.81C219.71,68,218.89,67,218.89,65.11Z"></path><path class="cls-2" d="M227.9,62.27h.93l2.22,5.65h-.93l-.41-1.08H227l-.41,1.08h-.9ZM229.39,66l-1-2.62-1,2.62Z"></path><path class="cls-2" d="M220.47,45.15c0-4-.83-7.89-7.62-10,6.66-3.32,5.91-10.64,5.91-10.64s-.06-9.37-9.68-9.37H187.25V56.32h20.9C217.68,56.32,220.47,48.88,220.47,45.15Zm-13.15,3.14c-3.37,0-12-.06-12-.06v-25h11.33c3.71,0,4.2,2.51,4.2,4.68,0,1.29-.73,3.62-4.59,3.62H204.4v8.2h3.06c3.13,0,5,1.26,5,3.57C212.44,46.71,210.69,48.29,207.32,48.29Z"></path><polygon class="cls-2" points="231.72 15.04 222.89 15.04 222.89 56.32 231.72 56.25 231.72 15.04"></polygon><polygon class="cls-2" points="183.23 23.09 183.23 15.04 153.59 15.04 153.59 56.32 162.59 56.32 162.59 56.32 183.23 56.32 183.23 48.28 162.59 48.28 162.59 39.7 174.73 39.7 174.73 31.66 162.59 31.66 162.59 23.09 183.23 23.09"></polygon><path class="cls-2" d="M150.27,15.13H127.36c-7.58,0-8.82,6.56-9.09,9.11s-.16,14.07-.16,21.28c0,6.9,4.88,10.73,11.82,10.73h20.5V31.66h-14.3v7.9H142v8.77h-9.06c-6.64,0-6.15-5.53-6.15-5.53s-.2-11.48.41-15.57,3.68-4,5.21-4h9.93v3.57h7.93Z"></path><polygon class="cls-2" points="75.42 15.37 62.05 15.37 75.42 31.85 88.78 15.37 75.42 15.37"></polygon><polygon class="cls-2" points="44.63 0.2 44.45 0.41 44.45 12.58 49.77 6.35 44.63 0.2"></polygon><polygon class="cls-2" points="51.05 7.88 44.45 15.76 44.45 27.83 56.21 14.04 51.05 7.88"></polygon><polygon class="cls-2" points="57.48 15.55 44.45 31.11 44.45 31.41 49.43 37.24 62.66 21.74 57.48 15.55"></polygon><polygon class="cls-2" points="63.91 23.23 50.82 38.87 55.94 44.87 69.1 29.43 63.91 23.23"></polygon><polygon class="cls-2" points="75.42 36.97 75.42 36.97 70.33 30.91 57.3 46.47 62.44 52.49 75.42 37.27 75.42 40.19 63.79 54.08 68.94 60.11 75.42 52.52 75.42 55.54 70.27 61.68 75.42 67.71 106.37 31.41 106.37 0 75.42 36.97"></polygon></svg>