<svg width="201" height="200" viewBox="0 0 201 200" fill="none" xmlns="http://www.w3.org/2000/svg"><path fill-rule="evenodd" clip-rule="evenodd" d="M105.817 107.611V97.8762C104.679 97.8327 101.258 97.7313 100.432 98.0937C100.096 98.2438 99.8176 98.4986 99.6386 98.82C99.4596 99.1414 99.3894 99.5121 99.4387 99.8767V105.501C99.4387 106.48 99.5184 107.154 100.323 107.458C101.128 107.763 104.737 107.654 105.788 107.625M105.977 109.357C106.172 112.046 105.933 111.967 101.744 111.967C100.41 111.967 95.8074 111.901 94.8578 111.967V114.011C95.6841 114.112 102.389 114.011 103.824 114.011C106.15 114.011 110.347 114.388 111.855 112.945C112.087 112.746 112.264 112.489 112.367 112.2C112.47 111.912 112.496 111.601 112.442 111.3V95.4916H94.9376C92.9588 95.709 92.6761 97.1659 92.6761 99.1881V105.03C92.6761 110.285 93.9083 109.343 100.084 109.343L105.977 109.357Z" fill="#1D1D1B"/><path fill-rule="evenodd" clip-rule="evenodd" d="M85.9788 88.1928C85.5361 88.2432 85.1082 88.3825 84.7206 88.6022C84.3329 88.822 83.9936 89.1176 83.723 89.4715C83.4523 89.8255 83.2558 90.2304 83.1452 90.662C83.0347 91.0936 83.0123 91.5431 83.0796 91.9836C83.1695 92.6416 83.4524 93.2583 83.8924 93.7559C84.3323 94.2534 84.9098 94.6095 85.5519 94.7793C86.1941 94.9491 86.8721 94.925 87.5005 94.71C88.1289 94.4949 88.6796 94.0987 89.0831 93.5711C89.4866 93.0435 89.7248 92.4083 89.7678 91.7455C89.8108 91.0827 89.6565 90.422 89.3245 89.8467C88.9925 89.2715 88.4975 88.8074 87.9021 88.5131C87.3067 88.2187 86.6375 88.1073 85.9788 88.1928ZM46.8387 98.6229C44.715 99.2317 45.2151 101.776 45.2224 104.103C45.1786 104.565 45.2809 105.03 45.5149 105.432C45.7489 105.834 46.1029 106.152 46.527 106.342C47.5807 106.598 48.6751 106.64 49.7452 106.465C51.9632 105.864 51.4051 103.363 51.4051 101.029C51.4554 100.559 51.3574 100.084 51.1247 99.6724C50.8921 99.2604 50.5365 98.9315 50.1076 98.7316C49.0274 98.4698 47.9049 98.4328 46.8097 98.6229M83.0506 109.452H89.6319V95.4989H83.0506V109.452ZM60.8422 109.597C61.6467 109.684 68.0106 109.597 69.3515 109.597C71.5695 109.597 75.7662 109.829 77.6217 109.285C80.4195 108.466 80.8471 106.494 80.8399 104.016C80.8399 101.181 80.9124 98.2605 80.8399 95.4409C80.4702 95.3467 74.8964 95.3467 74.4542 95.4409C74.36 98.3982 74.4977 101.435 74.4542 104.407C74.4542 105.857 73.3308 106.349 72.0333 106.516C70.6263 106.613 69.2127 106.523 67.8294 106.248C67.7352 105.675 67.7787 97.5502 67.8294 96.028C67.8294 95.383 67.8294 95.5207 67.7352 95.4409C67.5032 95.296 61.6685 95.3467 60.9219 95.3975L60.8422 109.597ZM41.7577 95.5424C41.2447 95.6303 40.7556 95.8238 40.3213 96.1108C39.8871 96.3978 39.5173 96.772 39.2354 97.2095C38.5106 98.304 38.5903 99.2897 38.5903 100.834V104.98C38.5903 106.473 38.7498 107.415 39.5326 108.277C39.8772 108.679 40.2996 109.005 40.7743 109.238C41.249 109.471 41.766 109.606 42.2941 109.633C44.2294 109.727 48.5348 109.633 50.7455 109.633C52.1202 109.704 53.4983 109.68 54.8697 109.56C55.3743 109.457 55.8537 109.256 56.2803 108.967C56.707 108.679 57.0724 108.309 57.3558 107.879C58.0806 106.813 58.0226 105.835 58.0226 104.334V100.188C58.0226 98.6881 57.9212 97.8256 57.1239 96.8833C55.5293 94.9843 53.1229 95.4699 50.1294 95.4699C48.8175 95.4699 42.5116 95.3757 41.7433 95.5424M2.5669 109.589H8.94529C9.00327 106.567 8.87281 103.537 8.94529 100.558C9.01052 97.7531 13.3377 98.4272 15.5919 98.7171V109.589H22.5066V98.7171C30.2042 97.7386 29.1604 99.239 29.1604 105.088C29.1604 106.386 29.0445 108.35 29.1604 109.568H35.5171C35.6113 108.93 35.5171 103.146 35.5171 101.993C35.5171 99.2172 35.5171 97.4342 33.5963 96.2455C31.7915 95.1293 29.1749 95.3685 26.7685 95.3685H11.4966C8.33644 95.3685 4.08901 94.8321 2.85683 98.2677C2.54669 99.4442 2.4461 100.666 2.55965 101.877C2.55965 104.429 2.50167 107.045 2.55965 109.589" fill="#1D1D1B"/><path fill-rule="evenodd" clip-rule="evenodd" d="M186.119 107.328V107.618H190.106C191.403 107.618 192.476 107.422 192.476 106.023V99.8767C192.476 98.5213 191.701 97.869 190.338 97.869H186.098L186.119 107.328ZM179.509 113.851V114.199H185.931V109.343H194.266C197.506 109.343 199.268 109.778 199.268 106.023V98.572C199.268 95.7743 197.869 95.4916 195.803 95.4916H179.495L179.509 113.851Z" fill="#1D1D1B"/><path fill-rule="evenodd" clip-rule="evenodd" d="M143.834 98.5576C141.311 98.9055 141.898 101.689 141.898 103.798C141.898 105.045 142.166 105.762 142.978 106.226C143.457 106.502 147.487 107.4 148.052 104.777C148.146 103.6 148.163 102.418 148.103 101.239C148.103 99.9855 147.827 99.2824 147.015 98.8113C146.363 98.4271 144.689 98.4199 143.855 98.5359M138.434 95.5206C137.926 95.6159 137.443 95.8135 137.015 96.1014C136.586 96.3892 136.221 96.7613 135.94 97.1949C135.215 98.2894 135.302 99.3187 135.302 100.776V104.929C135.302 106.567 135.404 107.161 136.23 108.219C137.68 110.017 140.463 109.582 143.21 109.582C144.587 109.582 150.69 109.669 151.553 109.51C152.059 109.415 152.541 109.221 152.972 108.939C153.403 108.656 153.773 108.291 154.061 107.864C154.786 106.813 154.72 105.741 154.72 104.313V100.188C154.72 98.5576 154.662 97.9415 153.822 96.8688C152.372 94.9987 149.661 95.4626 146.82 95.4626C145.443 95.4626 139.289 95.3684 138.434 95.5424" fill="#1D1D1B"/><path fill-rule="evenodd" clip-rule="evenodd" d="M162.621 109.604H171.616C174.646 109.604 176.893 108.219 177.052 105.255C177.168 103.08 177.052 98.0067 177.052 95.4191C175.414 95.3466 172.435 95.4191 170.659 95.4191V104.487C170.659 106.168 168.796 106.574 167.151 106.574C165.506 106.574 163.57 106.197 163.57 104.487V95.4118H157.178C157.178 98.0719 157.069 102.885 157.178 105.248C157.315 108.198 159.562 109.596 162.614 109.596" fill="#1D1D1B"/><path fill-rule="evenodd" clip-rule="evenodd" d="M114.37 109.626L121.263 109.539C121.401 108.089 121.263 103.015 121.263 100.957C121.263 99.9638 121.118 99.1665 121.734 98.4997C122.727 97.4269 125.075 97.7749 126.721 97.7749C127.583 97.7749 131.983 97.8836 132.44 97.7096V95.4844C131.795 95.383 125.612 95.4844 124.416 95.4844C122.691 95.4844 117.958 95.2815 116.66 95.7599C114.066 96.7094 114.334 99.3839 114.334 101.558C114.334 104.175 114.21 107.11 114.334 109.691L114.37 109.626Z" fill="#1D1D1B"/></svg>