<svg width="200" height="200" viewBox="0 0 200 200" fill="none" xmlns="http://www.w3.org/2000/svg"><path d="M109.901 92.8312H100.641V110.698H109.901V92.8312Z" fill="#1D1D1B"/><path d="M130.201 92.8312H120.942V110.698H130.201V92.8312Z" fill="#1D1D1B"/><path d="M120.942 91.935H130.201C130.151 88.293 129.439 84.6905 128.099 81.3035L119.526 84.8547C120.411 87.1124 120.887 89.5101 120.931 91.935H120.942Z" fill="#1D1D1B"/><path d="M100.641 81.8013C101.733 81.8452 102.811 82.0579 103.838 82.4319L107.378 73.8691C105.227 73.038 102.947 72.5851 100.641 72.5305V81.8013Z" fill="#1D1D1B"/><path d="M120.045 92.8312H110.797H110.786V110.698H120.045V92.8312Z" fill="#1D1D1B"/><path d="M110.797 91.9351H120.012C119.962 89.6285 119.509 87.3483 118.674 85.1978L110.111 88.7379C110.489 89.7641 110.705 90.8426 110.753 91.9351H110.797Z" fill="#1D1D1B"/><path d="M114.536 78.6705L107.998 85.2198C108.733 86.0223 109.341 86.9326 109.801 87.9192L118.364 84.379C117.426 82.2699 116.131 80.3387 114.536 78.6705Z" fill="#1D1D1B"/><path d="M100.641 90.1428L103.495 83.2617C102.579 82.9232 101.617 82.7292 100.641 82.6864V90.1428Z" fill="#1D1D1B"/><path d="M102.09 91.1495L108.949 88.2621C108.535 87.3816 107.991 86.5686 107.334 85.8503L102.09 91.1495Z" fill="#1D1D1B"/><path d="M127.756 80.4848C126.311 77.1444 124.268 74.0963 121.727 71.4906L115.167 78.0399C116.847 79.7874 118.206 81.8171 119.183 84.036L127.756 80.4848Z" fill="#1D1D1B"/><path d="M108.54 73.4487C110.757 74.4291 112.786 75.788 114.536 77.4645L121.119 70.86C118.509 68.3155 115.458 66.2685 112.113 64.8196L108.54 73.4487Z" fill="#1D1D1B"/><path d="M109.325 89.0808L102.433 91.9351H109.89C109.845 90.9608 109.655 89.9987 109.325 89.0808Z" fill="#1D1D1B"/><path d="M108.208 74.212L104.657 82.7748C105.648 83.237 106.562 83.8489 107.367 84.5891L113.906 78.0398C112.241 76.4448 110.314 75.1498 108.208 74.212Z" fill="#1D1D1B"/><path d="M101.471 90.4856L106.737 85.2196C106.015 84.5596 105.198 84.0114 104.314 83.5934L101.471 90.4856Z" fill="#1D1D1B"/><path d="M100.641 71.6456C103.065 71.6942 105.462 72.1698 107.721 73.0506L111.273 64.4878C107.886 63.1472 104.283 62.4349 100.641 62.3859V71.6456Z" fill="#1D1D1B"/><path d="M99.756 92.8312H90.4963V110.698H99.756V92.8312Z" fill="#1D1D1B"/><path d="M92.3549 85.2198L85.8167 78.6705C84.218 80.3358 82.9226 82.2677 81.989 84.379L90.5406 87.9192C91.0043 86.9322 91.6161 86.0219 92.3549 85.2198Z" fill="#1D1D1B"/><path d="M89.6113 91.9351C89.6553 90.8432 89.868 89.7647 90.2419 88.7379L81.6902 85.1978C80.8547 87.3483 80.4017 89.6285 80.3516 91.9351H89.6113Z" fill="#1D1D1B"/><path d="M99.756 82.6864C98.7806 82.7292 97.8177 82.9232 96.9018 83.2617L99.756 90.1428V82.6864Z" fill="#1D1D1B"/><path d="M99.756 62.3859C96.1138 62.4336 92.5109 63.146 89.1245 64.4878L92.6757 73.0506C94.9346 72.1687 97.3316 71.693 99.756 71.6456V62.3859Z" fill="#1D1D1B"/><path d="M99.756 72.5305C97.4497 72.5831 95.17 73.036 93.0187 73.8691L96.5588 82.4319C97.5857 82.0579 98.6642 81.8452 99.756 81.8013V72.5305Z" fill="#1D1D1B"/><path d="M89.6002 92.8312H80.3405V110.698H89.6002V92.8312Z" fill="#1D1D1B"/><path d="M90.5074 91.9351H97.9639L91.0716 89.0808C90.742 89.9987 90.5518 90.9608 90.5074 91.9351Z" fill="#1D1D1B"/><path d="M96.0721 83.5934C95.1929 84.0145 94.3803 84.5624 93.6603 85.2196L98.9263 90.4856L96.0721 83.5934Z" fill="#1D1D1B"/><path d="M79.4555 91.935C79.5079 89.51 79.9873 87.1133 80.8716 84.8547L72.2978 81.3035C70.9581 84.6905 70.2458 88.293 70.1958 91.935H79.4555Z" fill="#1D1D1B"/><path d="M86.4805 78.0398L93.0298 84.5891C93.833 83.8465 94.7475 83.2343 95.7402 82.7748L92.189 74.212C90.0799 75.1496 88.1486 76.4446 86.4805 78.0398Z" fill="#1D1D1B"/><path d="M93.0297 85.8503C92.3733 86.5686 91.8288 87.3816 91.4146 88.2621L98.2957 91.1495L93.0297 85.8503Z" fill="#1D1D1B"/><path d="M79.4555 92.8312H70.1958V110.698H79.4555V92.8312Z" fill="#1D1D1B"/><path d="M72.6407 80.4848L81.2145 84.036C82.1909 81.8171 83.5502 79.7874 85.2304 78.0399L78.67 71.4906C76.1291 74.0963 74.0858 77.1444 72.6407 80.4848Z" fill="#1D1D1B"/><path d="M79.3006 70.8602L85.8499 77.4095C87.6085 75.7575 89.6364 74.418 91.846 73.4489L88.3059 64.8751C84.966 66.3074 81.9145 68.3355 79.3006 70.8602Z" fill="#1D1D1B"/><path d="M33.6438 133.355C33.3632 133.995 32.9905 134.592 32.5375 135.125C32.088 135.629 31.5427 136.039 30.9334 136.331C30.2667 136.633 29.5413 136.784 28.8093 136.773C27.895 136.802 26.9932 136.555 26.2206 136.065C25.5118 135.59 24.9305 134.948 24.5279 134.195C24.0803 133.38 23.763 132.499 23.5876 131.585C23.2041 129.679 23.2041 127.716 23.5876 125.81C23.7657 124.909 24.079 124.04 24.5169 123.232C24.9256 122.484 25.5056 121.843 26.2095 121.362C26.9799 120.878 27.8776 120.635 28.7872 120.665C29.7767 120.695 30.743 120.973 31.5972 121.473C32.4339 121.957 33.158 122.613 33.7213 123.398V123.487H34.8276L34.5289 123.232V119.913H33.8098V120.599C33.816 120.742 33.7794 120.884 33.7045 121.006C33.6295 121.129 33.5198 121.226 33.3894 121.285C33.2645 121.35 33.123 121.376 32.9831 121.361C32.8432 121.345 32.7112 121.288 32.6039 121.197C32.4448 121.064 32.2745 120.946 32.095 120.843C31.1001 120.222 29.9484 119.9 28.7761 119.913C27.779 119.913 26.7964 120.152 25.9108 120.61C25.0067 121.082 24.2086 121.733 23.5655 122.524C22.8835 123.353 22.3552 124.297 22.0056 125.312C21.2384 127.511 21.2384 129.905 22.0056 132.105C22.3576 133.118 22.8856 134.062 23.5655 134.892C24.229 135.687 25.0503 136.335 25.9772 136.795C26.867 137.246 27.8505 137.481 28.848 137.481C29.8456 137.481 30.8291 137.246 31.7189 136.795C32.6229 136.324 33.4211 135.673 34.0642 134.881C34.4129 134.468 34.7169 134.02 34.9714 133.543L35.1373 133.233H33.7213L33.6438 133.355ZM59.4426 122.513C58.801 121.725 58.0071 121.074 57.1083 120.599C56.2187 120.141 55.2326 119.902 54.232 119.902C53.2314 119.902 52.2452 120.141 51.3556 120.599C50.4569 121.074 49.663 121.725 49.0213 122.513C48.3394 123.342 47.8111 124.286 47.4614 125.301C46.6942 127.5 46.6942 129.894 47.4614 132.094C47.8135 133.107 48.3415 134.051 49.0213 134.881C49.663 135.67 50.4569 136.321 51.3556 136.795C52.2473 137.246 53.2327 137.481 54.232 137.481C55.2313 137.481 56.2166 137.246 57.1083 136.795C58.0071 136.321 58.801 135.67 59.4426 134.881C60.1269 134.048 60.6587 133.101 61.0136 132.082C61.7654 129.881 61.7654 127.492 61.0136 125.29C60.6589 124.278 60.127 123.338 59.4426 122.513ZM59.4426 131.585C59.2621 132.497 58.9451 133.377 58.5023 134.195C58.0997 134.948 57.5184 135.59 56.8096 136.065C56.0235 136.528 55.1278 136.772 54.2154 136.772C53.303 136.772 52.4072 136.528 51.6211 136.065C50.9123 135.59 50.3311 134.948 49.9285 134.195C49.4809 133.38 49.1636 132.499 48.9881 131.585C48.5899 129.68 48.5899 127.714 48.9881 125.81C49.1767 124.907 49.5012 124.038 49.9506 123.232C50.3593 122.484 50.9393 121.843 51.6432 121.362C52.4316 120.906 53.3265 120.666 54.2375 120.666C55.1485 120.666 56.0434 120.906 56.8318 121.362C57.5357 121.843 58.1157 122.484 58.5244 123.232C58.9655 124.055 59.2824 124.938 59.4648 125.854C59.8483 127.76 59.8483 129.723 59.4648 131.629L59.4426 131.585ZM83.6263 130.069C84.1111 129.514 84.4864 128.872 84.7325 128.177C85.2931 126.691 85.2931 125.051 84.7325 123.564C84.4864 122.869 84.1111 122.227 83.6263 121.672C82.7817 120.691 81.5946 120.07 80.3074 119.935H73.7802V120.654H74.8865V136.762H73.7802V137.47H77.7961V136.751H76.6898V131.828H78.9024L81.6681 136.773H80.8716V137.481H84.8985V136.773H83.7922L80.949 131.706C81.9962 131.452 82.9391 130.88 83.6484 130.069H83.6263ZM83.1727 127.856C83.0719 128.448 82.8777 129.019 82.5974 129.549C82.3292 130.021 81.9493 130.42 81.4911 130.711C80.9809 131.016 80.3927 131.166 79.7985 131.142H76.6677V120.621H79.9865C80.7379 120.621 81.4615 120.905 82.0111 121.418C82.5233 121.955 82.8823 122.62 83.051 123.343C83.2522 124.165 83.3525 125.008 83.3497 125.854C83.3556 126.517 83.3037 127.18 83.1948 127.834L83.1727 127.856ZM151.874 132.647C151.659 131.604 151.157 130.642 150.424 129.87C149.686 129.106 148.891 128.4 148.046 127.757C147.387 127.253 146.755 126.714 146.154 126.142C145.629 125.651 145.208 125.061 144.915 124.405C144.648 123.747 144.609 123.019 144.804 122.336C144.899 121.949 145.111 121.601 145.413 121.34C145.77 121.046 146.204 120.858 146.663 120.798H146.862C147.822 120.698 148.786 120.941 149.584 121.484C150.216 121.898 150.688 122.514 150.922 123.232V123.376H151.608V119.825H150.989V120.787C150.99 120.866 150.969 120.944 150.929 121.012C150.888 121.08 150.829 121.135 150.759 121.17C150.688 121.206 150.609 121.221 150.53 121.214C150.452 121.207 150.377 121.178 150.314 121.13L150.059 120.942C149.116 120.3 147.975 120.013 146.84 120.134H146.597C145.584 120.284 144.658 120.79 143.986 121.562C143.555 122.031 143.261 122.608 143.134 123.232C143.043 123.818 143.092 124.417 143.278 124.98C143.46 125.547 143.745 126.076 144.118 126.54C144.576 127.097 145.076 127.618 145.612 128.1C146.143 128.564 146.718 129.007 147.172 129.416C148.003 130.027 148.767 130.724 149.451 131.496C150.047 132.2 150.366 133.097 150.347 134.018C150.359 134.674 150.149 135.313 149.75 135.833C149.265 136.379 148.595 136.726 147.869 136.806H147.637C146.508 136.926 145.374 136.648 144.428 136.021C143.815 135.608 143.322 135.039 143.001 134.372L142.935 134.251H142.481H142.271V137.614H143.012V136.928C143.009 136.839 143.031 136.752 143.076 136.675C143.121 136.599 143.187 136.537 143.267 136.497C143.341 136.449 143.427 136.424 143.516 136.424C143.604 136.424 143.69 136.449 143.764 136.497C143.84 136.559 143.922 136.615 144.008 136.663C144.941 137.295 146.045 137.627 147.172 137.614H147.703C147.783 137.601 147.866 137.601 147.946 137.614C149.133 137.432 150.214 136.827 150.989 135.91C151.35 135.489 151.621 134.997 151.782 134.466C151.944 133.934 151.994 133.375 151.929 132.824C151.929 132.756 151.917 132.689 151.896 132.625L151.874 132.647ZM177.783 136.784L172.008 119.913H170.902H170.692V120.013L164.895 136.751H163.689V137.459H166.742V136.74H165.636L166.93 133.034H174.674L175.958 136.751H174.984V137.459H179V136.751L177.783 136.784ZM167.118 132.359L170.725 121.927L174.331 132.359H167.118ZM97.4992 119.913V120.643H98.6055V136.751H97.4992V137.481H101.515V136.773H100.409V120.632H101.515V119.913H98.871H97.4992ZM127.624 120.632H128.608V119.913H126.705H126.362L126.307 120.168L121.882 134.937L117.368 119.913H115.023V120.632H116.074L116.019 121.628L115.167 136.773H113.983V137.481H115.089H115.819H117.003V136.751H115.897L116.638 123.675L120.765 137.47H121.871L121.937 137.227L126.031 123.597L126.849 136.751H125.743V137.459H129.77V136.751H128.597L127.624 120.632Z" fill="#1D1D1B"/></svg>