<svg xmlns="http://www.w3.org/2000/svg" id="Capa_1" data-name="Capa 1" viewBox="0 0 276.18 68"><defs><style>.cls-1{fill:none;}.cls-2{fill:#1d1d1b;}</style></defs><rect class="cls-1" width="276.18" height="68"></rect><path class="cls-2" d="M56.33,33.13V33c6-1,9.38-3.87,9.38-9.33,0-7-5.8-9.32-15.81-9.32h-17V22c0,.55,3.69,1.5,3.69,2.35v19.9c0,.86-3.69,1.81-3.69,2.36v7.6H49.62C60.31,54.18,67.7,51.85,67.7,43,67.7,37.06,63.5,34,56.33,33.13ZM47.69,15.45h1.82c4,0,4.94,2.1,4.94,7.56v2.67c0,4.67-1.19,7.28-5.29,7.28H47.69ZM56,44.57c0,5.23-1.25,8.53-5.63,8.53H47.69V34H49c5.52,0,7,2.85,7,7.51ZM166.3,50.74V23.35c-3.86-.24-8-1-10.75-3.3v9.27c-1-1.76-3.07-2.78-6.6-2.78-7.28,0-11.26,4.55-11.26,14.16s4,14,10.29,14c4.44,0,6.66-1.71,7.85-4.55l.63,4h12.62V52.27C169.08,51.9,167.15,51.32,166.3,50.74Zm-10.58-4.3c0,4.27-2.28,5.86-3.93,5.86-2.44,0-3.12-1.88-3.12-9.9V39.45c0-7.91.57-11.26,3.35-11.26,2.5,0,3.7,2.78,3.7,5.85Zm50.79,6c-2,0-2.5-1.82-2.5-5.17V28.13h7.39v-1H204V19.25c-1.77,1.59-6.76,3.42-10.58,3.77v4.09H190.3v1h3.13V46c0,7.06,4,8.71,9.67,8.71,6.94,0,8.81-4.1,9.32-8.53l-1-.12C211,50,209.24,52.47,206.51,52.47Zm22.67-25.93c-9.16,0-14.73,4.89-14.73,14.22,0,8.87,4.83,14,14.38,14,10.13,0,14.45-5.18,14.45-14.51S238.73,26.54,229.18,26.54ZM232.36,43c0,7.4-.17,10.75-3.41,10.75-3.47,0-3.58-4.26-3.58-10.86V38.42c0-6.42.17-10.86,3.63-10.86,3.19,0,3.36,4.44,3.36,10.58Zm-47.09,7.27V27.11H171.33v1.82c0,.44,2.95,1.18,3.36,1.87V50.36c-.3.7-3.16,1.46-3.16,1.91V54h0v.14h16.89V52.27C188.45,51.79,185.27,51,185.27,50.24ZM85.65,26.54C77.74,26.54,71,30.86,71,40.7c0,8.25,4.55,14,14.68,14,8.07,0,11-3.76,12.34-8.65l-1-.17c-1.25,4.38-4.09,7-8.3,7C83.2,53,82,48.43,82,41.72V39.5h16C98.39,31,94.58,26.54,85.65,26.54Zm2.27,11.83H82.07V35.58c0-6,1.08-8,3.07-8,2.33,0,2.78,2,2.78,8ZM132.2,50.24V36c0-6.89-3.53-9.5-8.81-9.5-5.63,0-7.51,2.95-8.48,5.8V27.11h-13.7v1.82c0,.44,2.71,1.17,3.12,1.86V50.41c-.41.69-3.12,1.42-3.12,1.86v1.91h13.7V37.46c0-4.61,2.22-8.19,4.61-8.19,1.42,0,2.1.57,2.1,5.4V54.18h13.77V52.27C135.39,51.79,132.2,51,132.2,50.24Z"></path><path class="cls-2" d="M179.41,18.67c18.1,0,24.61-4.42,24.61-9.34C204,5.12,199.44,0,179.89,0c-17.37,0-24.37,4.72-24.37,9.43C155.52,15.56,164.45,18.67,179.41,18.67ZM200,11.32h0a2.78,2.78,0,0,1-.82,2.23,11,11,0,0,1-6.72,3.51c2.22-.69,3.55-2.69,2.7-2.45-3.25.92-8.31,1.58-15.67,1.58-12.47,0-19.91-2.21-19.91-4.83,0-2.28,5.83-5.87,20.31-5.87C196.16,5.49,200,9.51,200,11.32Z"></path><path class="cls-2" d="M36.47,63.31V65h2.24v.73H36.47V68h-.81V62.57H39.1v.74Z"></path><path class="cls-2" d="M50.74,68l-.37-1.08H48.24L47.87,68H47l2-5.38h.66l2,5.38Zm-1.42-4.16-.84,2.39h1.66Zm.15-1.74h-.58l.57-1.22h.85Z"></path><path class="cls-2" d="M62.11,68H59.93V62.57H62a1.45,1.45,0,0,1,1.62,1.48,1.23,1.23,0,0,1-.72,1.14,1.27,1.27,0,0,1,.8,1.25A1.45,1.45,0,0,1,62.11,68ZM62,63.31H60.75v1.54H62c.52,0,.87-.27.87-.77S62.48,63.31,62,63.31ZM62,65.58H60.75v1.64H62a.82.82,0,1,0,0-1.64Z"></path><path class="cls-2" d="M75.48,68l-1.14-2.26h-1V68h-.81V62.57h2.08a1.54,1.54,0,0,1,1.67,1.57,1.39,1.39,0,0,1-1.07,1.43L76.43,68Zm-1-4.64H73.32V65h1.21a.84.84,0,1,0,0-1.68Z"></path><path class="cls-2" d="M85,68V62.57h.82V68Z"></path><path class="cls-2" d="M96.55,68a2,2,0,0,1-1.42-.57c-.53-.53-.52-1.13-.52-2.17s0-1.63.52-2.16a2,2,0,0,1,1.42-.57,1.85,1.85,0,0,1,1.92,1.65h-.84a1.11,1.11,0,0,0-1.88-.59c-.26.28-.32.59-.32,1.67s.06,1.39.32,1.68a1.07,1.07,0,0,0,.8.33,1.09,1.09,0,0,0,1.09-.93h.83A1.87,1.87,0,0,1,96.55,68Z"></path><path class="cls-2" d="M110.13,68l-.37-1.08h-2.12L107.27,68h-.87l2-5.38H109L111,68Zm-1.41-4.16-.84,2.39h1.66Z"></path><path class="cls-2" d="M132,67.45a1.91,1.91,0,0,1-1.39.5h-1.89V62.57h1.89a1.92,1.92,0,0,1,1.39.51,2.79,2.79,0,0,1,.54,2.15A3,3,0,0,1,132,67.45Zm-.56-3.78a1.17,1.17,0,0,0-.92-.36h-1v3.91h1a1.17,1.17,0,0,0,.92-.36,2.6,2.6,0,0,0,.29-1.63C131.72,64.48,131.71,64,131.43,63.67Z"></path><path class="cls-2" d="M141.31,68V62.57h3.43v.74h-2.62v1.57h2.24v.72h-2.24v1.62h2.62V68Z"></path><path class="cls-2" d="M166.73,68V64.36L165.49,67h-.6l-1.27-2.62V68h-.82V62.57h.82l1.57,3.35,1.54-3.35h.82V68Z"></path><path class="cls-2" d="M178.36,68a1.83,1.83,0,0,1-1.93-1.86V62.57h.82V66.1a1.06,1.06,0,0,0,1.11,1.17,1.07,1.07,0,0,0,1.12-1.17V62.57h.81v3.57A1.83,1.83,0,0,1,178.36,68Z"></path><path class="cls-2" d="M189.18,68V62.57h3.44v.74H190v1.57h2.23v.72H190v1.62h2.62V68Z"></path><path class="cls-2" d="M203.48,68H201.3V62.57h2.09A1.45,1.45,0,0,1,205,64.05a1.22,1.22,0,0,1-.73,1.14,1.26,1.26,0,0,1,.81,1.25A1.45,1.45,0,0,1,203.48,68Zm-.15-4.64h-1.21v1.54h1.21c.52,0,.87-.27.87-.77S203.85,63.31,203.33,63.31Zm.07,2.27h-1.28v1.64h1.28a.82.82,0,1,0,0-1.64Z"></path><path class="cls-2" d="M213.88,68V62.57h.81v4.65h2.6V68Z"></path><path class="cls-2" d="M225.78,68V62.57h3.44v.74H226.6v1.57h2.23v.72H226.6v1.62h2.62V68Z"></path><path class="cls-2" d="M239.33,68a2.46,2.46,0,0,1-1.91-.71l.55-.54a1.74,1.74,0,0,0,1.37.52c.71,0,1.12-.31,1.12-.83a.72.72,0,0,0-.22-.56.88.88,0,0,0-.59-.22l-.63-.09a1.82,1.82,0,0,1-1-.44,1.28,1.28,0,0,1-.39-1,1.59,1.59,0,0,1,1.79-1.58,2.26,2.26,0,0,1,1.68.61l-.53.51a1.59,1.59,0,0,0-1.17-.41c-.63,0-1,.36-1,.84a.66.66,0,0,0,.2.5,1.17,1.17,0,0,0,.61.24l.61.1a1.73,1.73,0,0,1,1,.4,1.4,1.4,0,0,1,.43,1.1C241.26,67.41,240.46,68,239.33,68Z"></path></svg>