<svg width="200" height="200" viewBox="0 0 200 200" fill="none" xmlns="http://www.w3.org/2000/svg">
<path fill-rule="evenodd" clip-rule="evenodd" d="M148.761 71.4012V101.64H179V71.4012H148.761ZM168.029 93.2344H159.732V79.8159H161.64V91.5154H168.029V93.2344Z" fill="#1D1D1B"/>
<path fill-rule="evenodd" clip-rule="evenodd" d="M129.997 87.5557H134.173L132.058 82.7229L129.997 87.5557Z" fill="#1D1D1B"/>
<path fill-rule="evenodd" clip-rule="evenodd" d="M117.001 71.4012V101.64H147.249V71.4012H117.001ZM136.693 93.2344L134.965 89.2835H129.241L127.54 93.2344H125.569L131.383 79.8159H132.787L138.682 93.2344H136.693Z" fill="#1D1D1B"/>
<path fill-rule="evenodd" clip-rule="evenodd" d="M85.2507 71.4012V101.64H115.49V71.4012H85.2507ZM103.25 93.2344L100.946 89.7155C100.504 88.9496 99.9388 88.2623 99.2722 87.6816C98.8269 87.3797 98.298 87.2254 97.7602 87.2406H97.1843V93.2344H95.2583V79.8159H99.1912C100.317 79.7415 101.43 80.0807 102.323 80.7699C102.695 81.1104 102.988 81.529 103.179 81.9958C103.37 82.4626 103.456 82.9659 103.43 83.4698C103.468 84.2276 103.256 84.9769 102.827 85.6027C102.334 86.2004 101.662 86.6233 100.91 86.8086C101.142 86.9407 101.354 87.1043 101.54 87.2946C101.83 87.6052 102.089 87.9427 102.314 88.3026L105.572 93.2164L103.25 93.2344Z" fill="#1D1D1B"/>
<path fill-rule="evenodd" clip-rule="evenodd" d="M101.405 83.5238C101.43 83.2282 101.386 82.9307 101.275 82.6555C101.164 82.3804 100.989 82.1352 100.766 81.9399C100.16 81.5581 99.4459 81.3843 98.7321 81.4449H97.1392V85.6297H98.7321C99.4403 85.6817 100.146 85.4982 100.739 85.1078C100.968 84.9156 101.148 84.6717 101.263 84.3963C101.379 84.1208 101.428 83.8218 101.405 83.5238Z" fill="#1D1D1B"/>
<path fill-rule="evenodd" clip-rule="evenodd" d="M53.491 71.4012V101.64H83.7388V71.4012H53.491ZM75.2341 89.2205C74.8759 90.0549 74.3524 90.808 73.6952 91.4344C73.0202 92.0849 72.2256 92.5983 71.3553 92.9464C69.5873 93.6366 67.6244 93.6366 65.8565 92.9464C64.999 92.5981 64.2168 92.0878 63.5526 91.4434C62.8804 90.8031 62.3473 90.031 61.9866 89.1755C61.629 88.3207 61.4484 87.4022 61.4556 86.4756C61.4557 85.5779 61.6395 84.6898 61.9956 83.8657C62.3577 83.0238 62.8874 82.2644 63.5526 81.6338C64.2203 80.983 65.0092 80.4694 65.8745 80.1219C67.6394 79.4322 69.5993 79.4322 71.3643 80.1219C72.228 80.463 73.0145 80.9741 73.6772 81.6248C74.3451 82.2674 74.8802 83.0349 75.2521 83.8837C75.6015 84.7408 75.7788 85.6582 75.7741 86.5836C75.7757 87.4902 75.5919 88.3876 75.2341 89.2205Z" fill="#1D1D1B"/>
<path fill-rule="evenodd" clip-rule="evenodd" d="M72.2192 82.9117C71.7605 82.4274 71.2057 82.0442 70.5903 81.7868C69.3425 81.2713 67.9412 81.2713 66.6934 81.7868C66.0666 82.0523 65.4955 82.434 65.0105 82.9117C64.5336 83.3764 64.1569 83.9339 63.9035 84.5497C63.6514 85.1792 63.5231 85.8515 63.5256 86.5296C63.5113 87.2033 63.6306 87.8732 63.8765 88.5005C64.1364 89.1181 64.5122 89.6802 64.9835 90.1564C65.4516 90.6334 66.012 91.01 66.6304 91.2634C67.2552 91.5219 67.9252 91.6535 68.6014 91.6504C69.2797 91.6547 69.9523 91.5263 70.5813 91.2724C71.2029 91.0159 71.7661 90.6363 72.2372 90.1564C72.7086 89.6802 73.0843 89.1181 73.3442 88.5005C73.8597 87.2527 73.8597 85.8515 73.3442 84.6037C73.0834 83.9716 72.7012 83.3967 72.2192 82.9117Z" fill="#1D1D1B"/>
<path fill-rule="evenodd" clip-rule="evenodd" d="M21.7402 71.4012V101.64H51.979V71.4012H21.7402ZM42.9434 92.2084C42.1756 92.5976 41.3666 92.8995 40.5315 93.1084C39.7409 93.3141 38.9275 93.42 38.1106 93.4234C37.3655 93.4263 36.6235 93.3263 35.9057 93.1264C35.21 92.9196 34.5466 92.6167 33.9347 92.2264C32.9605 91.6036 32.1613 90.7425 31.6128 89.7245C31.0549 88.7137 30.7666 87.5762 30.7759 86.4216C30.7755 85.5172 30.9624 84.6224 31.3248 83.7938C31.6817 82.9541 32.2123 82.1996 32.8818 81.5798C33.5692 80.9124 34.3873 80.3945 35.2847 80.0589C36.2323 79.7104 37.236 79.5396 38.2456 79.5549C39.0032 79.5523 39.7585 79.6399 40.4955 79.8159C41.297 80.0094 42.0776 80.2806 42.8264 80.6259V82.7138C42.0614 82.293 41.2565 81.9493 40.4235 81.6878C39.7164 81.4779 38.9832 81.3688 38.2456 81.3638C37.5334 81.3383 36.8232 81.454 36.1559 81.7042C35.4886 81.9544 34.8775 82.3342 34.3577 82.8218C33.847 83.2921 33.443 83.8664 33.1729 84.506C32.9027 85.1456 32.7728 85.8356 32.7918 86.5296C32.7766 87.2089 32.9032 87.8839 33.1635 88.5115C33.4238 89.139 33.8122 89.7054 34.3037 90.1745C34.8081 90.6577 35.4038 91.0355 36.0559 91.2858C36.708 91.5361 37.4034 91.654 38.1016 91.6324C38.921 91.6227 39.733 91.4767 40.5045 91.2005C41.3666 90.9105 42.1866 90.508 42.9434 90.0035V92.2084Z" fill="#1D1D1B"/>
<path d="M45.6434 116.678H47.7223L52.5191 128.918H50.6652L49.4862 125.768H43.6725L42.4935 128.918H40.7566L45.6434 116.678ZM46.6514 118.199L44.2215 124.418H48.9913L46.6514 118.199Z" fill="#1D1D1B"/>
<path d="M55.2909 127.487V132.599H53.6169V120.062H55.0929V121.799C55.401 121.212 55.857 120.716 56.4158 120.359C56.9581 120.03 57.5814 119.859 58.2158 119.864C58.7196 119.851 59.2197 119.955 59.676 120.169C60.1323 120.383 60.5322 120.701 60.8437 121.097C61.5523 122.02 61.9096 123.166 61.8516 124.328C61.9182 125.562 61.5592 126.782 60.8347 127.784C60.5196 128.198 60.1102 128.531 59.6406 128.755C59.171 128.978 58.6548 129.087 58.1348 129.071C57.5527 129.079 56.9777 128.943 56.4608 128.675C55.9749 128.386 55.5719 127.977 55.2909 127.487ZM60.1777 124.418C60.2219 123.58 60.0016 122.749 59.5477 122.042C59.3566 121.759 59.0974 121.528 58.794 121.371C58.4905 121.214 58.1525 121.135 57.8108 121.142C57.4607 121.138 57.1148 121.217 56.8016 121.374C56.4885 121.53 56.2174 121.76 56.0109 122.042C55.5017 122.733 55.2473 123.579 55.2909 124.436C55.2404 125.3 55.4743 126.157 55.9568 126.875C56.163 127.159 56.4336 127.391 56.7464 127.551C57.0593 127.71 57.4055 127.793 57.7568 127.793C58.108 127.793 58.4543 127.71 58.7671 127.551C59.08 127.391 59.3506 127.159 59.5567 126.875C60.0098 126.14 60.2148 125.279 60.1417 124.418H60.1777Z" fill="#1D1D1B"/>
<path d="M68.6735 119.999L68.6285 121.565C68.5094 121.523 68.3854 121.496 68.2596 121.484H67.9356C67.6038 121.468 67.273 121.531 66.9708 121.669C66.6686 121.807 66.4038 122.015 66.1986 122.276C65.7607 122.932 65.5461 123.712 65.5867 124.499V128.945H63.9487V120.062H65.4337V121.862C65.6298 121.286 65.9856 120.777 66.4596 120.395C66.8956 120.054 67.4358 119.873 67.9896 119.882H68.3046L68.6735 119.999Z" fill="#1D1D1B"/>
<path d="M77.3131 124.202V124.877H71.0133C71.0234 125.699 71.345 126.487 71.9133 127.082C72.208 127.354 72.5541 127.564 72.9312 127.7C73.3083 127.836 73.7089 127.895 74.1092 127.874C74.5195 127.873 74.928 127.819 75.3242 127.712C75.7557 127.595 76.1724 127.429 76.5661 127.217V128.63C76.1549 128.801 75.7265 128.928 75.2882 129.008C74.7827 129.094 74.2709 129.136 73.7582 129.134C73.1694 129.161 72.5816 129.061 72.035 128.84C71.4883 128.62 70.9956 128.284 70.5903 127.856C69.7753 126.895 69.3598 125.658 69.4294 124.4C69.3759 123.193 69.792 122.013 70.5903 121.106C70.9651 120.692 71.4259 120.364 71.9404 120.147C72.455 119.929 73.0109 119.827 73.5692 119.846C74.0782 119.826 74.5852 119.921 75.0526 120.123C75.52 120.326 75.9358 120.631 76.2691 121.016C76.9911 121.917 77.3621 123.049 77.3131 124.202ZM75.7741 123.788C75.7703 123.052 75.5306 122.336 75.0902 121.745C74.8975 121.514 74.6547 121.33 74.3803 121.207C74.1058 121.084 73.8069 121.025 73.5062 121.034C73.1956 121.028 72.8875 121.091 72.6042 121.219C72.321 121.347 72.0696 121.536 71.8683 121.772C71.4027 122.345 71.1316 123.051 71.0943 123.788H75.7741Z" fill="#1D1D1B"/>
<path d="M85.1786 120.368L85.0526 121.799C84.7701 121.642 84.4673 121.524 84.1527 121.448C83.8197 121.368 83.4782 121.329 83.1357 121.331C82.7243 121.318 82.3146 121.391 81.9333 121.546C81.5519 121.701 81.2073 121.935 80.9218 122.231C80.6352 122.536 80.4126 122.896 80.2673 123.288C80.122 123.681 80.0569 124.099 80.0758 124.517C80.0336 125.369 80.3277 126.202 80.8948 126.839C81.1751 127.137 81.5162 127.372 81.8951 127.527C82.2739 127.683 82.6816 127.755 83.0907 127.739C83.4275 127.737 83.7629 127.695 84.0897 127.613C84.4442 127.524 84.7882 127.397 85.1156 127.235L85.2056 128.684C84.8354 128.823 84.4526 128.925 84.0627 128.99C83.6579 129.055 83.2487 129.088 82.8387 129.089C82.2375 129.129 81.6347 129.04 81.0707 128.828C80.5068 128.615 79.9946 128.285 79.5686 127.859C79.1425 127.433 78.8124 126.921 78.6003 126.357C78.3882 125.793 78.2991 125.19 78.3389 124.589C78.2986 123.973 78.3893 123.355 78.6049 122.777C78.8205 122.198 79.1562 121.672 79.5898 121.232C80.0422 120.81 80.575 120.483 81.1563 120.271C81.7377 120.06 82.3558 119.967 82.9737 119.999C83.3625 119.996 83.7509 120.026 84.1347 120.089C84.492 120.143 84.8422 120.236 85.1786 120.368Z" fill="#1D1D1B"/>
<path d="M86.9607 116.013H88.5896V117.651H86.9607V116.013ZM86.9607 120.062H88.5896V128.918H86.9607V120.062Z" fill="#1D1D1B"/>
<path d="M94.9795 119.846C95.5731 119.815 96.1667 119.91 96.7207 120.126C97.2747 120.341 97.7764 120.673 98.1923 121.097C98.9536 122.063 99.3677 123.256 99.3677 124.486C99.3677 125.715 98.9536 126.909 98.1923 127.874C97.3206 128.681 96.1764 129.13 94.9885 129.13C93.8005 129.13 92.6563 128.681 91.7846 127.874C91.027 126.905 90.6155 125.711 90.6155 124.481C90.6155 123.251 91.027 122.057 91.7846 121.088C92.1989 120.667 92.698 120.339 93.2487 120.124C93.7995 119.91 94.3894 119.816 94.9795 119.846ZM94.9795 121.106C94.6114 121.093 94.2454 121.168 93.9119 121.324C93.5785 121.481 93.2873 121.714 93.0625 122.006C92.5865 122.727 92.3327 123.572 92.3327 124.436C92.3327 125.3 92.5865 126.145 93.0625 126.866C93.2873 127.158 93.5785 127.392 93.9119 127.548C94.2454 127.705 94.6114 127.78 94.9795 127.766C95.3471 127.777 95.7121 127.701 96.0451 127.544C96.378 127.388 96.6696 127.156 96.8964 126.866C97.3671 126.138 97.6176 125.29 97.6176 124.423C97.6176 123.556 97.3671 122.707 96.8964 121.979C96.6696 121.696 96.3799 121.47 96.0502 121.318C95.7206 121.167 95.3601 121.094 94.9974 121.106H94.9795Z" fill="#1D1D1B"/>
<path d="M106.202 127.487V132.599H104.564V120.062H106.049V121.799C106.354 121.213 106.807 120.716 107.363 120.359C107.906 120.032 108.529 119.861 109.163 119.864C109.668 119.851 110.169 119.955 110.627 120.169C111.085 120.383 111.486 120.701 111.8 121.097C112.505 122.022 112.862 123.166 112.808 124.328C112.874 125.562 112.515 126.782 111.791 127.784C111.476 128.198 111.066 128.531 110.597 128.755C110.127 128.978 109.611 129.087 109.091 129.071C108.508 129.081 107.933 128.945 107.417 128.675C106.915 128.392 106.496 127.982 106.202 127.487ZM111.089 124.418C111.137 123.579 110.917 122.747 110.459 122.042C110.268 121.758 110.009 121.527 109.706 121.37C109.402 121.212 109.064 121.134 108.722 121.142C108.372 121.138 108.026 121.217 107.713 121.374C107.4 121.53 107.128 121.76 106.922 122.042C106.433 122.731 106.189 123.565 106.229 124.409C106.183 125.272 106.417 126.128 106.895 126.848C107.098 127.135 107.368 127.367 107.682 127.524C107.996 127.681 108.344 127.758 108.695 127.748C109.046 127.763 109.396 127.688 109.711 127.53C110.026 127.373 110.295 127.138 110.495 126.848C110.945 126.121 111.153 125.271 111.089 124.418Z" fill="#1D1D1B"/>
<path d="M118.603 119.846C119.197 119.815 119.791 119.91 120.345 120.126C120.899 120.341 121.4 120.673 121.816 121.097C122.59 122.057 123.012 123.253 123.012 124.486C123.012 125.719 122.59 126.914 121.816 127.874C120.946 128.681 119.803 129.129 118.617 129.129C117.43 129.129 116.288 128.681 115.417 127.874C114.654 126.908 114.239 125.713 114.239 124.481C114.239 123.25 114.654 122.054 115.417 121.088C115.83 120.667 116.328 120.339 116.877 120.125C117.426 119.911 118.015 119.816 118.603 119.846ZM118.603 121.106C118.237 121.094 117.872 121.169 117.54 121.325C117.208 121.482 116.919 121.715 116.695 122.006C116.215 122.726 115.958 123.571 115.958 124.436C115.958 125.301 116.215 126.147 116.695 126.866C116.925 127.153 117.216 127.385 117.547 127.544C117.878 127.703 118.24 127.786 118.608 127.786C118.975 127.786 119.338 127.703 119.669 127.544C120 127.385 120.291 127.153 120.52 126.866C120.991 126.138 121.241 125.29 121.241 124.423C121.241 123.556 120.991 122.707 120.52 121.979C120.295 121.694 120.005 121.467 119.675 121.315C119.345 121.163 118.984 121.092 118.621 121.106H118.603Z" fill="#1D1D1B"/>
<path d="M129.799 119.999L129.745 121.565C129.629 121.523 129.508 121.496 129.385 121.484H129.061C128.729 121.467 128.398 121.53 128.096 121.668C127.794 121.806 127.529 122.014 127.324 122.276C126.874 122.94 126.659 123.735 126.712 124.535V128.981H125.074V120.062H126.55V121.862C126.753 121.287 127.111 120.779 127.585 120.395C128.019 120.056 128.555 119.875 129.106 119.882H129.43L129.799 119.999Z" fill="#1D1D1B"/>
<path d="M134.929 120.062H136.684L138.988 127.451L141.39 120.062H143.001L139.888 128.918H137.989L134.929 120.062Z" fill="#1D1D1B"/>
<path d="M148.077 119.846C148.672 119.816 149.267 119.911 149.822 120.127C150.377 120.343 150.881 120.673 151.299 121.097C152.06 122.063 152.474 123.256 152.474 124.486C152.474 125.715 152.06 126.909 151.299 127.874C150.427 128.681 149.283 129.129 148.095 129.129C146.907 129.129 145.763 128.681 144.891 127.874C144.128 126.908 143.712 125.713 143.712 124.481C143.712 123.25 144.128 122.054 144.891 121.088C145.304 120.667 145.801 120.339 146.351 120.125C146.9 119.911 147.488 119.816 148.077 119.846ZM148.077 121.106C147.71 121.094 147.346 121.169 147.014 121.325C146.682 121.482 146.393 121.715 146.169 122.006C145.693 122.727 145.439 123.572 145.439 124.436C145.439 125.3 145.693 126.145 146.169 126.866C146.399 127.153 146.69 127.385 147.021 127.544C147.352 127.703 147.714 127.786 148.082 127.786C148.449 127.786 148.812 127.703 149.143 127.544C149.474 127.385 149.765 127.153 149.994 126.866C150.465 126.138 150.715 125.29 150.715 124.423C150.715 123.556 150.465 122.707 149.994 121.979C149.769 121.694 149.479 121.467 149.149 121.315C148.819 121.163 148.458 121.092 148.095 121.106H148.077Z" fill="#1D1D1B"/>
<path d="M159.462 120.296L159.399 121.628C159.045 121.469 158.678 121.342 158.301 121.25C157.926 121.168 157.542 121.125 157.158 121.124C156.778 121.104 156.401 121.201 156.078 121.403C155.953 121.479 155.849 121.586 155.778 121.714C155.707 121.842 155.671 121.986 155.673 122.132C155.675 122.269 155.706 122.403 155.764 122.527C155.821 122.651 155.904 122.762 156.006 122.852C156.427 123.187 156.893 123.46 157.392 123.662C158.108 123.952 158.759 124.38 159.309 124.922C159.659 125.33 159.845 125.852 159.831 126.389C159.844 126.764 159.763 127.136 159.595 127.471C159.427 127.806 159.177 128.093 158.868 128.306C158.094 128.818 157.176 129.067 156.249 129.017C155.848 129.017 155.447 128.981 155.052 128.909C154.662 128.831 154.28 128.719 153.909 128.576L153.963 127.199C154.346 127.396 154.751 127.547 155.169 127.649C155.542 127.751 155.926 127.802 156.312 127.802C156.768 127.826 157.219 127.703 157.599 127.451C157.728 127.357 157.837 127.237 157.917 127.098C157.998 126.96 158.049 126.807 158.068 126.648C158.086 126.489 158.072 126.328 158.025 126.175C157.979 126.022 157.901 125.881 157.797 125.759C157.404 125.408 156.954 125.128 156.465 124.931C155.759 124.625 155.113 124.195 154.557 123.662C154.366 123.443 154.223 123.187 154.138 122.91C154.052 122.633 154.025 122.341 154.059 122.052C154.093 121.764 154.187 121.486 154.334 121.236C154.482 120.987 154.681 120.771 154.917 120.602C155.61 120.147 156.429 119.923 157.257 119.963C157.622 119.964 157.985 119.991 158.346 120.044C158.724 120.097 159.098 120.181 159.462 120.296Z" fill="#1D1D1B"/>
</svg>
