<svg width="200" height="200" viewBox="0 0 200 200" fill="none" xmlns="http://www.w3.org/2000/svg"><g clip-path="url(#clip0_862_187)"><path d="M43.9566 100.899V100.809C48.1061 100.118 50.4436 98.1339 50.4436 94.3601C50.4436 89.5219 46.4325 87.9183 39.5098 87.9183H27.7529V93.2058C27.7529 93.586 30.3049 94.2426 30.3049 94.8301V108.585C30.3049 109.179 27.7529 109.836 27.7529 110.216V115.469H39.3161C46.7091 115.448 51.8198 113.837 51.8198 107.721C51.8198 103.615 48.9152 101.5 43.9566 100.899ZM37.9814 88.6786H39.24C42.0063 88.6786 42.6564 90.1301 42.6564 93.9039V95.7494C42.6564 98.9772 41.8335 100.781 38.998 100.781H37.9814V88.6786ZM43.7284 108.806C43.7284 112.421 42.8639 114.701 39.8348 114.701H37.9814V101.5H38.8873C42.7048 101.5 43.7284 103.47 43.7284 106.691V108.806ZM120.009 113.07V94.1389C117.34 93.973 114.477 93.4477 112.575 91.858V98.2652C111.883 97.0488 110.452 96.3438 108.011 96.3438C102.976 96.3438 100.223 99.4886 100.223 106.131C100.223 112.773 102.99 115.807 107.34 115.807C110.41 115.807 111.946 114.625 112.769 112.662L113.204 115.427H121.932V114.128C121.932 113.872 120.597 113.471 120.009 113.07ZM112.693 110.098C112.693 113.05 111.116 114.148 109.975 114.148C108.287 114.148 107.817 112.849 107.817 107.306V105.267C107.817 99.7997 108.211 97.4842 110.134 97.4842C111.863 97.4842 112.693 99.4057 112.693 101.528V110.098ZM147.818 114.245C146.435 114.245 146.089 112.987 146.089 110.672V97.4427H151.2V96.7516H146.082V91.3051C144.858 92.4041 141.407 93.6689 138.765 93.9108V96.7377H136.607V97.4289H138.772V109.794C138.772 114.674 141.538 115.814 145.46 115.814C150.259 115.814 151.552 112.98 151.905 109.918L151.213 109.836C150.923 112.559 149.706 114.266 147.818 114.266V114.245ZM163.496 96.323C157.161 96.323 153.309 99.7029 153.309 106.152C153.309 112.282 156.649 115.828 163.254 115.828C170.259 115.828 173.247 112.248 173.247 105.799C173.247 99.3504 170.1 96.3438 163.496 96.3438V96.323ZM165.695 107.721C165.695 112.835 165.577 115.151 163.337 115.151C160.937 115.151 160.861 112.206 160.861 107.645V104.555C160.861 100.118 160.979 97.0488 163.371 97.0488C165.578 97.0488 165.695 100.118 165.695 104.361V107.721ZM133.129 112.745V96.7377H123.488V97.9957C123.488 98.2998 125.528 98.8113 125.812 99.2882V112.808C125.604 113.291 123.626 113.817 123.626 114.128V115.323V115.42H135.307V114.128C135.328 113.796 133.129 113.25 133.129 112.725V112.745ZM64.2337 96.3438C58.7633 96.3438 54.102 99.3297 54.102 106.131C54.102 111.833 57.2487 115.807 64.2544 115.807C69.8354 115.807 71.8618 113.208 72.7885 109.829L72.0969 109.711C71.2324 112.738 69.2684 114.549 66.3568 114.549C62.5393 114.632 61.7094 111.474 61.7094 106.836V105.301H72.7747C73.0444 99.4264 70.4095 96.3438 64.2337 96.3438ZM65.8035 104.52H61.7578V102.592C61.7578 98.445 62.5047 97.0626 63.881 97.0626C65.4923 97.0626 65.8035 98.445 65.8035 102.592V104.52ZM96.4266 112.725V102.882C96.4266 98.1201 93.9854 96.3161 90.3338 96.3161C86.4402 96.3161 85.1401 98.3551 84.4692 100.325V96.7377H74.9946V97.9957C74.9946 98.2998 76.8688 98.8044 77.1523 99.2813V112.842C76.8688 113.319 74.9946 113.824 74.9946 114.128V115.448H84.4692V103.891C84.4692 100.705 86.0045 98.2307 87.6574 98.2307C88.6395 98.2307 89.1097 98.6247 89.1097 101.963V115.448H98.6328V114.128C98.6328 113.796 96.4266 113.25 96.4266 112.725Z" fill="#1D1D1B"/><path d="M129.076 90.9043C141.594 90.9043 146.096 87.8493 146.096 84.4487C146.082 81.5388 142.928 78 129.408 78C117.395 78 112.554 81.2624 112.554 84.5178C112.554 88.7547 118.73 90.9043 129.076 90.9043ZM143.316 85.8241C143.341 86.1069 143.303 86.3919 143.205 86.6584C143.107 86.9249 142.951 87.1664 142.748 87.3654C141.536 88.699 139.889 89.5587 138.101 89.7915C139.636 89.3146 140.556 87.9322 139.968 88.0981C137.721 88.734 134.221 89.1901 129.131 89.1901C120.507 89.1901 115.362 87.6626 115.362 85.8518C115.362 84.2759 119.394 81.7946 129.408 81.7946C140.66 81.7946 143.316 84.5731 143.316 85.8241Z" fill="#1D1D1B"/><path d="M30.2218 121.758V122.927H31.7709V123.431H30.2218V125H29.6616V121.247H32.0406V121.758H30.2218Z" fill="#1D1D1B"/><path d="M40.0907 125L39.8348 124.254H38.3617L38.1058 125H37.5042L38.8873 121.282H39.3437L40.7269 125H40.0907ZM39.1086 122.125L38.5277 123.777H39.6757L39.1086 122.125ZM39.2123 120.922H38.8112L39.2054 120.079H39.7933L39.2123 120.922Z" fill="#1D1D1B"/><path d="M47.9539 125H46.4463V121.247H47.8779C48.0208 121.23 48.1658 121.244 48.3028 121.288C48.4399 121.332 48.5659 121.405 48.6722 121.502C48.7785 121.599 48.8626 121.718 48.9189 121.851C48.9751 121.983 49.0022 122.126 48.9982 122.27C49.001 122.435 48.9554 122.598 48.8669 122.738C48.7784 122.878 48.651 122.989 48.5003 123.058C48.6715 123.126 48.817 123.246 48.9163 123.401C49.0156 123.556 49.0636 123.738 49.0535 123.922C49.0654 124.068 49.045 124.215 48.9936 124.353C48.9422 124.491 48.8612 124.615 48.7563 124.718C48.6514 124.821 48.5252 124.9 48.3865 124.948C48.2478 124.997 48.1002 125.015 47.9539 125ZM47.8779 121.758H47.0134V122.823H47.8779C48.2375 122.823 48.4795 122.636 48.4795 122.291C48.4795 121.945 48.2098 121.758 47.8779 121.758ZM47.8779 123.327H47.0134V124.461H47.8779C48.0283 124.461 48.1725 124.401 48.2789 124.295C48.3852 124.189 48.4449 124.044 48.4449 123.894C48.4449 123.744 48.3852 123.6 48.2789 123.493C48.1725 123.387 48.0283 123.327 47.8779 123.327Z" fill="#1D1D1B"/><path d="M57.2003 125L56.4119 123.438H55.7203V125H55.1602V121.247H56.5986C56.7476 121.234 56.8976 121.253 57.0389 121.302C57.1801 121.351 57.3094 121.43 57.4183 121.532C57.5273 121.634 57.6134 121.758 57.6712 121.896C57.729 122.034 57.757 122.183 57.7536 122.332C57.7661 122.557 57.6987 122.78 57.5634 122.961C57.4281 123.141 57.2335 123.269 57.0136 123.32L57.8573 125H57.2003ZM56.5087 121.793H55.7065V122.926H56.5433C56.6974 122.926 56.8451 122.865 56.9541 122.756C57.063 122.647 57.1242 122.5 57.1242 122.346C57.1242 122.192 57.063 122.044 56.9541 121.935C56.8451 121.826 56.6974 121.765 56.5433 121.765L56.5087 121.793Z" fill="#1D1D1B"/><path d="M63.7842 125V121.247H64.3513V125H63.7842Z" fill="#1D1D1B"/><path d="M71.7718 125C71.4052 125.004 71.052 124.862 70.7898 124.606C70.4233 124.24 70.4302 123.825 70.4302 123.106C70.4302 122.387 70.4302 121.98 70.7898 121.613C71.052 121.357 71.4052 121.215 71.7718 121.219C72.0968 121.205 72.4149 121.315 72.6615 121.527C72.9082 121.739 73.0648 122.037 73.0997 122.36H72.5187C72.4943 122.221 72.4323 122.092 72.3396 121.987C72.2468 121.881 72.1268 121.803 71.9926 121.761C71.8585 121.719 71.7154 121.714 71.5789 121.748C71.4424 121.782 71.3177 121.852 71.2186 121.952C71.0388 122.145 70.9973 122.36 70.9973 123.106C70.9973 123.853 71.0388 124.067 71.2186 124.267C71.2898 124.342 71.3758 124.4 71.4711 124.44C71.5664 124.479 71.6688 124.498 71.7718 124.495C71.954 124.497 72.1307 124.433 72.2693 124.315C72.4079 124.197 72.4989 124.033 72.5257 123.853H73.0997C73.0633 124.176 72.9064 124.473 72.6603 124.686C72.4142 124.899 72.097 125.011 71.7718 125Z" fill="#1D1D1B"/><path d="M81.1636 125L80.9077 124.254H79.4415L79.1857 125H78.584L79.9671 121.281H80.3821L81.7652 125H81.1636ZM80.1884 122.125L79.6075 123.777H80.7555L80.1884 122.125Z" fill="#1D1D1B"/><path d="M96.2884 124.62C96.1591 124.738 96.0076 124.83 95.8425 124.889C95.6775 124.949 95.5023 124.974 95.3271 124.965H94.02V121.247H95.3271C95.5027 121.239 95.6781 121.266 95.8431 121.327C96.0081 121.387 96.1595 121.48 96.2884 121.599C96.4489 121.808 96.5649 122.048 96.6291 122.304C96.6934 122.559 96.7045 122.825 96.6618 123.085C96.7447 123.626 96.6105 124.178 96.2884 124.62ZM95.9011 122.007C95.8196 121.922 95.7205 121.855 95.6106 121.812C95.5006 121.769 95.3827 121.751 95.2649 121.758H94.5733V124.461H95.2649C95.3827 124.468 95.5006 124.45 95.6106 124.407C95.7205 124.364 95.8196 124.297 95.9011 124.212C96.089 123.868 96.1594 123.473 96.1017 123.085C96.0947 122.567 96.0878 122.235 95.8942 122.007H95.9011Z" fill="#1D1D1B"/><path d="M102.727 125V121.247H105.099V121.758H103.287V122.844H104.836V123.341H103.287V124.461H105.099V125H102.727Z" fill="#1D1D1B"/><path d="M120.307 125V122.484L119.449 124.309H119.034L118.156 122.498V125H117.589V121.247H118.156L119.242 123.562L120.307 121.247H120.874V125H120.307Z" fill="#1D1D1B"/><path d="M128.35 125C128.176 125.01 128.002 124.983 127.839 124.923C127.676 124.862 127.528 124.768 127.402 124.648C127.277 124.527 127.178 124.382 127.111 124.221C127.045 124.061 127.012 123.888 127.015 123.714V121.247H127.582V123.687C127.571 123.792 127.583 123.899 127.617 123.999C127.651 124.099 127.706 124.191 127.779 124.268C127.852 124.345 127.941 124.405 128.04 124.444C128.138 124.484 128.244 124.501 128.35 124.495C128.456 124.501 128.562 124.483 128.661 124.444C128.76 124.405 128.849 124.345 128.922 124.268C128.996 124.192 129.052 124.1 129.087 124C129.122 123.899 129.134 123.793 129.124 123.687V121.247H129.685V123.714C129.688 123.888 129.655 124.061 129.588 124.221C129.522 124.382 129.423 124.527 129.297 124.648C129.172 124.768 129.023 124.862 128.86 124.923C128.697 124.983 128.524 125.01 128.35 125Z" fill="#1D1D1B"/><path d="M135.833 125V121.247H138.212V121.758H136.4V122.844H137.942V123.341H136.4V124.461H138.212V125H135.833Z" fill="#1D1D1B"/><path d="M145.722 125H144.215V121.247H145.66C145.802 121.231 145.947 121.246 146.083 121.29C146.219 121.335 146.344 121.408 146.45 121.505C146.555 121.602 146.639 121.72 146.695 121.852C146.75 121.984 146.777 122.127 146.773 122.27C146.777 122.436 146.73 122.6 146.64 122.74C146.551 122.88 146.421 122.991 146.269 123.058C146.442 123.124 146.589 123.243 146.69 123.398C146.791 123.554 146.839 123.737 146.829 123.922C146.841 124.069 146.82 124.217 146.768 124.355C146.717 124.493 146.635 124.618 146.529 124.721C146.424 124.824 146.297 124.902 146.157 124.951C146.017 124.999 145.869 125.016 145.722 125ZM145.619 121.793H144.782V122.857H145.619C145.978 122.857 146.22 122.671 146.22 122.325C146.22 121.98 145.978 121.758 145.619 121.758V121.793ZM145.667 123.362H144.782V124.495H145.667C145.817 124.495 145.962 124.436 146.068 124.329C146.174 124.223 146.234 124.079 146.234 123.929C146.234 123.778 146.174 123.634 146.068 123.528C145.962 123.422 145.817 123.362 145.667 123.362Z" fill="#1D1D1B"/><path d="M152.915 125V121.247H153.475V124.461H155.273V125H152.915Z" fill="#1D1D1B"/><path d="M161.145 125V121.247H163.524V121.758H161.712V122.844H163.254V123.341H161.712V124.461H163.524V125H161.145Z" fill="#1D1D1B"/><path d="M170.515 125C170.273 125.017 170.029 124.982 169.802 124.898C169.574 124.813 169.367 124.681 169.194 124.509L169.575 124.136C169.697 124.261 169.845 124.358 170.009 124.42C170.172 124.482 170.348 124.508 170.522 124.495C171.013 124.495 171.297 124.281 171.297 123.922C171.301 123.85 171.289 123.778 171.263 123.712C171.237 123.645 171.196 123.584 171.145 123.535C171.032 123.435 170.887 123.381 170.737 123.383L170.301 123.32C170.045 123.292 169.803 123.186 169.609 123.016C169.517 122.928 169.445 122.82 169.398 122.7C169.352 122.581 169.332 122.453 169.34 122.325C169.339 122.169 169.372 122.015 169.436 121.872C169.501 121.73 169.594 121.603 169.711 121.499C169.829 121.396 169.966 121.319 170.116 121.273C170.265 121.227 170.422 121.213 170.577 121.233C170.79 121.221 171.002 121.252 171.202 121.324C171.402 121.397 171.585 121.509 171.739 121.655L171.373 122.007C171.264 121.908 171.136 121.832 170.997 121.783C170.858 121.735 170.711 121.714 170.564 121.724C170.128 121.724 169.872 121.973 169.872 122.304C169.87 122.369 169.881 122.432 169.904 122.492C169.928 122.551 169.964 122.605 170.01 122.65C170.132 122.744 170.279 122.802 170.432 122.816L170.854 122.885C171.108 122.901 171.35 122.998 171.546 123.161C171.648 123.259 171.727 123.377 171.779 123.509C171.83 123.64 171.852 123.781 171.843 123.922C171.85 124.592 171.297 125 170.515 125Z" fill="#1D1D1B"/></g><defs><clipPath id="clip0_862_187"><rect width="191" height="47" fill="white" transform="translate(5 78)"/></clipPath></defs></svg>