<svg xmlns="http://www.w3.org/2000/svg" id="Capa_1" data-name="Capa 1" viewBox="0 0 276.18 68"><defs><style>.cls-1{fill:none;}.cls-2{fill:#1d1d1b;}</style></defs><rect class="cls-1" width="276.18" height="68"></rect><rect class="cls-2" x="138.49" y="27.52" width="8.37" height="16.15"></rect><polygon class="cls-2" points="165.21 27.52 156.84 27.52 156.84 27.52 156.84 43.67 165.21 43.67 165.21 27.52"></polygon><path class="cls-2" d="M156.84,26.71h8.37a27.14,27.14,0,0,0-1.9-9.61l-7.75,3.21a18.42,18.42,0,0,1,1.27,6.4Z"></path><path class="cls-2" d="M138.49,17.55a9.57,9.57,0,0,1,2.89.57l3.2-7.74a18.09,18.09,0,0,0-6.09-1.21Z"></path><polygon class="cls-2" points="156.03 27.52 147.67 27.52 147.66 27.52 147.66 43.67 156.03 43.67 156.03 27.52"></polygon><path class="cls-2" d="M147.67,26.71H156a17.89,17.89,0,0,0-1.21-6.09l-7.74,3.2a9.58,9.58,0,0,1,.58,2.89Z"></path><path class="cls-2" d="M151.05,14.72l-5.91,5.92a9.64,9.64,0,0,1,1.63,2.44l7.74-3.2A18.11,18.11,0,0,0,151.05,14.72Z"></path><path class="cls-2" d="M138.49,25.09l2.58-6.22a8.52,8.52,0,0,0-2.58-.52Z"></path><path class="cls-2" d="M139.8,26,146,23.39a8.76,8.76,0,0,0-1.46-2.18Z"></path><path class="cls-2" d="M163,16.36a27,27,0,0,0-5.45-8.13l-5.93,5.92a18.67,18.67,0,0,1,3.63,5.42Z"></path><path class="cls-2" d="M145.63,10a18.87,18.87,0,0,1,5.42,3.63L157,7.66a27.08,27.08,0,0,0-8.14-5.46Z"></path><path class="cls-2" d="M146.34,24.13l-6.23,2.58h6.74A8.82,8.82,0,0,0,146.34,24.13Z"></path><path class="cls-2" d="M145.33,10.69l-3.21,7.74a9.64,9.64,0,0,1,2.45,1.64l5.91-5.92A18.06,18.06,0,0,0,145.33,10.69Z"></path><path class="cls-2" d="M139.24,25.4,144,20.64a8.85,8.85,0,0,0-2.19-1.47Z"></path><path class="cls-2" d="M138.49,8.37a18.65,18.65,0,0,1,6.4,1.27L148.1,1.9A27.1,27.1,0,0,0,138.49,0Z"></path><rect class="cls-2" x="129.32" y="27.52" width="8.37" height="16.15"></rect><path class="cls-2" d="M131,20.64l-5.91-5.92a17.91,17.91,0,0,0-3.46,5.16l7.73,3.2A9.67,9.67,0,0,1,131,20.64Z"></path><path class="cls-2" d="M128.52,26.71a9.57,9.57,0,0,1,.57-2.89l-7.73-3.2a17.89,17.89,0,0,0-1.21,6.09h8.37Z"></path><path class="cls-2" d="M137.69,18.35a8.52,8.52,0,0,0-2.58.52l2.58,6.22Z"></path><path class="cls-2" d="M137.69,0a27.05,27.05,0,0,0-9.61,1.9l3.21,7.74a18.6,18.6,0,0,1,6.4-1.27Z"></path><path class="cls-2" d="M137.69,9.17a18,18,0,0,0-6.09,1.21l3.2,7.74a9.57,9.57,0,0,1,2.89-.57Z"></path><rect class="cls-2" x="120.14" y="27.52" width="8.37" height="16.15"></rect><path class="cls-2" d="M129.33,26.71h6.74l-6.23-2.58A8.82,8.82,0,0,0,129.33,26.71Z"></path><path class="cls-2" d="M134.36,19.17a9,9,0,0,0-2.18,1.47l4.76,4.76Z"></path><path class="cls-2" d="M119.34,26.71a18.66,18.66,0,0,1,1.28-6.4l-7.75-3.21a27.14,27.14,0,0,0-1.9,9.61Z"></path><path class="cls-2" d="M125.69,14.15l5.92,5.92a9.47,9.47,0,0,1,2.45-1.64l-3.21-7.74A18.11,18.11,0,0,0,125.69,14.15Z"></path><path class="cls-2" d="M131.61,21.21a8.76,8.76,0,0,0-1.46,2.18L136.37,26Z"></path><rect class="cls-2" x="110.97" y="27.52" width="8.37" height="16.15"></rect><path class="cls-2" d="M113.18,16.36l7.75,3.21a18.67,18.67,0,0,1,3.63-5.42l-5.93-5.92A27,27,0,0,0,113.18,16.36Z"></path><path class="cls-2" d="M119.2,7.66l5.92,5.92A19.15,19.15,0,0,1,130.54,10l-3.2-7.75A27.08,27.08,0,0,0,119.2,7.66Z"></path><path class="cls-2" d="M77.93,64.15a6.49,6.49,0,0,1-1,1.6,4.61,4.61,0,0,1-1.45,1.09,4.48,4.48,0,0,1-1.92.4,4.13,4.13,0,0,1-2.34-.64,4.71,4.71,0,0,1-1.53-1.69,8.07,8.07,0,0,1-.85-2.36,13.23,13.23,0,0,1,0-5.22A8.24,8.24,0,0,1,69.68,55a4.88,4.88,0,0,1,1.53-1.69,4.12,4.12,0,0,1,2.33-.63,5.34,5.34,0,0,1,2.54.73A6.15,6.15,0,0,1,78,55.15l0,.08h1L78.73,55l0-3h-.65v.62a.65.65,0,0,1-.38.62.64.64,0,0,1-.71-.08,3.24,3.24,0,0,0-.46-.32,5.55,5.55,0,0,0-3-.84,5.63,5.63,0,0,0-2.59.63,6.76,6.76,0,0,0-2.12,1.73,8.14,8.14,0,0,0-1.41,2.52,9.32,9.32,0,0,0,0,6.14,8.25,8.25,0,0,0,1.41,2.52A6.76,6.76,0,0,0,71,67.26a5.74,5.74,0,0,0,5.19,0,6.76,6.76,0,0,0,2.12-1.73,6.94,6.94,0,0,0,.82-1.21l.15-.28H78Zm23.32-9.8a6.84,6.84,0,0,0-2.11-1.73,5.68,5.68,0,0,0-5.2,0,6.84,6.84,0,0,0-2.11,1.73,8.14,8.14,0,0,0-1.41,2.52,9.32,9.32,0,0,0,0,6.14,8.25,8.25,0,0,0,1.41,2.52,6.84,6.84,0,0,0,2.11,1.73,5.76,5.76,0,0,0,5.2,0,6.84,6.84,0,0,0,2.11-1.73A8.28,8.28,0,0,0,102.67,63a9.5,9.5,0,0,0,0-6.14A8.16,8.16,0,0,0,101.25,54.35Zm0,8.2a8.37,8.37,0,0,1-.85,2.36,4.71,4.71,0,0,1-1.53,1.69,4.62,4.62,0,0,1-4.69,0,4.71,4.71,0,0,1-1.53-1.69,8.07,8.07,0,0,1-.85-2.36,12.75,12.75,0,0,1,0-5.22A8.24,8.24,0,0,1,92.67,55a4.88,4.88,0,0,1,1.53-1.69,4.68,4.68,0,0,1,4.69,0A4.88,4.88,0,0,1,100.42,55a8.55,8.55,0,0,1,.85,2.37,13.23,13.23,0,0,1,0,5.22Zm21.86-1.37a5.28,5.28,0,0,0,1-1.71,5.91,5.91,0,0,0,0-4.17,5.28,5.28,0,0,0-1-1.71,4.59,4.59,0,0,0-3-1.57v0h-5.9v.65h1V67.23h-1v.64h3.63v-.65h-1V62.77h2l2.5,4.47h-.72v.64h3.64v-.64h-1l-2.57-4.58A4.72,4.72,0,0,0,123.13,61.18Zm-.41-2a5.11,5.11,0,0,1-.52,1.53,3,3,0,0,1-1,1.05,2.76,2.76,0,0,1-1.53.39h-2.83V52.64h3a2.68,2.68,0,0,1,1.83.72,3.76,3.76,0,0,1,.94,1.74,9.41,9.41,0,0,1,.27,2.27A10.34,10.34,0,0,1,122.72,59.16Zm62.1,4.33v0A5.15,5.15,0,0,0,183.49,61a18.89,18.89,0,0,0-2.15-1.91,20.75,20.75,0,0,1-1.71-1.46,4.85,4.85,0,0,1-1.12-1.57,2.87,2.87,0,0,1-.1-1.87,1.73,1.73,0,0,1,.55-.9,2.23,2.23,0,0,1,1.13-.49l.18,0a3.69,3.69,0,0,1,2.46.62A3,3,0,0,1,183.94,55l0,.13h.62l0-3.21H184v.87a.38.38,0,0,1-.61.31l-.23-.17a4.35,4.35,0,0,0-2.91-.73l-.22,0a3.88,3.88,0,0,0-2.36,1.29A3.17,3.17,0,0,0,176.9,55a3.38,3.38,0,0,0,.13,1.58,4.39,4.39,0,0,0,.76,1.41,12.93,12.93,0,0,0,1.35,1.41c.48.42,1,.82,1.41,1.19a13.1,13.1,0,0,1,2.06,1.88,3.42,3.42,0,0,1,.81,2.28,2.61,2.61,0,0,1-.54,1.64,2.66,2.66,0,0,1-1.7.88l-.21,0a4.41,4.41,0,0,1-2.9-.71,3.77,3.77,0,0,1-1.29-1.49l-.06-.11h-.41l-.19,0V68h.67v-.62a.42.42,0,0,1,.23-.39.42.42,0,0,1,.45,0,1.43,1.43,0,0,0,.22.15,5,5,0,0,0,2.86.86l.48,0h0a.69.69,0,0,1,.22,0A4.49,4.49,0,0,0,184,66.46a3.63,3.63,0,0,0,.85-2.79A.57.57,0,0,0,184.82,63.49Zm23.42,3.74L203,52h-1l-.19,0v.09l-5.24,15.13h-1.09v.64h2.76v-.65h-1l1.17-3.35h7l1.16,3.36h-.88v.64h3.63v-.64Zm-9.64-4,3.26-9.43,3.26,9.43ZM135.65,52v.66h1V67.22h-1v.66h3.63v-.64h-1V52.65h1V52h-2.39Zm27.23.65h.89V52l-1.72,0h-.31l-.05.23-4,13.35L153.61,52h-2.12v.65h.95l-.05.9-.77,13.69h-1.07v.64h1l.66,0v0l1.07,0v-.66h-1l.67-11.82,3.73,12.47h1l.06-.22,3.7-12.32.74,11.89h-1v.64h3.64v-.64h-1.06Z"></path></svg>