<svg xmlns="http://www.w3.org/2000/svg" id="Capa_1" data-name="Capa 1" viewBox="0 0 276.18 68"><defs><style>.cls-1{fill:none;}.cls-2,.cls-3{fill:#1d1d1b;}.cls-2{fill-rule:evenodd;}</style></defs><rect class="cls-1" width="276.18" height="68"></rect><path class="cls-2" d="M191.86,0V33.6h33.6V0Zm21.41,24.26h-9.22V9.35h2.12v13h7.1Z"></path><polygon class="cls-2" points="171.01 17.95 175.65 17.95 173.3 12.58 171.01 17.95"></polygon><path class="cls-2" d="M156.57,0V33.6h33.61V0Zm21.88,24.26-1.92-4.39h-6.36l-1.89,4.39h-2.19l6.46-14.91h1.56l6.55,14.91Z"></path><path class="cls-2" d="M121.29,0V33.6h33.6V0Zm20,24.26-2.56-3.91a8.88,8.88,0,0,0-1.86-2.26,2.85,2.85,0,0,0-1.68-.49h-.64v6.66h-2.14V9.35h4.37a5.14,5.14,0,0,1,3.48,1.06,3.8,3.8,0,0,1,1.23,3,3.85,3.85,0,0,1-.67,2.37,4,4,0,0,1-2.13,1.34,3.2,3.2,0,0,1,.7.54,7.4,7.4,0,0,1,.86,1.12l3.62,5.46Z"></path><path class="cls-2" d="M139.24,13.47a2.1,2.1,0,0,0-.71-1.76,3.66,3.66,0,0,0-2.26-.55H134.5v4.65h1.77a3.58,3.58,0,0,0,2.23-.58A2.09,2.09,0,0,0,139.24,13.47Z"></path><path class="cls-2" d="M86,0V33.6h33.61V0Zm24.16,19.8a7.47,7.47,0,0,1-1.71,2.46,8.06,8.06,0,0,1-2.6,1.68,8.4,8.4,0,0,1-6.11,0,8,8,0,0,1-2.56-1.67,7.51,7.51,0,0,1-1.74-2.52,7.62,7.62,0,0,1-.59-3,7.31,7.31,0,0,1,.6-2.9,7.5,7.5,0,0,1,1.73-2.48,7.93,7.93,0,0,1,2.58-1.68,8.38,8.38,0,0,1,6.1,0,7.71,7.71,0,0,1,2.57,1.67,7.86,7.86,0,0,1,1.75,2.51,7.84,7.84,0,0,1,.58,3A7.39,7.39,0,0,1,110.16,19.8Z"></path><path class="cls-2" d="M106.81,12.79A5.32,5.32,0,0,0,105,11.54a5.67,5.67,0,0,0-4.33,0,6,6,0,0,0-1.87,1.25,5.42,5.42,0,0,0-1.23,1.82,5.86,5.86,0,0,0-.42,2.2A5.67,5.67,0,0,0,97.54,19a5.83,5.83,0,0,0,1.23,1.84,5.47,5.47,0,0,0,1.83,1.23,5.66,5.66,0,0,0,2.19.43,5.78,5.78,0,0,0,2.2-.42,5.54,5.54,0,0,0,1.84-1.24A5.83,5.83,0,0,0,108.06,19a5.67,5.67,0,0,0,0-4.33A5.81,5.81,0,0,0,106.81,12.79Z"></path><path class="cls-2" d="M50.72,0V33.6h33.6V0ZM74.28,23.12a12.79,12.79,0,0,1-2.68,1,10.86,10.86,0,0,1-2.69.35,9,9,0,0,1-2.45-.33,8.66,8.66,0,0,1-2.19-1,7.55,7.55,0,0,1-2.58-2.78,7.47,7.47,0,0,1-.93-3.67,7.28,7.28,0,0,1,.61-2.92,7.18,7.18,0,0,1,1.73-2.46,7.71,7.71,0,0,1,2.67-1.69,9.13,9.13,0,0,1,3.29-.56,10.6,10.6,0,0,1,2.5.29,14.07,14.07,0,0,1,2.59.9v2.32a14.63,14.63,0,0,0-2.67-1.14,8.71,8.71,0,0,0-2.42-.36,6,6,0,0,0-4.32,1.62A5.4,5.4,0,0,0,63,16.81a5.43,5.43,0,0,0,1.68,4.05,5.84,5.84,0,0,0,4.22,1.62A8.21,8.21,0,0,0,71.57,22a11.49,11.49,0,0,0,2.71-1.33Z"></path><path class="cls-3" d="M77.28,50.31h2.31l5.33,13.6H82.86l-1.31-3.5H75.09l-1.31,3.5H71.85ZM78.4,52l-2.7,6.91H81Z"></path><path class="cls-3" d="M88,62.32V68H86.14V54.07h1.64V56a4.23,4.23,0,0,1,1.47-1.6,3.79,3.79,0,0,1,2-.55,3.59,3.59,0,0,1,2.92,1.37,5.45,5.45,0,0,1,1.12,3.59,6,6,0,0,1-1.13,3.84,3.63,3.63,0,0,1-3,1.43,3.93,3.93,0,0,1-1.86-.44A3.64,3.64,0,0,1,88,62.32Zm5.43-3.41a4.45,4.45,0,0,0-.7-2.64,2.27,2.27,0,0,0-1.93-1,2.44,2.44,0,0,0-2,1A4.13,4.13,0,0,0,88,58.93a4.4,4.4,0,0,0,.74,2.71,2.47,2.47,0,0,0,4,0A4.48,4.48,0,0,0,93.39,58.91Z"></path><path class="cls-3" d="M102.87,54l-.05,1.74a1.69,1.69,0,0,0-.41-.09l-.36,0a2.31,2.31,0,0,0-1.93.88A4.07,4.07,0,0,0,99.44,59v4.94H97.62V54.07h1.65v2a3.57,3.57,0,0,1,1.14-1.63,2.68,2.68,0,0,1,1.7-.57l.35,0Z"></path><path class="cls-3" d="M112.47,58.67v.75h-7a3.61,3.61,0,0,0,1,2.45,3.34,3.34,0,0,0,2.44.88,5.22,5.22,0,0,0,1.35-.18,6.5,6.5,0,0,0,1.38-.55v1.57a6.9,6.9,0,0,1-1.42.42,9.91,9.91,0,0,1-1.7.14A4.56,4.56,0,0,1,105,62.73a5.47,5.47,0,0,1-1.29-3.84A5.19,5.19,0,0,1,105,55.23a4.26,4.26,0,0,1,3.31-1.4,3.77,3.77,0,0,1,3,1.3A5.3,5.3,0,0,1,112.47,58.67Zm-1.71-.46a3.83,3.83,0,0,0-.76-2.27,2.2,2.2,0,0,0-1.76-.79,2.33,2.33,0,0,0-1.82.82,3.86,3.86,0,0,0-.86,2.24Z"></path><path class="cls-3" d="M121.21,54.41,121.07,56a3.93,3.93,0,0,0-1-.39,4.66,4.66,0,0,0-1.13-.13,3.27,3.27,0,0,0-2.46,1,3.48,3.48,0,0,0-.94,2.54,3.61,3.61,0,0,0,.91,2.58,3.18,3.18,0,0,0,2.44,1,4.69,4.69,0,0,0,1.11-.14,5.67,5.67,0,0,0,1.14-.42l.1,1.61a6.79,6.79,0,0,1-1.27.34,8.71,8.71,0,0,1-1.36.11,4.7,4.7,0,0,1-5-5A4.86,4.86,0,0,1,115,55.37,5.12,5.12,0,0,1,118.76,54a7.59,7.59,0,0,1,1.29.1A5.34,5.34,0,0,1,121.21,54.41Z"></path><path class="cls-3" d="M123.19,49.57H125v1.82h-1.81Zm0,4.5H125v9.84h-1.81Z"></path><path class="cls-3" d="M132.1,53.83a4.65,4.65,0,0,1,3.57,1.39,6.08,6.08,0,0,1,0,7.53,5.24,5.24,0,0,1-7.12,0,6.12,6.12,0,0,1,0-7.54A4.64,4.64,0,0,1,132.1,53.83Zm0,1.4a2.57,2.57,0,0,0-2.13,1,4.9,4.9,0,0,0,0,5.4,2.57,2.57,0,0,0,2.13,1,2.61,2.61,0,0,0,2.13-1,5,5,0,0,0,0-5.43A2.59,2.59,0,0,0,132.12,55.23Z"></path><path class="cls-3" d="M144.57,62.32V68h-1.82V54.07h1.65V56a4.21,4.21,0,0,1,1.46-1.6,3.84,3.84,0,0,1,2-.55,3.61,3.61,0,0,1,2.93,1.37,5.5,5.5,0,0,1,1.12,3.59,6,6,0,0,1-1.13,3.84,3.63,3.63,0,0,1-3,1.43,3.87,3.87,0,0,1-1.86-.44A3.67,3.67,0,0,1,144.57,62.32ZM150,58.91a4.38,4.38,0,0,0-.7-2.64,2.26,2.26,0,0,0-1.93-1,2.44,2.44,0,0,0-2,1,4.2,4.2,0,0,0-.77,2.63,4.47,4.47,0,0,0,.74,2.71,2.37,2.37,0,0,0,2,1,2.31,2.31,0,0,0,2-1A4.48,4.48,0,0,0,150,58.91Z"></path><path class="cls-3" d="M158.35,53.83a4.65,4.65,0,0,1,3.57,1.39,6,6,0,0,1,0,7.53,5.23,5.23,0,0,1-7.11,0,6.08,6.08,0,0,1,0-7.54A4.62,4.62,0,0,1,158.35,53.83Zm0,1.4a2.56,2.56,0,0,0-2.12,1,4.86,4.86,0,0,0,0,5.4,2.72,2.72,0,0,0,4.25,0,5,5,0,0,0,0-5.43A2.56,2.56,0,0,0,158.37,55.23Z"></path><path class="cls-3" d="M170.79,54l-.06,1.74a1.62,1.62,0,0,0-.4-.09l-.36,0a2.3,2.3,0,0,0-1.93.88,4,4,0,0,0-.68,2.51v4.94h-1.82V54.07h1.64v2a3.67,3.67,0,0,1,1.15-1.63,2.68,2.68,0,0,1,1.69-.57l.36,0Z"></path><path class="cls-3" d="M176.49,54.07h1.95L181,62.28l2.67-8.21h1.79L182,63.91h-2.11Z"></path><path class="cls-3" d="M191.1,53.83a4.69,4.69,0,0,1,3.58,1.39,6.08,6.08,0,0,1,0,7.53,5.24,5.24,0,0,1-7.12,0,6.08,6.08,0,0,1,0-7.54A4.62,4.62,0,0,1,191.1,53.83Zm0,1.4a2.56,2.56,0,0,0-2.12,1,4.9,4.9,0,0,0,0,5.4,2.72,2.72,0,0,0,4.25,0,5,5,0,0,0,0-5.43A2.56,2.56,0,0,0,191.12,55.23Z"></path><path class="cls-3" d="M203.75,54.33l-.07,1.48a7,7,0,0,0-1.22-.42,6,6,0,0,0-1.27-.14,2.05,2.05,0,0,0-1.2.31.93.93,0,0,0-.45.81,1.09,1.09,0,0,0,.37.8,6.2,6.2,0,0,0,1.54.9,6.52,6.52,0,0,1,2.13,1.4,2.41,2.41,0,0,1,.58,1.63,2.48,2.48,0,0,1-1.07,2.13,4.8,4.8,0,0,1-2.91.79,7.39,7.39,0,0,1-1.33-.12,7.73,7.73,0,0,1-1.27-.37l.06-1.53a6.08,6.08,0,0,0,1.34.5,4.78,4.78,0,0,0,1.27.17,2.36,2.36,0,0,0,1.43-.39,1.29,1.29,0,0,0,.22-1.88,5.05,5.05,0,0,0-1.48-.92,7.21,7.21,0,0,1-2.12-1.41,2.31,2.31,0,0,1,.4-3.4,4.35,4.35,0,0,1,2.6-.71,8.31,8.31,0,0,1,1.21.09A7.66,7.66,0,0,1,203.75,54.33Z"></path></svg>