<svg xmlns="http://www.w3.org/2000/svg" id="Capa_1" data-name="Capa 1" viewBox="0 0 276.18 68"><defs><style>.cls-1{fill:none;}.cls-2{fill:#1d1d1b;fill-rule:evenodd;}</style></defs><rect class="cls-1" width="276.18" height="68"></rect><path class="cls-2" d="M144.86,42.91l0-13.43c-1.57-.06-6.29-.2-7.43.3a2.35,2.35,0,0,0-1.37,2.46V40c0,1.35.11,2.28,1.22,2.7s6.09.27,7.54.23m.26,2.39c.27,3.71-.06,3.6-5.84,3.6-1.84,0-8.19-.09-9.5,0v2.82c1.14.14,10.39,0,12.37,0,3.21,0,9,.52,11.08-1.47A2.43,2.43,0,0,0,154,48V26.19H129.85c-2.73.3-3.12,2.31-3.12,5.1v8.06c0,7.25,1.7,5.95,10.22,5.95Z"></path><path class="cls-2" d="M117.49,16.12a4.57,4.57,0,0,0-4,5.23,4.64,4.64,0,1,0,4-5.23m-54,14.39c-2.93.84-2.24,4.35-2.23,7.56a3.07,3.07,0,0,0,1.8,3.09,11.17,11.17,0,0,0,4.44.17c3.06-.83,2.29-4.28,2.29-7.5A3.13,3.13,0,0,0,68,30.66a11.19,11.19,0,0,0-4.55-.15m50,14.94,9.08,0,0-19.25h-9.08Zm-30.64.2c1.11.12,9.89,0,11.74,0,3.06,0,8.85.32,11.41-.43,3.86-1.13,4.45-3.85,4.44-7.27,0-3.91.1-7.94,0-11.83-.51-.13-8.2-.13-8.81,0-.13,4.08.06,8.27,0,12.37,0,2-1.55,2.68-3.34,2.91a22,22,0,0,1-5.8-.37c-.13-.79-.07-12,0-14.1,0-.89,0-.7-.13-.81-.32-.2-8.37-.13-9.4-.06ZM56.48,26.26A5.18,5.18,0,0,0,53,28.56c-1,1.51-.89,2.87-.89,5v5.72c0,2.06.22,3.36,1.3,4.55a5.39,5.39,0,0,0,3.81,1.87c2.67.13,8.61,0,11.66,0a41,41,0,0,0,5.69-.1A5.4,5.4,0,0,0,78,43.28c1-1.47.92-2.82.92-4.89V32.67c0-2.07-.14-3.26-1.24-4.56-2.2-2.62-5.52-1.95-9.65-1.95-1.81,0-10.51-.13-11.57.1M2.41,45.64h8.8c.08-4.17-.1-8.35,0-12.46.09-3.87,6.06-2.94,9.17-2.54l0,15,9.54,0,0-15c10.62-1.35,9.18.72,9.18,8.79,0,1.79-.16,4.5,0,6.18l8.77,0c.13-.88,0-8.86,0-10.45,0-3.83,0-6.29-2.65-7.93-2.49-1.54-6.1-1.21-9.42-1.21H14.73c-4.36,0-10.22-.74-11.92,4A14.3,14.3,0,0,0,2.4,35c0,3.52-.08,7.13,0,10.64"></path><path class="cls-2" d="M255.65,42.52l0,.4h5.5c1.79,0,3.27-.27,3.27-2.2V32.24c0-1.87-1.07-2.77-2.95-2.77h-5.85Zm-9.12,9V52l8.86,0V45.3h11.5c4.47,0,6.9.6,6.9-4.58V30.44c0-3.86-1.93-4.25-4.78-4.25h-22.5Z"></path><path class="cls-2" d="M197.31,30.42c-3.48.48-2.67,4.32-2.67,7.23,0,1.72.37,2.71,1.49,3.35.66.38,6.22,1.62,7-2a37.31,37.31,0,0,0,.07-4.88c0-1.73-.38-2.7-1.5-3.35-.9-.53-3.21-.54-4.36-.38m-7.48-4.16a5.25,5.25,0,0,0-3.44,2.31c-1,1.51-.88,2.93-.88,4.94v5.73c0,2.26.14,3.08,1.28,4.54,2,2.48,5.84,1.88,9.63,1.88,1.9,0,10.32.12,11.51-.1a5.36,5.36,0,0,0,3.46-2.27c1-1.45.91-2.93.91-4.9V32.67c0-2.25-.08-3.1-1.24-4.58-2-2.58-5.74-1.94-9.66-1.94-1.9,0-10.39-.13-11.57.11"></path><path class="cls-2" d="M223.23,45.66h12.41c4.18,0,7.28-1.91,7.5-6,.16-3,0-10,0-13.57-2.26-.1-6.37,0-8.82,0V38.6c0,2.32-2.57,2.88-4.84,2.88s-4.94-.52-4.94-2.88V26.08h-8.82c0,3.67-.15,10.31,0,13.57.19,4.07,3.29,6,7.5,6"></path><path class="cls-2" d="M156.66,45.69l9.51-.12c.19-2,0-9,0-11.84,0-1.37-.2-2.47.65-3.39,1.37-1.48,4.61-1,6.88-1,1.19,0,7.26.15,7.89-.09V26.18c-.89-.14-9.42,0-11.07,0-2.38,0-8.91-.28-10.7.38-3.58,1.31-3.21,5-3.21,8,0,3.61-.17,7.66,0,11.22Z"></path></svg>