<svg width="200" height="200" viewBox="0 0 200 200" fill="none" xmlns="http://www.w3.org/2000/svg"><path d="M81.7179 88.9706C81.7179 90.3485 81.7179 91.4716 81.8075 92.0641C81.8557 92.4844 81.8902 92.7531 82.3449 92.8151C82.5729 92.8523 82.803 92.8753 83.0339 92.884C83.0507 92.8821 83.0678 92.8837 83.084 92.8886C83.1002 92.8936 83.1152 92.9018 83.1281 92.9128C83.1411 92.9238 83.1516 92.9373 83.1591 92.9525C83.1666 92.9677 83.1709 92.9842 83.1717 93.0012C83.1717 93.0701 83.089 93.1183 82.9168 93.1183C82.1106 93.1183 81.1667 93.0701 81.0841 93.0701C81.0014 93.0701 80.0643 93.1183 79.6234 93.1183C79.458 93.1183 79.3891 93.1183 79.3891 93.0012C79.3891 92.9858 79.3922 92.9706 79.398 92.9563C79.4039 92.9421 79.4126 92.9292 79.4234 92.9183C79.4343 92.9075 79.4472 92.8988 79.4614 92.893C79.4756 92.8871 79.4909 92.884 79.5063 92.884C79.6532 92.8785 79.7989 92.8554 79.9403 92.8151C80.2504 92.7462 80.2986 92.4638 80.3468 92.0435C80.4088 91.4578 80.4088 90.383 80.4088 89.005V87.5788C80.4088 87.5099 80.4088 87.4961 80.3262 87.4961H74.1321C74.077 87.4961 74.0425 87.4961 74.0425 87.5788V89.005C74.0425 90.383 74.0425 91.4716 74.1114 92.0641C74.1666 92.4844 74.2148 92.7531 74.6489 92.8151C74.877 92.8516 75.107 92.8746 75.3379 92.884C75.3532 92.884 75.3685 92.8871 75.3827 92.893C75.3969 92.8988 75.4098 92.9075 75.4207 92.9183C75.4315 92.9292 75.4402 92.9421 75.4461 92.9563C75.4519 92.9706 75.455 92.9858 75.455 93.0012C75.455 93.0701 75.3861 93.1183 75.2207 93.1183C74.4008 93.1183 73.45 93.0701 73.388 93.0701C73.326 93.0701 72.3683 93.1183 71.9136 93.1183C71.762 93.1183 71.6793 93.1183 71.6793 93.0012C71.6783 92.9855 71.6806 92.9698 71.6862 92.9552C71.6917 92.9405 71.7003 92.9272 71.7114 92.9161C71.7224 92.905 71.7358 92.8964 71.7504 92.8909C71.7651 92.8854 71.7808 92.883 71.7964 92.884C71.9478 92.8776 72.098 92.8544 72.2443 92.8151C72.5337 92.7462 72.5681 92.4844 72.6301 92.0641C72.7114 91.0351 72.739 90.0025 72.7128 88.9706V86.4833C72.7128 84.2716 72.7128 83.8651 72.7128 83.4104C72.7128 82.9557 72.5957 82.7214 72.1065 82.6249C71.9399 82.6003 71.7719 82.5865 71.6035 82.5836C71.5737 82.5812 71.5454 82.5691 71.523 82.5492C71.5007 82.5293 71.4854 82.5027 71.4795 82.4734C71.4795 82.3907 71.5484 82.3562 71.7206 82.3562C72.4096 82.3562 73.3329 82.3562 73.4156 82.3562C73.4982 82.3562 74.4284 82.3562 74.8762 82.3562C75.0485 82.3562 75.1174 82.3562 75.1174 82.4734C75.1115 82.5027 75.0962 82.5293 75.0738 82.5492C75.0514 82.5691 75.0232 82.5812 74.9934 82.5836C74.868 82.5804 74.7429 82.5943 74.6213 82.6249C74.2217 82.7007 74.139 82.9074 74.1046 83.4104C74.0701 83.9134 74.1046 84.2992 74.1046 86.5177V86.8209C74.1046 86.9036 74.1046 86.9036 74.1941 86.9036H80.3537C80.4019 86.9036 80.4364 86.9036 80.4364 86.8209V86.4833C80.4364 84.2647 80.4364 83.8307 80.4364 83.3759C80.4364 82.9212 80.3399 82.6869 79.8508 82.5905C79.6842 82.5656 79.5162 82.5518 79.3478 82.5491C79.3183 82.5477 79.2904 82.5358 79.2689 82.5156C79.2475 82.4954 79.2339 82.4682 79.2307 82.4389C79.2307 82.3562 79.2996 82.3218 79.4649 82.3218C80.1539 82.3218 81.0772 82.3218 81.1461 82.3218C81.215 82.3218 82.1727 82.3218 82.6067 82.3218C82.779 82.3218 82.8616 82.3218 82.8616 82.4389C82.8541 82.4699 82.8364 82.4975 82.8115 82.5175C82.7866 82.5374 82.7558 82.5485 82.7239 82.5491C82.6008 82.5466 82.478 82.5605 82.3587 82.5905C81.966 82.6663 81.8833 82.873 81.8557 83.3759C81.8282 83.8789 81.8144 84.2372 81.8144 86.4488L81.7179 88.9706Z" fill="#1D1D1B"/><path d="M89.2004 82.1151C92.5213 82.1151 95.043 84.1821 95.043 87.4755C95.0576 88.2537 94.9133 89.0268 94.619 89.7474C94.3247 90.468 93.8866 91.121 93.3313 91.6666C92.7761 92.2121 92.1155 92.6387 91.3898 92.9203C90.6641 93.2019 89.8887 93.3326 89.1108 93.3044C88.3555 93.3465 87.5998 93.2317 86.8912 92.9669C86.1826 92.7022 85.5366 92.2934 84.994 91.7664C84.4514 91.2393 84.024 90.6055 83.7388 89.9049C83.4536 89.2043 83.3168 88.4521 83.337 87.696C83.3476 86.9421 83.5085 86.1979 83.8105 85.507C84.1124 84.8162 84.5492 84.1926 85.0953 83.6728C85.6415 83.153 86.2859 82.7474 86.9908 82.48C87.6957 82.2125 88.4469 82.0884 89.2004 82.1151ZM89.5311 92.7187C90.8608 92.7187 93.5341 92.0297 93.5341 87.8958C93.5341 84.4508 91.4672 82.6801 89.1108 82.6801C86.6442 82.6801 84.8666 84.2165 84.8666 87.3308C84.8666 90.6173 86.8647 92.7187 89.5311 92.7187Z" fill="#1D1D1B"/><path d="M107.831 91.3063C107.879 91.8093 107.976 92.581 108.582 92.7808C108.892 92.8774 109.215 92.924 109.54 92.9186C109.608 92.9186 109.657 92.953 109.657 93.015C109.657 93.077 109.519 93.1528 109.36 93.1528C109.016 93.1528 107.376 93.1528 106.832 93.0701C106.48 93.0357 106.418 92.9875 106.418 92.9186C106.419 92.8911 106.429 92.8647 106.447 92.8435C106.464 92.8223 106.488 92.8075 106.515 92.8014C106.604 92.8014 106.618 92.5672 106.584 92.2985L105.895 85.0709L102.333 92.3605C102.036 92.9875 101.94 93.1253 101.816 93.1253C101.692 93.1253 101.595 92.9875 101.313 92.4363C100.92 91.7473 99.935 89.9008 99.5767 89.1291C99.1426 88.2196 97.9507 85.8219 97.6957 85.2294H97.6268L96.993 91.6715C96.993 91.892 96.993 92.1676 96.993 92.3605C96.9923 92.4604 97.0284 92.5571 97.0945 92.6321C97.1606 92.7071 97.252 92.7551 97.3512 92.767C97.5353 92.8183 97.7252 92.8461 97.9162 92.8497C97.9644 92.8497 98.0333 92.9048 98.0333 92.9461C98.0333 92.9875 97.9369 93.0839 97.7646 93.0839C97.2066 93.0839 96.5038 93.0357 96.3867 93.0357C96.2695 93.0357 95.5461 93.0839 95.1465 93.0839C94.9949 93.0839 94.8984 93.0839 94.8984 92.9461C94.8984 92.8083 94.9536 92.8497 95.0431 92.8497C95.1912 92.8455 95.3386 92.8293 95.4841 92.8014C95.9664 92.7119 95.987 92.1951 96.0559 91.6577L97.1308 82.3494C97.1308 82.1978 97.2066 82.0945 97.2961 82.0945C97.3628 82.0972 97.4272 82.1195 97.4811 82.1588C97.5351 82.198 97.5762 82.2524 97.5993 82.315L102.064 91.1823L106.37 82.3494C106.432 82.2116 106.501 82.1083 106.604 82.1083C106.708 82.1083 106.784 82.2323 106.818 82.501L107.831 91.3063Z" fill="#1D1D1B"/><path d="M111.276 86.4832C111.276 84.2715 111.276 83.865 111.234 83.4103C111.193 82.9555 111.124 82.7213 110.628 82.6248C110.464 82.6002 110.298 82.5864 110.132 82.5835C110.102 82.5811 110.074 82.569 110.052 82.5491C110.029 82.5292 110.014 82.5026 110.008 82.4732C110.008 82.3906 110.077 82.3561 110.249 82.3561C110.938 82.3561 111.875 82.3561 111.958 82.3561C112.041 82.3561 115.148 82.3561 115.492 82.3561C115.837 82.3561 116.037 82.2872 116.181 82.2734C116.326 82.2596 116.319 82.1976 116.388 82.1976C116.457 82.1976 116.457 82.2734 116.457 82.3354C116.404 82.5625 116.365 82.7926 116.34 83.0244C116.34 83.1553 116.285 83.7892 116.25 83.9615C116.25 84.0304 116.181 84.113 116.119 84.113C116.057 84.113 116.002 84.0441 116.002 83.927C116.003 83.7559 115.975 83.586 115.92 83.424C115.816 83.1898 115.665 83.0864 114.859 82.99C114.604 82.9555 112.895 82.9417 112.723 82.9417C112.661 82.9417 112.647 82.99 112.647 83.0864V86.9655C112.647 87.0688 112.647 87.117 112.723 87.117C112.909 87.117 114.859 87.117 115.196 87.117C115.534 87.117 115.768 87.0688 115.92 86.9103C116.071 86.7519 116.085 86.7243 116.133 86.7243C116.181 86.7243 116.216 86.7588 116.216 86.8414C116.164 87.1033 116.128 87.3678 116.106 87.6338C116.064 87.9163 116.037 88.4537 116.037 88.557C116.037 88.6604 116.037 88.8257 115.899 88.8257C115.761 88.8257 115.802 88.7775 115.802 88.6948C115.81 88.5334 115.786 88.3721 115.734 88.2194C115.678 88.0196 115.548 87.8543 114.976 87.7854C114.569 87.7371 112.998 87.7165 112.743 87.7165C112.661 87.7165 112.647 87.7716 112.647 87.8198V89.0118C112.647 89.501 112.647 91.1614 112.647 91.4439C112.647 92.4085 112.943 92.5876 114.404 92.5876C114.902 92.6125 115.402 92.5614 115.885 92.4361C116.086 92.358 116.258 92.2219 116.381 92.0451C116.504 91.8684 116.571 91.6591 116.574 91.4439C116.574 91.2786 116.636 91.2303 116.719 91.2303C116.802 91.2303 116.822 91.3475 116.822 91.4439C116.783 91.9068 116.716 92.3669 116.622 92.8219C116.519 93.1871 116.367 93.1871 115.796 93.1871C114.686 93.1871 113.832 93.1526 113.226 93.1388C112.619 93.1251 112.22 93.1044 111.999 93.1044C111.999 93.1044 111.682 93.1044 111.358 93.1044C111.035 93.1044 110.745 93.1044 110.504 93.1044C110.263 93.1044 110.27 93.1044 110.27 92.9873C110.27 92.9562 110.282 92.9264 110.304 92.9044C110.326 92.8825 110.356 92.8701 110.387 92.8701C110.54 92.8578 110.692 92.8348 110.842 92.8012C111.131 92.753 111.166 92.4705 111.228 92.0502C111.316 91.0215 111.345 89.9887 111.317 88.9567L111.276 86.4832Z" fill="#1D1D1B"/><path d="M123.698 82.1151C127.026 82.1151 129.548 84.1821 129.548 87.4755C129.562 88.2537 129.418 89.0268 129.124 89.7474C128.83 90.468 128.391 91.121 127.836 91.6666C127.281 92.2121 126.62 92.6387 125.895 92.9203C125.169 93.2019 124.393 93.3326 123.616 93.3044C122.861 93.3413 122.107 93.2229 121.401 92.9563C120.694 92.6898 120.05 92.2809 119.508 91.755C118.966 91.2292 118.538 90.5975 118.25 89.8992C117.962 89.201 117.821 88.4511 117.835 87.696C117.845 86.9421 118.006 86.1979 118.308 85.507C118.61 84.8162 119.047 84.1926 119.593 83.6728C120.139 83.153 120.784 82.7474 121.489 82.48C122.194 82.2125 122.945 82.0884 123.698 82.1151ZM124.036 92.7187C125.359 92.7187 128.032 92.0297 128.032 87.8958C128.032 84.4508 125.965 82.6801 123.616 82.6801C121.149 82.6801 119.365 84.2165 119.365 87.3308C119.365 90.6173 121.363 92.7187 124.036 92.7187Z" fill="#1D1D1B"/><path d="M131.291 86.4834C131.291 84.2717 131.291 83.8652 131.257 83.4105C131.222 82.9557 131.139 82.7215 130.657 82.625C130.488 82.6004 130.318 82.5866 130.147 82.5837C130.12 82.5796 130.094 82.5666 130.074 82.5468C130.054 82.5269 130.041 82.5012 130.037 82.4735C130.037 82.3908 130.099 82.3563 130.271 82.3563C130.96 82.3563 131.863 82.3563 131.98 82.3563C132.297 82.3563 133.406 82.3563 134.081 82.3563C135.976 82.3563 136.658 82.942 136.906 83.1624C137.364 83.6007 137.63 84.2029 137.644 84.8367C137.644 86.9037 136.093 88.2472 133.827 88.2472C133.744 88.2472 133.496 88.2472 133.406 88.2472C133.369 88.2446 133.334 88.2296 133.307 88.2046C133.279 88.1796 133.261 88.1461 133.255 88.1094C133.255 87.9923 133.344 87.9647 133.647 87.9647C135.239 87.9647 136.403 86.9519 136.403 85.6566C136.424 85.2562 136.362 84.8558 136.219 84.4809C136.077 84.1061 135.858 83.765 135.577 83.4794C135.315 83.2249 135 83.0312 134.654 82.9121C134.309 82.793 133.942 82.7515 133.579 82.7904C133.303 82.7997 133.029 82.832 132.759 82.8868C132.669 82.8868 132.642 83.0109 132.642 83.1556V88.9707C132.642 90.3486 132.641 91.4717 132.704 92.0642C132.759 92.4845 132.841 92.7532 133.289 92.8152C133.517 92.8529 133.747 92.8759 133.978 92.8841C133.993 92.8841 134.008 92.8872 134.022 92.8931C134.036 92.8991 134.048 92.9078 134.059 92.9188C134.069 92.9298 134.077 92.9428 134.082 92.957C134.087 92.9711 134.089 92.9862 134.088 93.0013C134.088 93.0702 134.026 93.1184 133.861 93.1184C133.055 93.1184 132.077 93.0702 132.008 93.0702C131.939 93.0702 131.009 93.1184 130.547 93.1184C130.395 93.1184 130.313 93.1184 130.313 93.0013C130.313 92.9859 130.316 92.9706 130.322 92.9564C130.328 92.9422 130.336 92.9293 130.347 92.9184C130.358 92.9076 130.371 92.8989 130.385 92.893C130.399 92.8872 130.414 92.8841 130.43 92.8841C130.584 92.8786 130.736 92.8554 130.885 92.8152C131.174 92.7463 131.202 92.4845 131.27 92.0642C131.352 91.0352 131.379 90.0026 131.353 88.9707L131.291 86.4834Z" fill="#1D1D1B"/><path d="M141.02 82.6042C141.206 82.1357 141.275 82.053 141.371 82.053C141.468 82.053 141.571 82.2528 141.723 82.5697C141.991 83.176 144.361 89.0738 145.264 91.2373C145.808 92.5188 146.215 92.6979 146.532 92.8013C146.719 92.8579 146.914 92.8857 147.11 92.8839C147.2 92.8839 147.296 92.9184 147.296 93.0011C147.296 93.0838 147.131 93.1182 146.966 93.1182C146.8 93.1182 145.657 93.1182 144.63 93.1182C144.341 93.1182 144.113 93.1182 144.113 93.008C144.113 92.8977 144.113 92.946 144.21 92.9115C144.245 92.8978 144.278 92.8765 144.304 92.849C144.331 92.8216 144.351 92.7886 144.364 92.7525C144.376 92.7164 144.38 92.678 144.376 92.64C144.373 92.602 144.36 92.5653 144.341 92.5326L143.018 89.2392C142.983 89.1703 142.963 89.1496 142.88 89.1496H139.476C139.441 89.1495 139.406 89.1609 139.378 89.182C139.349 89.2031 139.328 89.2328 139.318 89.2667L138.477 91.5542C138.354 91.8619 138.282 92.1877 138.264 92.5188C138.264 92.8013 138.512 92.8977 138.767 92.8977H138.905C139.022 92.8977 139.056 92.9528 139.056 93.0149C139.056 93.0769 138.967 93.132 138.836 93.132C138.477 93.132 137.671 93.0838 137.506 93.0838C137.341 93.0838 136.617 93.132 136.018 93.132C135.825 93.132 135.728 93.132 135.728 93.0149C135.732 92.9814 135.748 92.9505 135.774 92.9287C135.799 92.9069 135.832 92.8958 135.866 92.8977C136.009 92.896 136.152 92.8845 136.293 92.8633C136.982 92.7806 137.258 92.2776 137.54 91.5542L141.02 82.6042ZM142.666 88.5502C142.728 88.5502 142.728 88.5157 142.715 88.4468L141.247 84.5334C141.171 84.3198 141.082 84.3198 141.006 84.5334L139.628 88.4468C139.628 88.5157 139.628 88.5502 139.669 88.5502H142.666Z" fill="#1D1D1B"/><path d="M150.39 88.9705C150.39 90.3485 150.39 91.4715 150.459 92.064C150.507 92.4843 150.583 92.753 151.024 92.815C151.252 92.8519 151.482 92.8749 151.713 92.8839C151.729 92.8819 151.745 92.8834 151.761 92.8885C151.776 92.8935 151.791 92.9019 151.803 92.9131C151.814 92.9243 151.824 92.938 151.83 92.9533C151.835 92.9685 151.838 92.9848 151.837 93.0011C151.837 93.07 151.761 93.1182 151.596 93.1182C150.79 93.1182 149.853 93.07 149.763 93.07C149.673 93.07 148.674 93.1182 148.24 93.1182C148.068 93.1182 147.999 93.1182 147.999 93.0011C148 92.9859 148.004 92.9712 148.011 92.9576C148.017 92.9441 148.027 92.9321 148.039 92.9224C148.05 92.9127 148.064 92.9055 148.078 92.9013C148.093 92.897 148.108 92.8958 148.123 92.8977C148.27 92.893 148.415 92.8722 148.557 92.8357C148.86 92.7668 148.943 92.4843 148.991 92.064C149.06 91.4715 149.06 90.3485 149.06 88.9705V82.9762L146.931 83.0107C146.008 83.0107 145.65 83.1278 145.429 83.4585C145.339 83.6035 145.261 83.7556 145.195 83.9133C145.195 84.0304 145.112 84.0442 145.05 84.0442C145.036 84.0442 145.022 84.0413 145.009 84.0357C144.996 84.0301 144.984 84.0218 144.975 84.0115C144.965 84.0012 144.957 83.9889 144.953 83.9756C144.948 83.9623 144.946 83.9481 144.947 83.9339C144.947 83.7755 145.25 82.5077 145.264 82.3837C145.278 82.2597 145.367 82.115 145.415 82.115C145.64 82.1896 145.871 82.2472 146.104 82.2872C146.532 82.3355 147.097 82.3561 147.269 82.3561H152.801C153.154 82.3595 153.506 82.3365 153.856 82.2872C154.076 82.2528 154.207 82.2183 154.276 82.2183C154.345 82.2183 154.345 82.301 154.345 82.3837C154.345 82.8247 154.297 83.8513 154.297 84.0166C154.299 84.0374 154.298 84.0587 154.293 84.079C154.287 84.0993 154.278 84.1184 154.265 84.1351C154.252 84.1517 154.236 84.1657 154.218 84.1761C154.2 84.1865 154.18 84.1932 154.159 84.1957C154.09 84.1957 154.062 84.1544 154.042 83.9477V83.7961C153.986 83.3621 153.67 83.0382 152.264 83.0107L150.411 82.9762L150.39 88.9705Z" fill="#1D1D1B"/><path d="M157.411 88.9707C157.411 90.3486 157.411 91.4717 157.48 92.0642C157.528 92.4845 157.583 92.7532 158.017 92.8152C158.245 92.8524 158.475 92.8754 158.706 92.8841C158.721 92.8841 158.736 92.8872 158.75 92.8931C158.764 92.8991 158.776 92.9078 158.786 92.9188C158.797 92.9298 158.805 92.9428 158.81 92.957C158.815 92.9711 158.817 92.9862 158.816 93.0013C158.816 93.0702 158.754 93.1184 158.582 93.1184C157.762 93.1184 156.804 93.0702 156.735 93.0702C156.667 93.0702 155.73 93.1184 155.275 93.1184C155.123 93.1184 155.041 93.1184 155.041 93.0013C155.041 92.9859 155.044 92.9706 155.049 92.9564C155.055 92.9422 155.064 92.9293 155.075 92.9184C155.086 92.9076 155.099 92.8989 155.113 92.893C155.127 92.8872 155.142 92.8841 155.158 92.8841C155.311 92.8775 155.464 92.8544 155.612 92.8152C155.895 92.7463 155.95 92.4845 155.998 92.0642C156.067 91.4717 156.081 90.3486 156.081 88.9707V86.4834C156.081 84.2717 156.081 83.8652 156.046 83.4105C156.012 82.9557 155.895 82.7215 155.578 82.6388C155.428 82.6079 155.276 82.5894 155.123 82.5837C155.093 82.5837 155.065 82.5724 155.043 82.5519C155.021 82.5314 155.008 82.5033 155.006 82.4735C155.006 82.3908 155.075 82.3563 155.247 82.3563C155.73 82.3563 156.625 82.3563 156.735 82.3563C156.846 82.3563 157.762 82.3563 158.217 82.3563C158.382 82.3563 158.451 82.3563 158.451 82.4735C158.445 82.5028 158.43 82.5294 158.408 82.5493C158.385 82.5692 158.357 82.5813 158.327 82.5837C158.204 82.5811 158.081 82.595 157.962 82.625C157.562 82.7008 157.48 82.9075 157.438 83.4105C157.397 83.9134 157.438 84.2717 157.438 86.4834L157.411 88.9707ZM159.292 80.0689C159.374 80.2204 159.292 80.2687 159.23 80.2687C159.06 80.2491 158.889 80.2491 158.72 80.2687C157.844 80.389 156.987 80.6205 156.171 80.9577C156.089 80.9955 156.004 81.0233 155.916 81.0403C155.897 81.0384 155.878 81.0308 155.864 81.0185C155.849 81.0062 155.838 80.9898 155.833 80.9714C155.833 80.9232 155.833 80.8888 155.95 80.8405C156.556 80.4203 158.12 79.4626 158.231 79.4074C158.52 79.2421 158.616 79.1938 158.706 79.1938C158.796 79.1938 158.789 79.1938 158.871 79.3454C158.954 79.497 159.106 79.7382 159.292 80.0689Z" fill="#1D1D1B"/><path d="M163.825 82.6042C164.011 82.1357 164.073 82.053 164.177 82.053C164.28 82.053 164.376 82.2528 164.528 82.5697C164.797 83.176 167.167 89.0738 168.069 91.2373C168.614 92.5188 169.013 92.6979 169.33 92.8013C169.523 92.858 169.722 92.8859 169.923 92.8839C170.005 92.8839 170.109 92.9184 170.109 93.0011C170.109 93.0838 169.937 93.1182 169.771 93.1182C169.606 93.1182 168.462 93.1182 167.435 93.1182C167.146 93.1182 166.919 93.1182 166.919 93.008C166.919 92.8977 166.919 92.946 167.022 92.9115C167.057 92.8971 167.089 92.8753 167.115 92.8475C167.14 92.8198 167.16 92.7867 167.172 92.7507C167.183 92.7146 167.187 92.6765 167.183 92.6388C167.178 92.6012 167.166 92.5649 167.146 92.5326L165.844 89.2392C165.809 89.1703 165.796 89.1496 165.706 89.1496H162.302C162.268 89.1515 162.234 89.1636 162.206 89.1844C162.178 89.2052 162.156 89.2339 162.144 89.2667L161.31 91.5542C161.182 91.8606 161.107 92.187 161.09 92.5188C161.09 92.8013 161.345 92.8977 161.593 92.8977H161.731C161.841 92.8977 161.875 92.9528 161.875 93.0149C161.875 93.0769 161.8 93.132 161.662 93.132C161.31 93.132 160.504 93.0838 160.332 93.0838C160.16 93.0838 159.443 93.132 158.844 93.132C158.658 93.132 158.547 93.132 158.547 93.0149C158.553 92.9808 158.57 92.9498 158.597 92.9282C158.624 92.9065 158.658 92.8956 158.692 92.8977C158.837 92.8957 158.982 92.8842 159.126 92.8633C159.815 92.7806 160.084 92.2776 160.373 91.5542L163.825 82.6042ZM165.493 88.5502C165.561 88.5502 165.561 88.5157 165.541 88.4468L164.08 84.5334C163.997 84.3175 163.915 84.3175 163.832 84.5334L162.454 88.4468C162.454 88.5157 162.454 88.5502 162.502 88.5502H165.493Z" fill="#1D1D1B"/><path d="M58.5266 92.2915C58.9606 91.0995 59.0984 90.879 59.3189 90.879C59.5394 90.879 59.6772 91.0651 60.1112 92.1812C60.6555 93.5592 66.3122 108.455 68.5238 113.947C69.826 117.157 70.8664 117.736 71.6312 117.956C72.097 118.103 72.583 118.175 73.0712 118.17C73.2848 118.17 73.4364 118.211 73.4364 118.384C73.4364 118.556 73.1056 118.673 72.7474 118.673C72.2031 118.673 69.5711 118.673 67.077 118.604C66.388 118.604 65.9952 118.604 65.9952 118.349C65.9952 118.094 66.1055 118.136 66.2502 118.101C66.3948 118.067 66.6842 117.702 66.4706 117.123L63.0739 108.242C63.0499 108.175 63.0045 108.117 62.9447 108.079C62.885 108.04 62.8141 108.022 62.7432 108.028H54.9645C54.8801 108.029 54.7983 108.058 54.7321 108.11C54.666 108.162 54.6192 108.235 54.5993 108.317L52.4634 114.732C52.1608 115.504 51.9885 116.322 51.9536 117.15C51.9536 117.874 52.7183 118.198 53.3315 118.198H53.6967C53.9516 118.198 54.055 118.273 54.055 118.411C54.055 118.549 53.8345 118.701 53.5176 118.701C52.6494 118.701 51.0923 118.597 50.7065 118.597C50.3206 118.597 48.3157 118.701 46.6208 118.701C46.1522 118.701 45.9318 118.632 45.9318 118.411C45.9318 118.191 46.0696 118.198 46.2556 118.198C46.4416 118.198 47.0135 118.163 47.3029 118.129C48.9633 117.908 49.6799 116.537 50.3344 114.732L58.5266 92.2915ZM62.2816 106.76C62.4607 106.76 62.4607 106.65 62.4263 106.498L58.9813 96.7561C58.7953 96.2118 58.623 96.2118 58.437 96.7561L55.2814 106.464C55.2056 106.65 55.2814 106.726 55.3847 106.726L62.2816 106.76Z" fill="#1D1D1B"/><path d="M76.5367 110.357C76.5367 114.601 76.5988 116.331 77.1431 116.834C77.6874 117.336 78.7691 117.523 81.1117 117.523C82.6757 117.523 83.9916 117.523 84.7082 116.641C85.0717 116.166 85.3088 115.606 85.3972 115.015C85.3972 114.808 85.535 114.643 85.7072 114.643C85.8795 114.643 85.907 114.773 85.907 115.077C85.8397 116.049 85.6922 117.015 85.4661 117.963C85.2594 118.652 85.1629 118.742 83.5714 118.742C81.4355 118.742 79.7681 118.742 78.3764 118.646C76.9846 118.549 75.9993 118.577 75.1174 118.577C74.9865 118.577 74.4698 118.577 73.8979 118.577C73.326 118.577 72.6439 118.652 72.1685 118.652C71.8654 118.652 71.7 118.577 71.7 118.411C71.6981 118.38 71.7028 118.348 71.7138 118.318C71.7248 118.289 71.7418 118.262 71.7639 118.239C71.7859 118.216 71.8125 118.198 71.8418 118.187C71.8711 118.175 71.9026 118.169 71.9343 118.17C72.2521 118.169 72.5687 118.132 72.8782 118.06C73.4501 117.922 73.519 117.371 73.6568 116.53C73.8251 114.468 73.8826 112.398 73.829 110.329V105.21C73.829 100.725 73.829 99.9119 73.7601 99.0093C73.6912 98.1067 73.519 97.5555 72.5406 97.4177C72.2021 97.3767 71.8618 97.3537 71.5209 97.3488C71.4621 97.3394 71.4079 97.3117 71.3658 97.2696C71.3237 97.2276 71.296 97.1733 71.2866 97.1146C71.2866 96.9423 71.4175 96.8734 71.7551 96.8734C73.1331 96.8734 74.9727 96.9423 75.145 96.9423C75.3172 96.9423 77.522 96.8734 78.4384 96.8734C78.7415 96.8734 78.9138 96.9423 78.9138 97.1146C78.9138 97.2868 78.776 97.3144 78.6795 97.3144C78.4728 97.3144 78.0319 97.3488 77.6943 97.3833C76.8123 97.5555 76.6401 97.9896 76.5781 99.0093C76.5161 100.029 76.5781 100.739 76.5781 105.21L76.5367 110.357Z" fill="#1D1D1B"/><path d="M87.8983 105.21C87.8983 100.725 87.8983 99.9118 87.8294 99.0092C87.7605 98.1066 87.5813 97.5554 86.603 97.4176C86.2668 97.3766 85.9287 97.3536 85.5901 97.3487C85.5309 97.3387 85.4762 97.3109 85.4331 97.2691C85.3901 97.2273 85.3607 97.1733 85.349 97.1144C85.349 96.9422 85.4868 96.8733 85.8244 96.8733C87.2024 96.8733 89.1109 96.9422 89.2694 96.9422C89.4278 96.9422 95.7183 96.9766 96.4004 96.9422C96.9723 96.9077 97.5166 96.8044 97.7784 96.7699C98.0402 96.7355 98.054 96.639 98.1918 96.639C98.3296 96.639 98.3296 96.7699 98.3296 96.9077C98.3296 97.0455 98.1574 97.4521 98.0885 98.2857C98.054 98.5613 97.9851 99.8429 97.9231 100.18C97.9231 100.318 97.7784 100.491 97.6475 100.491C97.5166 100.491 97.4064 100.353 97.4064 100.118C97.4087 99.7717 97.3528 99.427 97.241 99.0987C97.0343 98.6233 96.738 98.4097 95.1051 98.2168C94.5953 98.1479 91.1365 98.1135 90.792 98.1135C90.6611 98.1135 90.6267 98.2168 90.6267 98.4166V106.216C90.6267 106.423 90.6267 106.526 90.792 106.526C91.171 106.526 95.1051 106.526 95.7804 106.464C96.4556 106.402 96.931 106.354 97.241 106.051C97.4408 105.851 97.5786 105.679 97.682 105.679C97.7853 105.679 97.8542 105.748 97.8542 105.92C97.7456 106.446 97.6651 106.977 97.6131 107.511C97.5442 108.09 97.4822 109.172 97.4822 109.379C97.4822 109.585 97.4064 109.916 97.2066 109.916C97.0068 109.916 96.9999 109.819 96.9999 109.647C97.0154 109.327 96.9686 109.006 96.8621 108.703C96.7656 108.29 96.4969 107.952 95.3394 107.815C94.5264 107.711 91.3432 107.677 90.8334 107.677C90.8052 107.672 90.7762 107.674 90.7489 107.683C90.7216 107.691 90.6968 107.706 90.6766 107.727C90.6564 107.747 90.6413 107.772 90.6326 107.799C90.6239 107.826 90.6219 107.855 90.6267 107.883V110.295C90.6267 111.273 90.6267 114.636 90.6267 115.207C90.6956 117.143 91.2399 117.516 94.1888 117.516C95.1928 117.565 96.1986 117.463 97.1721 117.212C97.5747 117.053 97.9207 116.777 98.1661 116.42C98.4115 116.062 98.5451 115.641 98.5501 115.207C98.619 114.863 98.6879 114.766 98.8602 114.766C99.0324 114.766 99.06 115.008 99.06 115.207C98.9761 116.133 98.8404 117.053 98.6535 117.963C98.4468 118.707 98.1436 118.707 96.993 118.707C94.7469 118.707 93.0244 118.645 91.798 118.611C90.5716 118.577 89.731 118.542 89.3176 118.542C89.2556 118.542 88.6768 118.542 88.0361 118.542C87.3953 118.542 86.7821 118.618 86.3067 118.618C86.0035 118.618 85.8313 118.542 85.8313 118.377C85.8293 118.345 85.8341 118.312 85.8455 118.282C85.8569 118.252 85.8746 118.225 85.8974 118.202C85.9203 118.179 85.9477 118.161 85.9778 118.15C86.008 118.138 86.0403 118.134 86.0724 118.136C86.3777 118.108 86.6813 118.065 86.9819 118.005C87.5607 117.901 87.6227 117.316 87.7605 116.475C87.9356 114.413 87.9954 112.343 87.9396 110.274L87.8983 105.21Z" fill="#1D1D1B"/><path d="M124.863 114.939C124.959 115.951 125.166 117.516 126.386 117.922C127.013 118.111 127.666 118.201 128.322 118.191C128.351 118.187 128.381 118.189 128.409 118.198C128.438 118.206 128.464 118.221 128.486 118.241C128.508 118.26 128.526 118.284 128.538 118.311C128.55 118.338 128.556 118.368 128.556 118.397C128.556 118.57 128.287 118.673 127.95 118.673C127.261 118.673 123.946 118.597 122.858 118.501C122.169 118.432 122.01 118.329 122.01 118.191C122.012 118.135 122.033 118.081 122.07 118.039C122.106 117.996 122.155 117.967 122.21 117.956C122.382 117.956 122.417 117.481 122.355 116.937L120.922 102.33H120.86L113.674 117.075C113.054 118.329 112.888 118.597 112.619 118.597C112.351 118.597 112.178 118.329 111.6 117.274C110.814 115.855 108.844 112.155 108.107 110.598C107.225 108.765 104.813 103.915 104.31 102.73H104.172L103.015 115.752C103.015 116.193 103.015 116.737 103.015 117.212C103.011 117.409 103.079 117.599 103.206 117.749C103.333 117.899 103.51 117.997 103.704 118.025C104.08 118.125 104.466 118.18 104.855 118.191C104.958 118.191 105.096 118.301 105.096 118.397C105.096 118.494 104.889 118.673 104.551 118.673C103.435 118.673 102.009 118.57 101.795 118.57C101.582 118.57 100.094 118.673 99.2806 118.673C98.9774 118.673 98.7776 118.597 98.7776 118.397C98.7776 118.198 98.9085 118.191 99.0739 118.191C99.372 118.179 99.669 118.147 99.9627 118.094C100.948 117.922 100.975 116.875 101.113 115.793L103.284 96.9629C103.284 96.6597 103.456 96.453 103.628 96.453C103.761 96.4601 103.889 96.5055 103.996 96.5838C104.104 96.662 104.187 96.7698 104.234 96.894L113.253 114.808L121.942 96.9353C122.079 96.6666 122.21 96.4599 122.41 96.4599C122.61 96.4599 122.782 96.701 122.851 97.2385L124.863 114.939Z" fill="#1D1D1B"/><path d="M136.266 97.4382C136.645 96.4874 136.769 96.3152 136.955 96.3152C137.141 96.3152 137.361 96.7286 137.644 97.3693C138.181 98.5889 142.97 110.495 144.795 114.863C145.884 117.447 146.704 117.819 147.345 118.025C147.732 118.137 148.133 118.192 148.537 118.191C148.702 118.191 148.909 118.266 148.909 118.432C148.909 118.597 148.564 118.673 148.22 118.673C147.875 118.673 145.581 118.673 143.507 118.597C142.935 118.597 142.46 118.597 142.46 118.397C142.46 118.198 142.522 118.266 142.66 118.191C142.733 118.164 142.8 118.122 142.855 118.066C142.911 118.011 142.953 117.944 142.98 117.87C143.006 117.796 143.016 117.717 143.008 117.64C143 117.562 142.975 117.486 142.935 117.419L140.248 110.798C140.186 110.667 140.152 110.632 139.986 110.632H133.096C133.027 110.631 132.958 110.653 132.903 110.696C132.848 110.738 132.809 110.799 132.793 110.867L131.091 115.483C130.874 116.105 130.759 116.76 130.754 117.419C130.754 117.991 131.27 118.191 131.78 118.191H132.049C132.283 118.191 132.359 118.301 132.359 118.432C132.359 118.563 132.187 118.673 131.911 118.673C131.222 118.673 129.576 118.57 129.231 118.57C128.887 118.57 127.433 118.673 126.213 118.673C125.841 118.673 125.635 118.597 125.635 118.432C125.641 118.364 125.674 118.302 125.725 118.257C125.776 118.212 125.842 118.189 125.91 118.191C126.11 118.191 126.551 118.156 126.792 118.129C128.17 117.956 128.721 116.937 129.3 115.483L136.266 97.4382ZM139.594 109.44C139.724 109.44 139.724 109.378 139.69 109.241L136.741 101.338C136.569 100.897 136.403 100.897 136.231 101.338L133.51 109.22C133.51 109.358 133.51 109.42 133.613 109.42L139.594 109.44Z" fill="#1D1D1B"/><path d="M151.424 114.732C151.486 117.109 151.754 117.819 152.567 118.025C153.059 118.131 153.56 118.187 154.062 118.191C154.094 118.191 154.125 118.197 154.154 118.209C154.183 118.221 154.209 118.239 154.231 118.262C154.252 118.284 154.269 118.311 154.281 118.34C154.292 118.369 154.298 118.4 154.297 118.432C154.297 118.597 154.097 118.673 153.759 118.673C152.064 118.673 150.872 118.57 150.604 118.57C150.335 118.57 149.081 118.673 147.717 118.673C147.414 118.673 147.248 118.673 147.248 118.432C147.247 118.4 147.253 118.369 147.264 118.34C147.275 118.311 147.293 118.284 147.314 118.262C147.336 118.239 147.362 118.221 147.391 118.209C147.42 118.197 147.451 118.191 147.483 118.191C147.894 118.187 148.304 118.132 148.702 118.025C149.446 117.819 149.556 117.04 149.556 114.429V97.8929C149.556 96.7354 149.722 96.4323 149.963 96.4323C150.204 96.4323 150.81 97.011 151.107 97.3142C151.589 97.7896 155.93 102.399 160.546 107.146C163.495 110.205 166.678 113.63 167.594 114.58L167.291 100.111C167.291 98.2512 167.091 97.6104 166.168 97.4382C165.688 97.3544 165.202 97.3083 164.714 97.3004C164.68 97.3018 164.645 97.2955 164.614 97.2821C164.582 97.2687 164.553 97.2484 164.53 97.2228C164.507 97.1971 164.49 97.1667 164.48 97.1336C164.47 97.1006 164.468 97.0658 164.473 97.0317C164.473 96.8594 164.714 96.825 165.052 96.825C166.43 96.825 167.808 96.8939 168.173 96.8939C168.538 96.8939 169.496 96.825 170.722 96.825C171.019 96.825 171.26 96.8594 171.26 97.0317C171.244 97.1088 171.201 97.1779 171.139 97.227C171.078 97.2761 171.001 97.302 170.922 97.3004C170.691 97.2994 170.46 97.3225 170.233 97.3693C169.255 97.5691 169.193 98.1478 169.193 99.8772L169.11 116.799C169.11 118.707 169.11 118.866 168.883 118.866C168.573 118.866 168.269 118.632 166.609 117.102C166.299 116.826 161.993 112.589 158.837 109.296C155.392 105.672 152.023 102.144 151.107 101.131L151.424 114.732Z" fill="#1D1D1B"/><path d="M180.733 92.2915C181.167 91.0995 181.312 90.879 181.525 90.879C181.739 90.879 181.884 91.0651 182.325 92.1812C182.862 93.5592 188.526 108.455 190.737 113.947C192.033 117.157 193.08 117.736 193.838 117.956C194.304 118.102 194.789 118.174 195.278 118.17C195.498 118.17 195.643 118.211 195.643 118.384C195.643 118.556 195.319 118.673 194.954 118.673C194.403 118.673 191.771 118.673 189.283 118.604C188.594 118.604 188.202 118.604 188.202 118.349C188.202 118.094 188.305 118.136 188.45 118.101C188.594 118.067 188.884 117.702 188.67 117.123L185.315 108.242C185.29 108.175 185.244 108.119 185.185 108.08C185.125 108.042 185.055 108.024 184.984 108.028H177.198C177.115 108.031 177.034 108.061 176.968 108.113C176.903 108.165 176.855 108.237 176.833 108.317L174.67 114.732C174.371 115.505 174.198 116.322 174.16 117.15C174.16 117.874 174.925 118.198 175.538 118.198H175.896C176.151 118.198 176.261 118.273 176.261 118.411C176.261 118.549 176.041 118.701 175.717 118.701C174.856 118.701 173.299 118.597 172.906 118.597C172.513 118.597 170.522 118.701 168.82 118.701C168.359 118.701 168.131 118.632 168.131 118.411C168.131 118.191 168.269 118.198 168.462 118.198C168.655 118.198 169.213 118.163 169.502 118.129C171.17 117.908 171.886 116.537 172.534 114.732L180.733 92.2915ZM184.495 106.76C184.667 106.76 184.667 106.65 184.633 106.498L181.188 96.7561C181.002 96.2118 180.823 96.2118 180.637 96.7561L177.488 106.464C177.412 106.65 177.488 106.726 177.591 106.726L184.495 106.76Z" fill="#1D1D1B"/><path d="M24.9174 80.8474C21.0487 80.8474 17.2669 81.9946 14.0502 84.144C10.8335 86.2933 8.32639 89.3482 6.8459 92.9224C5.36541 96.4967 4.97805 100.43 5.73279 104.224C6.48754 108.018 8.3505 111.504 11.0861 114.239C13.8217 116.975 17.307 118.838 21.1014 119.593C24.8957 120.347 28.8287 119.96 32.4029 118.479C35.9771 116.999 39.0321 114.492 41.1814 111.275C43.3307 108.058 44.4779 104.277 44.4779 100.408C44.4707 95.2224 42.4075 90.2513 38.7408 86.5846C35.074 82.9179 30.103 80.8547 24.9174 80.8474ZM24.9174 117.64C21.5107 117.64 18.1805 116.629 15.3478 114.737C12.5152 112.844 10.3075 110.154 9.00379 107.006C7.70008 103.859 7.35897 100.396 8.0236 97.0544C8.68822 93.7131 10.3287 90.644 12.7377 88.235C15.1466 85.8261 18.2158 84.1856 21.5571 83.521C24.8983 82.8563 28.3617 83.1974 31.5091 84.5011C34.6565 85.8049 37.3467 88.0126 39.2394 90.8452C41.132 93.6778 42.1423 97.0081 42.1423 100.415C42.1423 102.677 41.6967 104.917 40.8311 107.006C39.9655 109.096 38.6967 110.995 37.0972 112.595C35.4978 114.194 33.5989 115.463 31.5091 116.328C29.4193 117.194 27.1794 117.64 24.9174 117.64Z" fill="#1D1D1B"/><path d="M30.0916 94.9717L28.9203 101.476C28.9203 101.586 28.9203 101.648 28.9203 101.648H31.5385C31.5936 101.648 31.5936 101.586 31.5729 101.476L30.3258 94.9717C30.2363 94.6134 30.1605 94.6134 30.0916 94.9717Z" fill="#1D1D1B"/><path d="M24.9174 84.5542C21.7832 84.5542 18.7194 85.4836 16.1134 87.2249C13.5074 88.9661 11.4762 91.4411 10.2768 94.3367C9.07742 97.2323 8.7636 100.419 9.37506 103.493C9.98651 106.567 11.4958 109.39 13.712 111.606C15.9282 113.823 18.7518 115.332 21.8258 115.943C24.8998 116.555 28.0861 116.241 30.9817 115.042C33.8773 113.842 36.3523 111.811 38.0936 109.205C39.8348 106.599 40.7642 103.535 40.7642 100.401C40.7642 98.32 40.3543 96.2593 39.558 94.3367C38.7616 92.4141 37.5943 90.6671 36.1228 89.1956C34.6513 87.7241 32.9043 86.5568 30.9817 85.7605C29.0591 84.9641 26.9984 84.5542 24.9174 84.5542ZM25.0621 109.22C24.3731 109.22 23.567 109.137 23.4981 109.137C23.4292 109.137 22.6231 109.22 22.2441 109.22C22.1063 109.22 22.0512 109.172 22.0512 109.027C22.0512 108.883 22.0512 108.827 22.1545 108.827C22.2816 108.816 22.4053 108.781 22.5197 108.724C22.7746 108.607 22.8229 108.138 22.8711 107.436C22.9262 106.457 22.9262 104.68 22.9262 102.392V100.029C22.9262 99.9118 22.8918 99.8843 22.8504 99.8843H17.5865C17.5383 99.8843 17.5107 99.8843 17.5107 100.029V102.399C17.5107 104.687 17.5107 106.492 17.5727 107.477C17.6141 108.166 17.6623 108.614 18.0344 108.731C18.2213 108.783 18.4128 108.818 18.6062 108.834C18.682 108.834 18.7096 108.951 18.7096 109.034C18.712 109.061 18.7082 109.089 18.6985 109.114C18.6887 109.14 18.6733 109.162 18.6534 109.181C18.6334 109.2 18.6095 109.214 18.5834 109.221C18.5574 109.229 18.5298 109.231 18.5029 109.227C17.8139 109.227 16.994 109.144 16.9389 109.144C16.8837 109.144 16.0638 109.22 15.6918 109.22C15.554 109.22 15.4851 109.172 15.4851 109.027C15.4851 108.883 15.4851 108.827 15.5884 108.827C15.7219 108.815 15.8524 108.78 15.9743 108.724C16.2154 108.607 16.243 108.166 16.305 107.47C16.3808 106.464 16.3808 104.625 16.3808 102.33V98.1549C16.3808 94.4826 16.3808 93.8074 16.3808 93.0564C16.3808 92.3054 16.2774 91.8575 15.864 91.7473C15.7219 91.7117 15.5764 91.6909 15.43 91.6853C15.3886 91.6853 15.3335 91.575 15.3335 91.4924C15.3335 91.4097 15.3886 91.2994 15.5402 91.2994C16.1052 91.2994 16.9182 91.3546 16.9802 91.3546C17.0422 91.3546 17.807 91.3063 18.1859 91.3063C18.3306 91.3063 18.3857 91.3614 18.3857 91.4992C18.3857 91.637 18.3306 91.6922 18.2824 91.6922C18.1756 91.6885 18.0695 91.7097 17.9723 91.7542C17.6279 91.8851 17.559 92.2227 17.5245 93.0633C17.4901 93.9038 17.5245 94.5377 17.5245 98.2169V98.7268C17.5245 98.8646 17.5245 98.8646 17.6003 98.8646H22.8642C22.9055 98.8646 22.94 98.8646 22.94 98.7268V98.1963C22.94 94.517 22.94 93.7936 22.9055 93.0426C22.8711 92.2916 22.8229 91.8437 22.4095 91.7335C22.2694 91.6989 22.1264 91.6781 21.9823 91.6715C21.9203 91.6715 21.872 91.5613 21.872 91.4786C21.872 91.3959 21.9341 91.2857 22.0787 91.2857C22.6368 91.2857 23.4567 91.3408 23.5119 91.3408C23.567 91.3408 24.3731 91.3063 24.7451 91.3063C24.8898 91.3063 24.9656 91.3614 24.9656 91.4992C24.9656 91.637 24.9036 91.6922 24.8485 91.6922C24.7394 91.6874 24.6308 91.7087 24.5316 91.7542C24.2008 91.8851 24.1319 92.2227 24.1044 93.0633C24.0768 93.9038 24.1044 94.4895 24.1044 98.1618V102.33C24.1044 104.618 24.1044 106.464 24.1733 107.47C24.2146 108.159 24.2422 108.607 24.628 108.724C24.8129 108.775 25.002 108.81 25.193 108.827C25.2757 108.827 25.3101 108.945 25.3101 109.027C25.3101 109.11 25.2068 109.22 25.0621 109.22ZM35.1903 109.22C34.9974 109.22 34.0672 109.22 33.1922 109.172C32.9511 109.172 32.7375 109.172 32.7375 109C32.7375 108.827 32.7375 108.889 32.827 108.827C32.9166 108.765 33.0268 108.579 32.9511 108.194L31.8073 102.75C31.8073 102.64 31.766 102.613 31.6971 102.613H28.7826C28.7344 102.613 28.6862 102.668 28.6655 102.806L27.9765 106.602C27.8664 107.126 27.8042 107.658 27.7905 108.194C27.7905 108.669 28.011 108.827 28.2246 108.827H28.3417C28.4381 108.827 28.4726 108.917 28.4726 109.027C28.4775 109.054 28.476 109.081 28.468 109.107C28.4601 109.132 28.446 109.156 28.427 109.175C28.408 109.194 28.3846 109.208 28.359 109.216C28.3333 109.223 28.3061 109.225 28.2797 109.22C27.9765 109.22 27.2875 109.137 27.1497 109.137C27.0119 109.137 26.385 109.22 25.8682 109.22C25.7097 109.22 25.6202 109.172 25.6202 109.027C25.6202 108.883 25.6753 108.827 25.7373 108.827C25.8655 108.826 25.9928 108.807 26.1162 108.772C26.6881 108.641 26.9293 107.801 27.1773 106.602L30.1469 91.768C30.3053 90.9825 30.3604 90.8447 30.4431 90.8447C30.5258 90.8447 30.6154 91.1823 30.7532 91.7128C30.9805 92.7119 32.9993 102.502 33.771 106.099C34.2326 108.221 34.584 108.524 34.8527 108.697C35.0057 108.784 35.1793 108.829 35.3556 108.827C35.4314 108.827 35.5141 108.889 35.5141 109.027C35.5141 109.165 35.3281 109.22 35.1903 109.22Z" fill="#1D1D1B"/></svg>