<svg xmlns="http://www.w3.org/2000/svg" id="Capa_1" data-name="Capa 1" viewBox="0 0 161.15 68"><defs><style>.cls-1{fill:#1d1d1b;}.cls-2{fill:none;}</style></defs><path class="cls-1" d="M65.37,41a12.49,12.49,0,0,1-4.91-4.62,12.78,12.78,0,0,1-1.78-6.71,12.73,12.73,0,0,1,1.78-6.71,12.44,12.44,0,0,1,4.91-4.63,14.85,14.85,0,0,1,7-1.66,15.1,15.1,0,0,1,6.17,1.22,11.75,11.75,0,0,1,4.57,3.5L78.67,25.4a7.55,7.55,0,0,0-9.52-2,6.1,6.1,0,0,0-2.46,2.52,7.75,7.75,0,0,0-.87,3.73,7.81,7.81,0,0,0,.87,3.73,6.13,6.13,0,0,0,2.46,2.51,7.23,7.23,0,0,0,3.63.89,7.41,7.41,0,0,0,5.89-2.92l4.49,4.07a11.72,11.72,0,0,1-4.57,3.49,15.1,15.1,0,0,1-6.17,1.22A14.85,14.85,0,0,1,65.37,41Z"></path><path class="cls-1" d="M114.25,17.12l-10.71,25h-7l-10.67-25h7.64l6.78,16.28,6.92-16.28Z"></path><path class="cls-1" d="M129.31,35.47h-3.85v6.64h-7.07v-25h11.42a14.26,14.26,0,0,1,5.89,1.13,8.47,8.47,0,0,1,5.21,8.12A8.33,8.33,0,0,1,136,34.26l5.39,7.85h-7.57Zm3.36-11.81a4.86,4.86,0,0,0-3.29-1h-3.92V30h3.92a5,5,0,0,0,3.29-1,3.37,3.37,0,0,0,1.1-2.69A3.41,3.41,0,0,0,132.67,23.66Z"></path><path class="cls-1" d="M25.07,18.25l.42.15c1.25.48,2.48,1,3.7,1.57s2.33,1.15,3.47,1.79a9.37,9.37,0,0,1,1-.7,17.71,17.71,0,0,1,3.09-1.52,28.88,28.88,0,0,1,3.24-1,25,25,0,0,1,3.33-.61,63.83,63.83,0,0,0-6.22,2.46A22.65,22.65,0,0,0,34.23,22l-.54.38a58.06,58.06,0,0,1,6.43,4.3l.29-.08a14.35,14.35,0,0,1,1.52-.34A13.38,13.38,0,0,1,43.45,26C44,26,44.46,26,45,26c-.5.08-1,.16-1.48.26a11.58,11.58,0,0,0-1.42.42c-.43.16-.85.34-1.26.53a56.77,56.77,0,0,1,4.69,4.21l.78.8.78-.13a6.14,6.14,0,0,1,1.42,0,6.45,6.45,0,0,0-1.36.28l-.56.2c.56.6,1.11,1.21,1.63,1.83.85,1,1.67,2.07,2.42,3.15a35.6,35.6,0,0,1,3.81,6.91C56.59,13.69,36.6,9,25.07,18.25Z"></path><path class="cls-1" d="M23.66,48.79a1.63,1.63,0,0,1,0,2.39,2.16,2.16,0,0,1-1.43.43H21.08V53h-.67V48.36h1.82A2.16,2.16,0,0,1,23.66,48.79Zm-.48,2a1.08,1.08,0,0,0,0-1.55,1.51,1.51,0,0,0-1-.27H21.08V51h1.13A1.51,1.51,0,0,0,23.18,50.76Z"></path><path class="cls-1" d="M27.73,51.86H25.25L24.74,53h-.69l2.12-4.67h.66L29,53h-.7Zm-.23-.54-1-2.28-1,2.28Z"></path><path class="cls-1" d="M32.6,53l-1-1.44H30.14V53h-.66V48.36H31.3a2.13,2.13,0,0,1,1.42.43A1.47,1.47,0,0,1,33.25,50a1.54,1.54,0,0,1-.27.92,1.51,1.51,0,0,1-.76.56L33.33,53Zm-.36-2.27a1.05,1.05,0,0,0,0-1.55,1.48,1.48,0,0,0-1-.27H30.14V51h1.14A1.43,1.43,0,0,0,32.24,50.76Z"></path><path class="cls-1" d="M37.13,51.86H34.65L34.14,53h-.69l2.12-4.67h.66L38.35,53h-.7Zm-.23-.54-1-2.28-1,2.28Z"></path><path class="cls-1" d="M41.43,48.94h-1.6v-.58h3.86v.58h-1.6V53h-.66Z"></path><path class="cls-1" d="M45,52.77a2.42,2.42,0,0,1-.89-3.3,2.37,2.37,0,0,1,.89-.86,2.76,2.76,0,0,1,2.54,0,2.23,2.23,0,0,1,.89.86,2.39,2.39,0,0,1,.32,1.22,2.45,2.45,0,0,1-.32,1.23,2.28,2.28,0,0,1-.89.85,2.76,2.76,0,0,1-2.54,0Zm2.2-.52a1.74,1.74,0,0,0,.65-.64,2,2,0,0,0,0-1.84,1.81,1.81,0,0,0-.65-.64,1.78,1.78,0,0,0-.93-.23,1.83,1.83,0,0,0-.93.23,1.83,1.83,0,0,0-.65,2.48,1.74,1.74,0,0,0,.65.64,1.84,1.84,0,0,0,.93.24A1.79,1.79,0,0,0,47.22,52.25Z"></path><path class="cls-1" d="M49.62,48.36h2a2.82,2.82,0,0,1,1.32.29,2.21,2.21,0,0,1,.89.82,2.56,2.56,0,0,1,0,2.44,2.14,2.14,0,0,1-.89.82,2.82,2.82,0,0,1-1.32.3h-2Zm1.93,4.09a2.26,2.26,0,0,0,1-.22,1.59,1.59,0,0,0,.66-.62,1.88,1.88,0,0,0,0-1.84,1.5,1.5,0,0,0-.66-.61,2.14,2.14,0,0,0-1-.22H50.29v3.51Z"></path><path class="cls-1" d="M55.8,52.77a2.3,2.3,0,0,1-.89-.86,2.38,2.38,0,0,1,.89-3.3,2.69,2.69,0,0,1,1.28-.31,2.64,2.64,0,0,1,1.26.31,2.23,2.23,0,0,1,.89.86,2.39,2.39,0,0,1,.32,1.22,2.45,2.45,0,0,1-.32,1.23,2.28,2.28,0,0,1-.89.85,2.53,2.53,0,0,1-1.26.31A2.58,2.58,0,0,1,55.8,52.77Zm2.2-.52a1.74,1.74,0,0,0,.65-.64,2,2,0,0,0,0-1.84,1.81,1.81,0,0,0-.65-.64,1.86,1.86,0,0,0-2.51.64,1.88,1.88,0,0,0,0,1.84,1.69,1.69,0,0,0,.66.64,1.9,1.9,0,0,0,1.85,0Z"></path><path class="cls-1" d="M62,48.36h.67v4.09h2.53V53H62Z"></path><path class="cls-1" d="M66.58,52.77a2.23,2.23,0,0,1-.89-.86,2.38,2.38,0,0,1,.89-3.3,2.65,2.65,0,0,1,1.27-.31,2.68,2.68,0,0,1,1.27.31,2.3,2.3,0,0,1,.89.86,2.39,2.39,0,0,1,.32,1.22A2.45,2.45,0,0,1,70,51.92a2.35,2.35,0,0,1-.89.85,2.57,2.57,0,0,1-1.27.31A2.54,2.54,0,0,1,66.58,52.77Zm2.19-.52a1.67,1.67,0,0,0,.65-.64,1.88,1.88,0,0,0,0-1.84,1.74,1.74,0,0,0-.65-.64,1.77,1.77,0,0,0-.92-.23,1.83,1.83,0,0,0-.93.23,1.67,1.67,0,0,0-.65.64,1.88,1.88,0,0,0,0,1.84,1.6,1.6,0,0,0,.65.64,1.84,1.84,0,0,0,.93.24A1.78,1.78,0,0,0,68.77,52.25Z"></path><path class="cls-1" d="M77.62,53.45a1.49,1.49,0,0,1-.53.41,1.58,1.58,0,0,1-.65.14,1.7,1.7,0,0,1-.82-.21,3.87,3.87,0,0,1-.88-.72,2.51,2.51,0,0,1-1.19-.35,2.33,2.33,0,0,1-.83-.85,2.48,2.48,0,0,1-.29-1.18,2.29,2.29,0,0,1,.32-1.22,2.37,2.37,0,0,1,.89-.86,2.69,2.69,0,0,1,1.28-.31,2.64,2.64,0,0,1,1.26.31,2.23,2.23,0,0,1,.89.86,2.39,2.39,0,0,1,.32,1.22,2.52,2.52,0,0,1-.23,1.06,2.19,2.19,0,0,1-.65.8,2.41,2.41,0,0,1-1,.46,1.53,1.53,0,0,0,.45.35.87.87,0,0,0,.44.11,1.09,1.09,0,0,0,.85-.4Zm-4.29-1.84a1.74,1.74,0,0,0,.65.64,1.85,1.85,0,0,0,.94.24,1.83,1.83,0,0,0,.92-.24,1.74,1.74,0,0,0,.65-.64,2,2,0,0,0,0-1.84,1.77,1.77,0,0,0-1.57-.87,1.85,1.85,0,0,0-.94.23,1.83,1.83,0,0,0-.65,2.48Z"></path><path class="cls-1" d="M78.72,52.55A2.16,2.16,0,0,1,78.2,51V48.36h.67V51c0,1,.44,1.51,1.32,1.51a1.3,1.3,0,0,0,1-.37A1.69,1.69,0,0,0,81.51,51V48.36h.64V51a2.1,2.1,0,0,1-.52,1.54,1.94,1.94,0,0,1-1.45.53A2,2,0,0,1,78.72,52.55Z"></path><path class="cls-1" d="M86.74,52.45V53H83.35V48.36h3.3v.58H84v1.43h2.34v.57H84v1.51Z"></path><path class="cls-1" d="M92.68,52.45V53H89.29V48.36h3.29v.58H90v1.43h2.34v.57H90v1.51Z"></path><path class="cls-1" d="M93.59,48.36h.67v4.09h2.52V53H93.59Z"></path><path class="cls-1" d="M99.84,52.77a2.35,2.35,0,0,1-.89-.85,2.45,2.45,0,0,1-.32-1.23A2.39,2.39,0,0,1,99,49.47a2.3,2.3,0,0,1,.89-.86,2.68,2.68,0,0,1,1.27-.31,2.51,2.51,0,0,1,1,.19,2,2,0,0,1,.77.54l-.43.42a1.74,1.74,0,0,0-1.32-.55,1.87,1.87,0,0,0-.94.23,1.67,1.67,0,0,0-.65.64,1.88,1.88,0,0,0,0,1.84,1.6,1.6,0,0,0,.65.64,1.88,1.88,0,0,0,.94.24,1.78,1.78,0,0,0,1.32-.56l.43.42a2,2,0,0,1-.77.54,2.56,2.56,0,0,1-1,.19A2.5,2.5,0,0,1,99.84,52.77Z"></path><path class="cls-1" d="M106.53,51.86h-2.48L103.54,53h-.69L105,48.36h.66L107.75,53h-.7Zm-.23-.54-1-2.28-1,2.28Z"></path><path class="cls-1" d="M112.6,53V49.62l-1.69,2.84h-.31l-1.69-2.82V53h-.64V48.36h.55l2,3.28,1.92-3.28h.55V53Z"></path><path class="cls-1" d="M117.73,48.79a1.63,1.63,0,0,1,0,2.39,2.18,2.18,0,0,1-1.43.43h-1.16V53h-.66V48.36h1.82A2.18,2.18,0,0,1,117.73,48.79Zm-.48,2a1.08,1.08,0,0,0,0-1.55,1.53,1.53,0,0,0-1-.27h-1.14V51h1.14A1.53,1.53,0,0,0,117.25,50.76Z"></path><path class="cls-1" d="M120,52.77a2.3,2.3,0,0,1-.89-.86,2.38,2.38,0,0,1,.89-3.3,2.69,2.69,0,0,1,1.28-.31,2.64,2.64,0,0,1,1.26.31,2.23,2.23,0,0,1,.89.86,2.39,2.39,0,0,1,.32,1.22,2.45,2.45,0,0,1-.32,1.23,2.28,2.28,0,0,1-.89.85,2.53,2.53,0,0,1-1.26.31A2.58,2.58,0,0,1,120,52.77Zm2.2-.52a1.74,1.74,0,0,0,.65-.64,2,2,0,0,0,0-1.84,1.81,1.81,0,0,0-.65-.64,1.77,1.77,0,0,0-.92-.23,1.85,1.85,0,0,0-.94.23,1.83,1.83,0,0,0-.65,2.48,1.74,1.74,0,0,0,.65.64,1.85,1.85,0,0,0,.94.24A1.78,1.78,0,0,0,122.16,52.25Z"></path><path class="cls-1" d="M129.44,48.79a1.63,1.63,0,0,1,0,2.39,2.16,2.16,0,0,1-1.43.43h-1.15V53h-.67V48.36H128A2.16,2.16,0,0,1,129.44,48.79Zm-.48,2a1.08,1.08,0,0,0,0-1.55,1.5,1.5,0,0,0-1-.27h-1.13V51H128A1.5,1.5,0,0,0,129,50.76Z"></path><path class="cls-1" d="M130.78,48.36h.66V53h-.66Z"></path><path class="cls-1" d="M132.68,48.36h2a2.78,2.78,0,0,1,1.31.29,2.21,2.21,0,0,1,.89.82,2.49,2.49,0,0,1,0,2.44,2.14,2.14,0,0,1-.89.82,2.78,2.78,0,0,1-1.31.3h-2Zm1.93,4.09a2.22,2.22,0,0,0,1-.22,1.67,1.67,0,0,0,.67-.62,2,2,0,0,0,0-1.84,1.59,1.59,0,0,0-.67-.61,2.09,2.09,0,0,0-1-.22h-1.27v3.51Z"></path><path class="cls-1" d="M141.41,52.45V53H138V48.36h3.3v.58h-2.63v1.43H141v.57h-2.34v1.51Z"></path><path class="cls-1" d="M45.12,33.7l-.09.12a10.1,10.1,0,0,0-.69,1.2,12.19,12.19,0,0,0-.55,1.29,12.52,12.52,0,0,0-.44,1.35,11.26,11.26,0,0,1,.19-1.42,13.8,13.8,0,0,1,.38-1.4,10,10,0,0,1,.59-1.35l.12-.21-.5-.43a63.15,63.15,0,0,0-5.36-4,.94.94,0,0,0-.1.1q-.44.48-.84,1a21.19,21.19,0,0,0-1.47,2.17c-.45.75-.87,1.53-1.26,2.33S34.34,36,34,36.83c.07-.45.17-.89.28-1.32s.22-.87.36-1.31c.27-.85.58-1.71.94-2.55a21,21,0,0,1,1.26-2.45c.24-.38.5-.76.78-1.13a68.38,68.38,0,0,0-6.22-3.56c-.25.26-.5.51-.73.78a13.54,13.54,0,0,0-1,1.28,18.3,18.3,0,0,0-1.55,2.86A52.77,52.77,0,0,0,26,35.75a31.23,31.23,0,0,1,.48-3.34,24.83,24.83,0,0,1,.89-3.28A15.65,15.65,0,0,1,28.85,26a12.84,12.84,0,0,1,1.53-2,62.61,62.61,0,0,0-6-2.53c-.58-.22-1.18-.41-1.77-.62-1.64,2.46-5,8.87-.85,15.44,6.52,10.4,25.4,4.05,32.69,8.07A50.27,50.27,0,0,0,45.12,33.7Z"></path><rect class="cls-2" width="161.15" height="68"></rect></svg>