<svg width="200" height="200" viewBox="0 0 200 200" fill="none" xmlns="http://www.w3.org/2000/svg"><path d="M51.3123 130.763H52.0417L54.2938 124.8H54.4852L56.7555 130.763H57.4941V130.872H54.932V130.763H55.8438L54.932 128.447H53.0538L52.142 130.763H53.0538V130.872H51.2302L51.3123 130.763ZM54.0476 125.903L53.1358 128.328H54.9593L54.0476 125.903Z" fill="#1D1D1B"/><path d="M65.2261 130.763H66.1378V125.064H65.2261V124.946H67.0496H67.2775H68.1893H68.554C68.6649 124.953 68.7748 124.972 68.8823 125C68.9934 125.028 69.1029 125.061 69.2105 125.101C69.5368 125.194 69.845 125.342 70.1223 125.538C70.5846 125.902 70.9068 126.414 71.034 126.988C71.1088 127.286 71.1455 127.592 71.1434 127.9C71.1514 128.233 71.1083 128.565 71.0158 128.884C70.9357 129.16 70.8126 129.422 70.6511 129.659C70.5003 129.881 70.3157 130.078 70.104 130.243C69.899 130.408 69.6719 130.543 69.4293 130.644C69.3088 130.7 69.1838 130.746 69.0555 130.781C68.9369 130.818 68.8146 130.843 68.6908 130.854H68.2805H65.2261V130.763ZM66.9858 130.763H67.314H67.7243C67.9158 130.763 68.0981 130.763 68.2896 130.763C68.4708 130.744 68.6486 130.701 68.8184 130.635C69.1844 130.497 69.4908 130.236 69.6846 129.896C69.8561 129.614 69.9822 129.306 70.0584 128.985C70.1309 128.646 70.1645 128.301 70.1587 127.954C70.1641 127.553 70.1244 127.152 70.0402 126.76C69.9712 126.43 69.8312 126.119 69.6299 125.848C69.4327 125.585 69.1681 125.38 68.864 125.256C68.4901 125.107 68.09 125.036 67.6878 125.046H67.314H66.9858V130.763Z" fill="#1D1D1B"/><path d="M78.811 124.946H81.3822V125.064H80.4705L82.294 129.896L84.1175 125.064H83.2057V124.946H85.0293V125.064H84.2816L82.0387 131H81.829L79.5678 125.064H78.811V124.946Z" fill="#1D1D1B"/><path d="M92.697 130.763H93.6088V125.064H92.697V124.946H95.3776V125.064H94.4659V130.763H95.3776V130.872H92.697V130.763Z" fill="#1D1D1B"/><path d="M103.766 129.085H103.858C103.905 129.346 103.985 129.6 104.095 129.842C104.177 130.025 104.285 130.197 104.414 130.352C104.519 130.473 104.642 130.578 104.778 130.662C104.903 130.727 105.035 130.779 105.171 130.817C105.292 130.853 105.418 130.871 105.544 130.872H105.882C106.128 130.878 106.373 130.835 106.602 130.744C106.776 130.665 106.932 130.55 107.058 130.407C107.164 130.275 107.242 130.123 107.286 129.96C107.328 129.818 107.35 129.671 107.35 129.522C107.353 129.353 107.318 129.185 107.249 129.03C107.184 128.892 107.087 128.77 106.967 128.675C106.862 128.576 106.742 128.496 106.611 128.437C106.49 128.38 106.365 128.331 106.237 128.292L105.253 128.009C104.873 127.911 104.523 127.723 104.231 127.462C104.115 127.342 104.024 127.199 103.964 127.042C103.904 126.885 103.877 126.718 103.885 126.55C103.884 126.309 103.93 126.071 104.022 125.848C104.107 125.642 104.235 125.456 104.395 125.301C104.563 125.143 104.757 125.016 104.97 124.927C105.207 124.842 105.457 124.799 105.708 124.8C105.872 124.783 106.037 124.783 106.201 124.8C106.316 124.831 106.429 124.87 106.538 124.918L106.784 125.027C106.862 125.045 106.943 125.045 107.021 125.027C107.069 125.041 107.12 125.041 107.167 125.027C107.207 124.983 107.24 124.934 107.268 124.882H107.386V126.441H107.286C107.252 126.24 107.194 126.044 107.113 125.857C107.034 125.679 106.93 125.513 106.803 125.365C106.672 125.222 106.514 125.108 106.338 125.027C106.141 124.936 105.925 124.893 105.708 124.9C105.561 124.902 105.414 124.921 105.271 124.955C105.112 124.987 104.96 125.048 104.824 125.137C104.685 125.226 104.567 125.344 104.478 125.483C104.38 125.652 104.333 125.845 104.341 126.04C104.336 126.196 104.374 126.35 104.45 126.486C104.515 126.613 104.609 126.722 104.724 126.805C104.841 126.896 104.97 126.969 105.107 127.024L105.535 127.179L106.547 127.498L106.939 127.626C107.109 127.684 107.268 127.767 107.413 127.872C107.572 127.995 107.705 128.146 107.806 128.319C107.922 128.534 107.979 128.776 107.97 129.021C107.967 129.274 107.918 129.524 107.824 129.76C107.726 129.995 107.584 130.208 107.404 130.389C107.212 130.573 106.986 130.718 106.739 130.817C106.449 130.934 106.139 130.99 105.827 130.981H105.517H105.271H105.034L104.778 130.917L104.423 130.808C104.315 130.766 104.201 130.741 104.085 130.735C104.054 130.732 104.023 130.735 103.993 130.744C103.963 130.754 103.936 130.769 103.912 130.79C103.879 130.827 103.854 130.87 103.839 130.917H103.712L103.766 129.085Z" fill="#1D1D1B"/><path d="M116.75 127.9C116.748 127.475 116.838 127.055 117.014 126.669C117.18 126.306 117.408 125.976 117.689 125.693C117.948 125.418 118.258 125.196 118.6 125.037C118.923 124.884 119.274 124.803 119.631 124.8C119.999 124.802 120.363 124.883 120.697 125.037C121.04 125.196 121.35 125.418 121.609 125.693C121.887 125.974 122.11 126.305 122.266 126.669C122.449 127.055 122.554 127.473 122.576 127.9C122.576 128.29 122.502 128.677 122.357 129.039C122.21 129.404 122 129.74 121.737 130.033C121.48 130.323 121.171 130.561 120.825 130.735C120.474 130.91 120.087 131.001 119.695 131C119.294 131.005 118.898 130.917 118.537 130.744C118.189 130.577 117.879 130.341 117.625 130.051C117.097 129.459 116.805 128.693 116.804 127.9H116.75ZM117.661 127.9C117.658 128.339 117.691 128.778 117.762 129.213C117.812 129.536 117.927 129.846 118.099 130.124C118.239 130.363 118.445 130.556 118.692 130.68C118.98 130.802 119.29 130.864 119.603 130.864C119.916 130.864 120.226 130.802 120.515 130.68C120.764 130.556 120.973 130.363 121.117 130.124C121.282 129.844 121.394 129.534 121.445 129.213C121.52 128.779 121.553 128.339 121.545 127.9C121.549 127.53 121.525 127.162 121.472 126.796C121.428 126.479 121.333 126.171 121.19 125.885C121.056 125.611 120.851 125.378 120.597 125.21C120.299 125.036 119.957 124.951 119.612 124.964C119.267 124.947 118.924 125.032 118.628 125.21C118.371 125.375 118.166 125.609 118.035 125.885C117.889 126.171 117.79 126.479 117.743 126.796C117.708 127.163 117.695 127.531 117.707 127.9H117.661Z" fill="#1D1D1B"/><path d="M130.855 130.763H131.767V125.064H130.855V124.946H132.605H132.806H133.207C133.497 124.943 133.786 124.962 134.073 125C134.329 125.036 134.569 125.143 134.766 125.31C134.948 125.436 135.09 125.609 135.177 125.812C135.255 125.981 135.298 126.164 135.304 126.35C135.299 126.457 135.284 126.564 135.259 126.669C135.216 126.814 135.148 126.949 135.058 127.07C134.932 127.219 134.781 127.346 134.611 127.444C134.371 127.571 134.107 127.648 133.836 127.672C133.959 127.685 134.081 127.707 134.201 127.736C134.361 127.769 134.517 127.821 134.666 127.891C134.826 127.961 134.974 128.056 135.104 128.173C135.239 128.299 135.337 128.46 135.386 128.638C135.418 128.762 135.442 128.886 135.459 129.012V129.45C135.459 129.605 135.459 129.742 135.459 129.888C135.467 130.004 135.482 130.12 135.505 130.234C135.536 130.372 135.588 130.504 135.66 130.626C135.698 130.685 135.751 130.732 135.814 130.762C135.876 130.793 135.946 130.806 136.015 130.799C136.088 130.812 136.162 130.812 136.234 130.799C136.312 130.768 136.384 130.722 136.444 130.663L136.517 130.754L136.426 130.827L136.289 130.89C136.223 130.921 136.152 130.939 136.079 130.945C135.982 130.956 135.884 130.956 135.787 130.945C135.599 130.95 135.411 130.923 135.231 130.863C135.095 130.811 134.973 130.726 134.876 130.617C134.789 130.496 134.724 130.36 134.684 130.216C134.637 130.034 134.606 129.847 134.593 129.66L134.538 128.903C134.549 128.685 134.512 128.467 134.429 128.265C134.355 128.126 134.249 128.007 134.119 127.918C134.004 127.851 133.877 127.808 133.745 127.79H133.408H132.605V130.799H133.517V130.909H130.846L130.855 130.763ZM132.605 127.635H133.371C133.516 127.637 133.66 127.619 133.8 127.581C133.927 127.543 134.041 127.471 134.128 127.371C134.229 127.26 134.301 127.125 134.338 126.979C134.394 126.774 134.419 126.562 134.411 126.35C134.419 126.111 134.382 125.873 134.301 125.648C134.242 125.493 134.141 125.357 134.01 125.256C133.892 125.166 133.754 125.107 133.608 125.083C133.463 125.069 133.316 125.069 133.171 125.083H132.87H132.605V127.635Z" fill="#1D1D1B"/><path d="M144.723 129.085H144.814C144.866 129.345 144.945 129.599 145.051 129.842C145.137 130.026 145.247 130.198 145.379 130.352C145.483 130.475 145.606 130.58 145.744 130.662C145.867 130.725 145.995 130.777 146.127 130.817C146.249 130.853 146.374 130.871 146.501 130.872H146.838C147.088 130.88 147.336 130.836 147.568 130.744C147.739 130.665 147.891 130.55 148.014 130.407C148.124 130.278 148.202 130.125 148.242 129.96C148.287 129.818 148.312 129.671 148.315 129.522C148.32 129.352 148.283 129.183 148.206 129.03C148.14 128.894 148.047 128.773 147.932 128.675C147.825 128.576 147.701 128.496 147.568 128.438C147.448 128.369 147.323 128.311 147.194 128.264L146.282 128.009C145.905 127.911 145.558 127.723 145.27 127.462C145.151 127.343 145.059 127.2 144.999 127.043C144.94 126.886 144.914 126.718 144.923 126.55C144.923 126.31 144.966 126.072 145.051 125.848C145.14 125.644 145.267 125.458 145.425 125.301C145.594 125.14 145.792 125.013 146.008 124.927C146.245 124.841 146.495 124.798 146.747 124.8C146.908 124.783 147.07 124.783 147.23 124.8C147.346 124.829 147.459 124.869 147.568 124.918L147.823 125.027C147.898 125.046 147.976 125.046 148.051 125.027C148.099 125.041 148.149 125.041 148.197 125.027C148.242 124.988 148.277 124.938 148.297 124.882H148.416V126.441H148.315C148.284 126.24 148.229 126.044 148.151 125.857C148.07 125.678 147.962 125.512 147.832 125.365C147.703 125.225 147.548 125.11 147.376 125.027C147.179 124.936 146.964 124.893 146.747 124.9C146.597 124.902 146.447 124.92 146.3 124.955C146.142 124.988 145.99 125.05 145.853 125.137C145.716 125.228 145.599 125.346 145.507 125.483C145.41 125.652 145.362 125.845 145.37 126.04C145.365 126.196 145.403 126.35 145.48 126.486C145.547 126.614 145.644 126.723 145.762 126.805C145.877 126.899 146.006 126.973 146.145 127.024L146.574 127.179L147.577 127.498L147.978 127.626C148.144 127.684 148.301 127.767 148.443 127.872C148.601 127.995 148.734 128.146 148.835 128.319C148.952 128.534 149.009 128.777 148.999 129.021C149.001 129.275 148.951 129.526 148.853 129.76C148.756 129.995 148.613 130.208 148.434 130.389C148.243 130.575 148.016 130.72 147.768 130.817C147.479 130.934 147.168 130.99 146.856 130.981H146.546L146.282 131H146.045C145.959 130.984 145.873 130.962 145.79 130.936L145.434 130.826C145.327 130.783 145.213 130.758 145.097 130.753C145.067 130.75 145.037 130.753 145.008 130.762C144.98 130.772 144.954 130.787 144.933 130.808C144.893 130.841 144.864 130.886 144.851 130.936H144.723V129.085Z" fill="#1D1D1B"/><path d="M114.589 97.6929L108.143 98.7323L115.145 117.752H117.105L132.742 73.4764V112.226C132.688 117.022 127.345 116.831 127.345 116.831V117.743H148.953V116.63C148.762 116.63 142.307 117.159 142.307 112.071V105.926V75.382C142.285 74.9826 142.329 74.5824 142.434 74.1967C142.547 73.6041 142.783 73.0419 143.127 72.5464C144.632 70.4402 148.963 70.577 148.963 70.577V69.6652H132.742V69.729L118.81 109.117L114.589 97.6929ZM99.8366 76.3941C99.9609 76.5738 100.059 76.7703 100.128 76.9776L106.073 93.125L106.237 93.5444H99.3534C98.5448 96.1991 97.561 98.7973 96.4084 101.322C93.9193 106.747 91.5396 110.102 88.3848 113.011C87.0219 114.092 85.5596 115.041 84.0175 115.846C82.9372 116.316 81.8251 116.709 80.6895 117.022C78.5435 117.586 76.2851 117.561 74.1522 116.949C72.4368 116.421 70.8544 115.532 69.5113 114.342C68.2202 113.17 67.119 111.804 66.2472 110.294C65.3977 108.789 64.6779 107.215 64.0954 105.589C64.0316 105.324 63.8948 105.124 63.831 104.869C62.2801 100.172 61.7243 95.2036 62.1989 90.2803C63.5666 74.9444 70.6054 71.5435 72.7845 70.8232C74.0883 70.3582 78.2551 70.4767 79.6501 70.4767C84.984 70.4767 83.9992 77.9623 84.209 77.9714V79.0291H85.5492L85.4854 76.7679L85.6769 69.8293V69.6105C85.4307 69.6105 79.8598 69.1546 79.6136 69.1546L75.6566 68.9996C71.0978 69.0726 51.3215 69.3461 51.3215 94.7388C51.3215 111.789 63.4298 123.186 79.7413 118.764C82.3778 117.993 84.8874 116.842 87.1904 115.345C93.9649 110.831 98.8884 100.82 100.931 94.8573C103.393 94.8573 105.225 94.8573 106.711 94.8573C107.931 94.8616 109.15 94.7793 110.358 94.6112C111.317 94.4566 112.267 94.2496 113.203 93.9912L113.805 93.8179C118.473 92.4412 123.998 89.1497 123.998 81.2538C123.998 68.954 107.222 69.6835 107.222 69.6835H92.1231V70.422C92.559 70.5522 92.9881 70.7043 93.4087 70.8779H107.24C118.017 70.8232 117.634 81.5091 117.634 82.6761C117.634 88.1467 115.136 90.882 112.638 92.277H112.547V92.0673L106.073 74.607H98.7334L99.8366 76.3941Z" fill="#1D1D1B"/><path d="M100.931 112.09V102.352C99.5013 104.81 97.7741 107.082 95.7884 109.117C92.9984 112.053 90.9469 113.676 90.4819 113.676C91.9316 113.676 92.5608 116.038 92.5699 117.752H107.897V116.411C107.705 116.411 100.931 117.323 100.931 112.09Z" fill="#1D1D1B"/></svg>