<svg xmlns="http://www.w3.org/2000/svg" id="Capa_1" data-name="Capa 1" viewBox="0 0 276.18 68"><defs><style>.cls-1{fill:none;}.cls-2{fill:#1d1d1b;}</style></defs><rect class="cls-1" width="276.18" height="68"></rect><path class="cls-2" d="M119.1,26.76a15.59,15.59,0,0,0-5.46-3.32,20.22,20.22,0,0,0-6.9-1.14,19.16,19.16,0,0,0-7.16,1.3A16.55,16.55,0,0,0,94,27.18a16,16,0,0,0-3.62,5.53,18.93,18.93,0,0,0-1.3,7.13,24.21,24.21,0,0,0,1.3,8.35,16.6,16.6,0,0,0,3.51,5.87,14.23,14.23,0,0,0,5.26,3.51,18.34,18.34,0,0,0,6.63,1.18,21.05,21.05,0,0,0,7.47-1.26,15.65,15.65,0,0,0,5.76-3.7,16.28,16.28,0,0,0,3.7-6,24.28,24.28,0,0,0,1.3-8.24,19.65,19.65,0,0,0-1.3-7.39A15.11,15.11,0,0,0,119.1,26.76ZM78.52,9.67,70.24,30.73,62,9.67H45.12L64,58.1H76.56L95.43,9.67ZM71,52.29H69.52L55.14,15.48h2L70.24,49,83.38,15.48h2Zm83.12-.3h-16V15.34h6.28V9.25h-20v6.09h6.29V52h-6.29v6.09h35.77V36.86h-6.05Zm20-42.68L167,15.9v5.55h-4.78V27.9H167V48.63q0,5.55,2,7.83c1.32,1.53,3.5,2.29,6.52,2.29a20.46,20.46,0,0,0,5.41-1V51.25a11.75,11.75,0,0,1-3.84.66,2.55,2.55,0,0,1-2.21-.89c-.44-.59-.65-1.89-.65-3.89V27.9h6.7V21.45h-6.7Zm49,39q-2.44-5.89-5-12.46t-5.16-13.38q-2.56-6.81-4.81-12.77l-1.33.24a8.17,8.17,0,0,1-1.34.11,8.14,8.14,0,0,1-1.33-.11l-1.33-.24q-1.54,4-3.41,8.63t-3.79,9.41q-1.93,4.77-3.86,9.44t-3.62,8.74Q186.43,50,185,53.24t-2.24,5.06a12,12,0,0,1,1.82-.14h3.34a9.35,9.35,0,0,1,1.65.14c.65-2.3,1.38-4.64,2.17-7s1.66-4.78,2.6-7.16c1.22,0,2.43-.09,3.65-.11s2.44,0,3.65,0c1.5,0,3,0,4.5,0s3,.06,4.49.11q1.33,3.57,2.53,7.16t2.31,7a29.64,29.64,0,0,1,3-.14h6c1,0,2.07,0,3.2.14Q225.6,54.22,223.14,48.33ZM196.19,40q1.55-4.28,3.16-8.39c1.07-2.73,2.22-5.51,3.44-8.31,1.12,2.8,2.18,5.58,3.19,8.31S208,37.12,209,40Z"></path><path class="cls-2" d="M221.25,14.22a5,5,0,0,1,1.45-3.52,4.93,4.93,0,0,1,1.58-1.06,5,5,0,0,1,3.87,0,4.92,4.92,0,0,1,2.64,2.64,5,5,0,0,1,0,3.88,5.06,5.06,0,0,1-6.51,2.61,4.89,4.89,0,0,1-3-4.55Zm9.36,0a4.17,4.17,0,0,0-.35-1.72,4.42,4.42,0,0,0-2.33-2.33,4.3,4.3,0,0,0-1.72-.35,4.25,4.25,0,0,0-1.71.35,4.32,4.32,0,0,0-1.39.94,4.46,4.46,0,0,0-1,1.39,4.33,4.33,0,0,0-.34,1.72,4.25,4.25,0,0,0,.34,1.71,4.46,4.46,0,0,0,2.34,2.34,4.25,4.25,0,0,0,1.71.35,4.3,4.3,0,0,0,1.72-.35,4.61,4.61,0,0,0,1.39-.94,4.48,4.48,0,0,0,.94-1.4A4.09,4.09,0,0,0,230.61,14.22Zm-2,2.74-.38,0-.37,0-.38,0-.37,0-.84-1.5c-.19-.36-.33-.62-.43-.78a1.78,1.78,0,0,0-.18-.3.13.13,0,0,0-.07,0,0,0,0,0,0,0,0,.67.67,0,0,0,0,.18c0,.21,0,.43,0,.68s0,.48,0,.71,0,.44,0,.62,0,.31,0,.38l-.32,0h-.65l-.33,0c0-.05,0-.14,0-.27s0-.32,0-.57,0-.55,0-.92,0-.82,0-1.33,0-.79,0-1.08,0-.53,0-.73,0-.35,0-.48,0-.22,0-.31l.55,0h1l.68,0a1.72,1.72,0,0,1,1.19.39,1.3,1.3,0,0,1,.44,1,1.39,1.39,0,0,1-.4,1,1.65,1.65,0,0,1-1,.49Zm-1.74-4.2a1.07,1.07,0,0,0-.27-.79.81.81,0,0,0-.59-.26h-.43c0,.25,0,.48,0,.69s0,.41,0,.58v1l.36,0a1,1,0,0,0,.44-.13.91.91,0,0,0,.37-.36A1.46,1.46,0,0,0,226.92,12.76Z"></path></svg>