<svg xmlns="http://www.w3.org/2000/svg" id="Capa_1" data-name="Capa 1" viewBox="0 0 276.18 68"><defs><style>.cls-1{fill:none;}.cls-2{fill:#1d1d1b;}</style></defs><rect class="cls-1" width="276.18" height="68"></rect><path class="cls-2" d="M83.84,67.74h.8l2.47-6.54h.21l2.49,6.54h.81v.12H87.81v-.12h1l-1-2.54H85.75l-1,2.54h1v.12h-2Zm3-5.33-1,2.66h2Z"></path><path class="cls-2" d="M99.1,67.74h1V61.49h-1v-.13h2l.25,0h1l.4,0a1.93,1.93,0,0,1,.36.06,3.55,3.55,0,0,1,.36.11,3.32,3.32,0,0,1,1,.48,2.79,2.79,0,0,1,1,1.59,4,4,0,0,1,.12,1,3.58,3.58,0,0,1-.14,1.08,3,3,0,0,1-.4.85,2.82,2.82,0,0,1-.6.64,3.08,3.08,0,0,1-.74.44,2.57,2.57,0,0,1-.41.15,1.89,1.89,0,0,1-.4.08l-.45,0H99.1Zm1.93,0,.36,0h.45c.21,0,.41,0,.62,0a2.24,2.24,0,0,0,.58-.14,1.84,1.84,0,0,0,.95-.81,3.47,3.47,0,0,0,.41-1,5,5,0,0,0,.11-1.13,5.87,5.87,0,0,0-.13-1.31,2.55,2.55,0,0,0-.45-1,2,2,0,0,0-.84-.65,3.27,3.27,0,0,0-1.29-.23h-.41l-.36,0Z"></path><path class="cls-2" d="M114,61.36h2.82v.13h-1l2,5.3,2-5.3h-1v-.13h2v.13H120L117.54,68h-.23l-2.48-6.51H114Z"></path><path class="cls-2" d="M129.23,67.74h1V61.49h-1v-.13h2.94v.13h-1v6.25h1v.12h-2.94Z"></path><path class="cls-2" d="M141.37,65.9h.1a3.54,3.54,0,0,0,.26.83,2.45,2.45,0,0,0,.35.56,1.77,1.77,0,0,0,.4.34,2.26,2.26,0,0,0,.43.17,1.51,1.51,0,0,0,.41.06h.37a2,2,0,0,0,.79-.14,1.48,1.48,0,0,0,.5-.37,1.34,1.34,0,0,0,.25-.49,1.69,1.69,0,0,0,.07-.48,1.27,1.27,0,0,0-.11-.54,1.1,1.1,0,0,0-.31-.39,1.4,1.4,0,0,0-.39-.26,3.12,3.12,0,0,0-.41-.16L143,64.72a2.68,2.68,0,0,1-1.12-.6,1.35,1.35,0,0,1-.38-1,2,2,0,0,1,.15-.77,1.78,1.78,0,0,1,.41-.6,2.08,2.08,0,0,1,.63-.41,2.38,2.38,0,0,1,.81-.14,2.68,2.68,0,0,1,.54,0,2.64,2.64,0,0,1,.37.13l.27.12a.6.6,0,0,0,.26,0,.3.3,0,0,0,.16,0,.77.77,0,0,0,.11-.16h.13V63h-.11a2.78,2.78,0,0,0-.19-.64,2.15,2.15,0,0,0-.34-.54,1.59,1.59,0,0,0-.51-.37,1.52,1.52,0,0,0-.69-.14,2.24,2.24,0,0,0-.48.06,1.41,1.41,0,0,0-.49.2,1.25,1.25,0,0,0-.38.38,1.13,1.13,0,0,0-.15.61.94.94,0,0,0,.12.49,1,1,0,0,0,.3.35,1.76,1.76,0,0,0,.42.24l.47.17,1.11.35.43.14a2,2,0,0,1,.52.27,1.71,1.71,0,0,1,.43.49,1.49,1.49,0,0,1,.18.77,2.25,2.25,0,0,1-.16.81,2.14,2.14,0,0,1-.46.69,2.29,2.29,0,0,1-.73.47,2.5,2.5,0,0,1-1,.18h-.34l-.27,0-.26,0-.28-.07-.39-.12a1.18,1.18,0,0,0-.37-.08.25.25,0,0,0-.19.06.37.37,0,0,0-.08.14h-.14Z"></path><path class="cls-2" d="M155.61,64.6a3.24,3.24,0,0,1,.29-1.35,3.71,3.71,0,0,1,.74-1.07,3.27,3.27,0,0,1,1-.72,2.7,2.7,0,0,1,1.13-.26,2.84,2.84,0,0,1,1.17.26,3.27,3.27,0,0,1,1,.72,3.47,3.47,0,0,1,.72,1.07A3.57,3.57,0,0,1,162,64.6a3.35,3.35,0,0,1-.24,1.25,3.71,3.71,0,0,1-.68,1.09,3.35,3.35,0,0,1-1,.77,2.76,2.76,0,0,1-1.24.29,2.85,2.85,0,0,1-1.27-.28,3.16,3.16,0,0,1-1-.76,3.55,3.55,0,0,1-.9-2.36Zm1,0a8.61,8.61,0,0,0,.11,1.44,2.68,2.68,0,0,0,.37,1,1.58,1.58,0,0,0,.65.61,2.58,2.58,0,0,0,2,0,1.61,1.61,0,0,0,.66-.61,2.85,2.85,0,0,0,.36-1,7.67,7.67,0,0,0,.11-1.44,7.93,7.93,0,0,0-.08-1.21,3.23,3.23,0,0,0-.31-1,1.87,1.87,0,0,0-.65-.74,2,2,0,0,0-1.08-.27,1.92,1.92,0,0,0-1.08.27,1.8,1.8,0,0,0-.65.74,3.23,3.23,0,0,0-.32,1A9.46,9.46,0,0,0,156.66,64.6Z"></path><path class="cls-2" d="M171.08,67.74h1V61.49h-1v-.13H173l.22,0h.44a6.7,6.7,0,0,1,.95.06,1.49,1.49,0,0,1,.76.34,1.28,1.28,0,0,1,.45.55,1.53,1.53,0,0,1,.14.59,1.82,1.82,0,0,1-.05.35,1.39,1.39,0,0,1-.22.44,1.87,1.87,0,0,1-.49.41,2.25,2.25,0,0,1-.85.25v0a3.09,3.09,0,0,1,.4.07,2.35,2.35,0,0,1,.51.17,1.79,1.79,0,0,1,.48.31,1.1,1.1,0,0,1,.31.51,3.73,3.73,0,0,1,.08.41l0,.48c0,.17,0,.32,0,.48a3,3,0,0,0,.05.38,1.49,1.49,0,0,0,.17.43.42.42,0,0,0,.39.19.67.67,0,0,0,.24,0,.7.7,0,0,0,.23-.15l.08.1-.1.08-.15.07a.7.7,0,0,1-.23.06,1.39,1.39,0,0,1-.32,0,1.78,1.78,0,0,1-.61-.09,1,1,0,0,1-.39-.27,1.38,1.38,0,0,1-.21-.44,3.38,3.38,0,0,1-.1-.61l-.06-.83A1.63,1.63,0,0,0,175,65a1.06,1.06,0,0,0-.34-.38,1.11,1.11,0,0,0-.41-.14l-.37,0H173v3.3h1v.12h-2.93ZM173,64.31h.84a1.73,1.73,0,0,0,.47-.06.77.77,0,0,0,.36-.23,1,1,0,0,0,.23-.43,2.25,2.25,0,0,0,.08-.69,2.07,2.07,0,0,0-.12-.77,1,1,0,0,0-.32-.43,1,1,0,0,0-.44-.19,2.61,2.61,0,0,0-.48,0h-.33l-.29,0Z"></path><path class="cls-2" d="M186.29,65.9h.1a4.08,4.08,0,0,0,.26.83,2.46,2.46,0,0,0,.36.56,1.58,1.58,0,0,0,.4.34,2.47,2.47,0,0,0,.42.17,1.51,1.51,0,0,0,.41.06h.37a2,2,0,0,0,.8-.14,1.44,1.44,0,0,0,.49-.37,1.2,1.2,0,0,0,.25-.49,1.72,1.72,0,0,0,.08-.48,1.13,1.13,0,0,0-.12-.54,1.19,1.19,0,0,0-.3-.39,1.45,1.45,0,0,0-.4-.26A2.66,2.66,0,0,0,189,65L188,64.72a2.64,2.64,0,0,1-1.11-.6,1.31,1.31,0,0,1-.38-1,2.15,2.15,0,0,1,.14-.77,1.94,1.94,0,0,1,.41-.6,2,2,0,0,1,.64-.41,2.33,2.33,0,0,1,.81-.14,2.58,2.58,0,0,1,.53,0,2.25,2.25,0,0,1,.37.13l.28.12a.53.53,0,0,0,.25,0,.3.3,0,0,0,.16,0,.38.38,0,0,0,.11-.16h.13V63h-.11a2.76,2.76,0,0,0-.18-.64,2.18,2.18,0,0,0-.35-.54,1.67,1.67,0,0,0-.5-.37,1.52,1.52,0,0,0-.69-.14,2.25,2.25,0,0,0-.49.06,1.49,1.49,0,0,0-.49.2,1.37,1.37,0,0,0-.38.38,1.13,1.13,0,0,0-.15.61.94.94,0,0,0,.12.49,1,1,0,0,0,.31.35,1.44,1.44,0,0,0,.42.24l.47.17,1.1.35.44.14a1.93,1.93,0,0,1,.51.27,1.71,1.71,0,0,1,.43.49,1.49,1.49,0,0,1,.18.77,2.05,2.05,0,0,1-.16.81,2.14,2.14,0,0,1-.46.69,2.19,2.19,0,0,1-.73.47,2.5,2.5,0,0,1-1,.18h-.34L188,68l-.26,0a2.27,2.27,0,0,1-.28-.07l-.39-.12a1.12,1.12,0,0,0-.37-.08.22.22,0,0,0-.18.06.28.28,0,0,0-.09.14h-.14Z"></path><path class="cls-2" d="M153.24,31.47l-7.07,1.14,7.68,20.86H156L173.15,4.91v42.5c-.06,5.26-5.92,5.05-5.92,5.05v1h23.7V52.24c-.21,0-7.29.58-7.29-5V40.5h0V7a4.09,4.09,0,0,1,.14-1.3,4.72,4.72,0,0,1,.76-1.81c1.65-2.31,6.4-2.16,6.4-2.16v-1H173.15V.8L157.87,44ZM137.06,8.11a2.54,2.54,0,0,1,.32.64l6.52,17.71.18.46h-7.55a68.8,68.8,0,0,1-3.23,8.53c-2.73,5.95-5.34,9.63-8.8,12.82a30.19,30.19,0,0,1-4.79,3.11,27.48,27.48,0,0,1-3.65,1.29,13.53,13.53,0,0,1-7.17-.08,13.79,13.79,0,0,1-5.09-2.86,18.47,18.47,0,0,1-3.58-4.44,33.39,33.39,0,0,1-2.36-5.16c-.07-.29-.22-.51-.29-.79a39.07,39.07,0,0,1-1.79-16C97.28,6.52,105,2.79,107.39,2c1.43-.51,6-.38,7.53-.38,5.85,0,4.77,8.21,5,8.22V11h1.47l-.07-2.48.21-7.61h0l0-.24c-.27,0-6.38-.5-6.65-.5L110.54,0c-5,.08-26.69.38-26.69,28.23,0,18.7,13.28,31.2,31.17,26.35a30.89,30.89,0,0,0,8.17-3.75c7.43-4.95,12.83-15.93,15.07-22.47h0c2.7,0,4.71,0,6.34,0a32.81,32.81,0,0,0,3.73-.23,32.81,32.81,0,0,1-3.73.23h0a28.3,28.3,0,0,0,4-.27,29.19,29.19,0,0,0,3.12-.68l.66-.19c5.12-1.51,11.18-5.12,11.18-13.78,0-13.49-18.4-12.69-18.4-12.69H128.6v.81a14.79,14.79,0,0,1,1.41.5h15.17C157,2,156.58,13.72,156.58,15c0,6-2.74,9-5.48,10.53H151L151,25.3,143.9,6.15h-8.05Zm7.18,18.8h0Z"></path><path class="cls-2" d="M138.26,47.26V36.58A37.93,37.93,0,0,1,132.62,44c-3.06,3.22-5.31,5-5.82,5h0c1.59,0,2.28,2.59,2.29,4.47H145.9V52C145.69,52,138.26,53,138.26,47.26Z"></path></svg>