<svg width="200" height="200" viewBox="0 0 200 200" fill="none" xmlns="http://www.w3.org/2000/svg"><path d="M85.0962 122.551H85.7945V126.953H85.0962V122.551Z" fill="#1D1D1B"/><path d="M87.8424 122.551H88.627L90.9024 125.69V122.551H91.5929V126.953H90.9495L88.5486 123.618V126.953H87.8581L87.8424 122.551Z" fill="#1D1D1B"/><path d="M93.4368 124.748C93.4368 123.179 94.2214 122.481 95.6573 122.481C95.9603 122.457 96.265 122.496 96.5516 122.598C96.8382 122.699 97.1002 122.86 97.3206 123.069L96.8185 123.595C96.6628 123.448 96.4787 123.335 96.2777 123.262C96.0767 123.189 95.8629 123.158 95.6494 123.171C94.6137 123.171 94.1429 123.697 94.1429 124.74C94.1429 125.784 94.5117 126.357 95.6416 126.357C96.6459 126.357 96.9048 125.98 96.9048 125.203V125.086H95.5631V124.442H97.6031V125.062C97.6031 126.294 97.203 127 95.618 127C94.0331 127 93.4368 126.231 93.4368 124.748Z" fill="#1D1D1B"/><path d="M99.3999 122.551H102.46V123.242H100.106V124.34H102.405V125.023H100.106V126.27H102.46V126.953H99.3999V122.551Z" fill="#1D1D1B"/><path d="M104.359 122.551H105.143L107.427 125.69V122.551H108.117V126.953H107.466L105.065 123.618V126.953H104.374L104.359 122.551Z" fill="#1D1D1B"/><path d="M110.157 122.551H110.855V126.953H110.157V122.551Z" fill="#1D1D1B"/><path d="M112.903 122.551H115.963V123.242H113.609V124.34H115.908V125.023H113.609V126.27H115.963V126.953H112.88L112.903 122.551Z" fill="#1D1D1B"/><path d="M119.698 125.344H118.545V126.914H117.854V122.551H119.839C121.024 122.551 121.409 123.069 121.409 123.924C121.444 124.236 121.36 124.55 121.174 124.804C120.988 125.057 120.713 125.23 120.404 125.289L121.346 126.953H120.561L119.698 125.344ZM119.832 124.685C120.396 124.685 120.71 124.528 120.71 123.956C120.71 123.383 120.412 123.171 119.816 123.171H118.545V124.662L119.832 124.685Z" fill="#1D1D1B"/><path d="M124.084 121.288H124.939L123.951 122.308H123.307L124.084 121.288ZM123.299 122.551H124.006V126.953H123.299V122.551Z" fill="#1D1D1B"/><path d="M127.466 122.52H128.196L129.937 126.953H129.208L128.886 126.106H126.76L126.438 126.953H125.732L127.466 122.52ZM128.635 125.447L127.85 123.391L127.066 125.447H128.635Z" fill="#1D1D1B"/><path d="M134.174 122.551H135.1L136.473 125.933L137.854 122.551H138.764V126.953H138.066V123.759L136.756 126.953H136.175L134.865 123.759V126.953H134.174V122.551Z" fill="#1D1D1B"/><path d="M140.797 122.551H143.857V123.242H141.503V124.34H143.794V125.023H141.503V126.27H143.857V126.953H140.773L140.797 122.551Z" fill="#1D1D1B"/><path d="M147.042 123.242H145.473V122.551H149.31V123.242H147.741V126.953H147.027L147.042 123.242Z" fill="#1D1D1B"/><path d="M151.844 122.52H152.574L154.316 126.953H153.586L153.264 126.106H151.138L150.816 126.953H150.11L151.844 122.52ZM153.013 125.446L152.229 123.391L151.444 125.446H153.013ZM152.527 121.288H153.358L152.284 122.308H151.664L152.527 121.288Z" fill="#1D1D1B"/><path d="M155.995 122.551H156.709V126.294H158.921V126.953H155.995V122.551Z" fill="#1D1D1B"/><path d="M160.632 122.551H161.338V126.953H160.632V122.551Z" fill="#1D1D1B"/><path d="M163.182 124.748C163.182 123.179 163.967 122.481 165.402 122.481C165.698 122.464 165.994 122.508 166.272 122.611C166.55 122.714 166.804 122.872 167.019 123.077L166.501 123.595C166.356 123.454 166.184 123.343 165.995 123.27C165.806 123.198 165.605 123.164 165.402 123.171C164.375 123.171 163.896 123.712 163.896 124.74C163.896 125.768 164.327 126.309 165.402 126.309C165.613 126.325 165.825 126.293 166.022 126.215C166.219 126.138 166.396 126.017 166.54 125.862L167.042 126.349C166.827 126.572 166.564 126.745 166.274 126.855C165.984 126.965 165.673 127.009 165.363 126.984C163.825 127.016 163.182 126.231 163.182 124.748Z" fill="#1D1D1B"/><path d="M170.251 122.52H170.981L172.723 126.953H171.993L171.672 126.106H169.545L169.223 126.953H168.517L170.251 122.52ZM171.42 125.447L170.636 123.391L169.851 125.447H171.42Z" fill="#1D1D1B"/><path d="M164.421 109.087C164.421 105.949 163.77 102.897 158.443 101.241C163.668 98.636 163.08 92.8926 163.08 92.8926C163.08 92.8926 163.033 85.5406 155.485 85.5406H138.356V117.851H154.755C162.232 117.851 164.421 112.014 164.421 109.087ZM154.104 111.551C151.46 111.551 144.688 111.504 144.688 111.504V91.8882H153.578C156.489 91.8882 156.873 93.8577 156.873 95.5603C156.873 96.5724 156.301 98.4006 153.272 98.4006H151.813V104.835H154.214C156.669 104.835 158.137 105.823 158.137 107.636C158.121 110.311 156.748 111.551 154.104 111.551Z" fill="#1D1D1B"/><path d="M173.249 85.462H166.32V117.851L173.249 117.796V85.462Z" fill="#1D1D1B"/><path d="M135.202 91.7783V85.462H111.946V117.851H119.008H135.202V111.543H119.008V104.811H128.533V98.5025H119.008V91.7783H135.202Z" fill="#1D1D1B"/><path d="M109.341 85.5326H91.3654C85.4179 85.5326 84.445 90.6797 84.2331 92.6805C84.0213 94.6813 84.1076 103.72 84.1076 109.377C84.1076 114.791 87.9366 117.796 93.3818 117.796H109.467V98.5024H98.2465V104.701H102.852V111.582H95.7436C90.5337 111.582 90.9181 107.243 90.9181 107.243C90.9181 107.243 90.7612 98.2356 91.2398 95.0265C91.7184 91.8174 94.1272 91.888 95.3277 91.888H103.119V94.6891H109.341V85.5326Z" fill="#1D1D1B"/><path d="M50.612 85.7211H40.1216L50.612 98.6517L61.0946 85.7211H50.612Z" fill="#1D1D1B"/><path d="M26.4535 73.8184L26.3123 73.9831V83.532L30.4864 78.6438L26.4535 73.8184Z" fill="#1D1D1B"/><path d="M31.4908 79.8442L26.3123 86.0271V95.4975L35.5394 84.6775L31.4908 79.8442Z" fill="#1D1D1B"/><path d="M36.5359 85.8622L26.3123 98.0709V98.3063L30.2197 102.881L40.6002 90.719L36.5359 85.8622Z" fill="#1D1D1B"/><path d="M41.581 91.8882L31.3103 104.16L35.3276 108.867L45.6532 96.7528L41.581 91.8882Z" fill="#1D1D1B"/><path d="M50.612 102.669L46.6183 97.9141L36.3947 110.123L40.4276 114.846L50.612 102.904V105.195L41.4869 116.094L45.5277 120.825L50.612 114.87V117.239L46.5712 122.057L50.612 126.788L74.8961 98.3064V73.6614L50.612 102.669Z" fill="#1D1D1B"/></svg>