<svg width="200" height="200" viewBox="0 0 200 200" fill="none" xmlns="http://www.w3.org/2000/svg"><path d="M84.8054 94.7371C83.5646 93.5749 82.0966 92.6823 80.4938 92.1155C78.7437 91.5012 76.8999 91.1966 75.0452 91.2152C73.1122 91.1931 71.193 91.5416 69.3912 92.2418C67.7468 92.8773 66.2479 93.8389 64.9849 95.0688C63.7385 96.3096 62.7648 97.7969 62.1263 99.4356C61.4247 101.229 61.0761 103.141 61.0997 105.066C61.0527 107.307 61.4002 109.539 62.1263 111.66C62.7184 113.38 63.6624 114.959 64.898 116.295C66.0571 117.519 67.4767 118.466 69.0516 119.067C70.7243 119.698 72.4994 120.014 74.2871 119.998C76.2973 120.026 78.296 119.689 80.1859 119.003C81.8991 118.377 83.4524 117.379 84.7343 116.082C86.0426 114.735 87.0399 113.117 87.6561 111.344C88.3711 109.25 88.7184 107.049 88.6826 104.837C88.7185 102.844 88.3699 100.863 87.6561 99.0013C87.0262 97.3901 86.0535 95.9351 84.8054 94.7371ZM52.7609 81.2418L46.2225 97.8721L39.7157 81.2418H26.3862L41.295 119.485H51.2132L66.1141 81.2418H52.7609ZM46.8226 114.897H45.6539L34.2986 85.8298H35.8779L46.2225 112.299L56.5987 85.8298H58.178L46.8226 114.897ZM112.459 114.66H99.8248V85.7192H104.784V80.9102H88.9906V85.7192H93.9576V114.668H88.9906V119.477H117.237V102.713H112.459V114.66ZM128.253 80.9575L122.63 86.1614V90.544H118.856V95.6374H122.63V112.007C122.63 114.929 123.157 116.99 124.21 118.19C125.252 119.398 126.973 119.998 129.358 119.998C130.811 119.929 132.248 119.663 133.63 119.209V114.076C132.656 114.417 131.631 114.593 130.598 114.597C130.272 114.631 129.942 114.585 129.638 114.462C129.334 114.34 129.064 114.145 128.853 113.894C128.505 113.428 128.339 112.402 128.339 110.823V95.6374H133.63V90.544H128.339L128.253 80.9575ZM166.946 111.754C165.662 108.654 164.345 105.374 162.998 101.915C161.65 98.4565 160.292 94.9346 158.923 91.3495C157.575 87.7644 156.309 84.4031 155.125 81.2655L154.075 81.455C153.725 81.513 153.371 81.5421 153.016 81.5419C152.665 81.5417 152.313 81.5127 151.966 81.455L150.916 81.2655C150.105 83.3713 149.208 85.6429 148.223 88.0803C147.239 90.5177 146.241 92.9946 145.23 95.511C144.214 98.0221 143.198 100.507 142.182 102.965C141.166 105.424 140.213 107.724 139.324 109.867C138.423 112.015 137.597 113.942 136.844 115.647C136.091 117.353 135.502 118.685 135.075 119.643C135.551 119.57 136.031 119.533 136.512 119.533H139.15C139.587 119.531 140.023 119.568 140.453 119.643C140.966 117.827 141.543 115.979 142.166 114.115C142.79 112.252 143.477 110.341 144.22 108.461C145.183 108.461 146.138 108.39 147.102 108.375C148.065 108.359 149.029 108.375 149.984 108.375C151.169 108.375 152.353 108.375 153.538 108.375C154.722 108.375 155.907 108.422 157.083 108.461C157.783 110.341 158.449 112.226 159.081 114.115C159.713 116.005 160.321 117.848 160.905 119.643C161.692 119.566 162.483 119.529 163.274 119.533H168.012C168.802 119.533 169.647 119.533 170.539 119.643C169.449 117.495 168.257 114.871 166.962 111.77L166.946 111.754ZM145.68 105.192C146.496 102.939 147.328 100.731 148.176 98.567C149.021 96.4112 149.929 94.216 150.892 92.0049C151.777 94.216 152.614 96.4112 153.411 98.567C154.209 100.723 155.006 102.918 155.796 105.192H145.68Z" fill="#1D1D1B"/><path d="M165.469 84.8347C165.47 83.7934 165.881 82.7944 166.614 82.0551C166.972 81.6977 167.396 81.4134 167.862 81.2181C168.346 81.015 168.865 80.9104 169.39 80.9104C169.915 80.9104 170.434 81.015 170.918 81.2181C171.86 81.6121 172.609 82.3609 173.003 83.3028C173.207 83.7877 173.312 84.3086 173.312 84.8347C173.312 85.3609 173.207 85.8817 173.003 86.3667C172.578 87.3078 171.806 88.0481 170.847 88.4323C169.889 88.8165 168.819 88.8149 167.862 88.4277C167.155 88.1315 166.553 87.6317 166.131 86.9918C165.709 86.352 165.487 85.6011 165.493 84.8347H165.469ZM172.861 84.8347C172.866 84.3675 172.772 83.9045 172.584 83.4765C172.231 82.649 171.572 81.9898 170.744 81.6366C170.315 81.452 169.853 81.358 169.386 81.3602C168.922 81.3579 168.462 81.452 168.036 81.6366C167.625 81.8099 167.252 82.0621 166.938 82.3789C166.607 82.6903 166.338 83.063 166.149 83.4765C165.967 83.9062 165.876 84.3684 165.88 84.8347C165.875 85.2985 165.967 85.7583 166.149 86.185C166.505 87.0151 167.166 87.6767 167.996 88.0328C168.422 88.2174 168.882 88.3115 169.347 88.3092C169.814 88.3115 170.276 88.2174 170.705 88.0328C171.113 87.8546 171.485 87.6031 171.803 87.2906C172.118 86.9724 172.37 86.5972 172.545 86.185C172.747 85.7631 172.854 85.3024 172.861 84.8347ZM171.281 86.9984H170.981H170.689H170.389H170.097L169.434 85.8139C169.283 85.5296 169.173 85.3243 169.094 85.198C169.054 85.1145 169.007 85.0352 168.952 84.9611C168.934 84.956 168.915 84.956 168.897 84.9611C168.89 85.0082 168.89 85.056 168.897 85.1032C168.897 85.269 168.897 85.4427 168.897 85.6402C168.897 85.8376 168.897 86.0192 168.897 86.2008C168.897 86.3824 168.897 86.5483 168.897 86.6904C168.897 86.8326 168.897 86.9352 168.897 86.9905H168.644H168.131H167.87C167.87 86.951 167.87 86.8799 167.87 86.7773C167.87 86.6746 167.87 86.5246 167.87 86.3272C167.87 86.1298 167.87 85.8929 167.87 85.6007C167.87 85.3085 167.87 84.9532 167.87 84.5504C167.87 84.1477 167.87 83.9266 167.87 83.6976C167.87 83.4686 167.87 83.2791 167.87 83.1211C167.87 82.9632 167.87 82.8448 167.87 82.7421C167.87 82.6394 167.87 82.5684 167.87 82.4973H168.304H169.094H169.631C169.972 82.4782 170.307 82.5882 170.571 82.8053C170.682 82.9038 170.771 83.0255 170.831 83.1618C170.891 83.2982 170.921 83.446 170.918 83.5949C170.921 83.741 170.894 83.886 170.84 84.0216C170.786 84.1572 170.705 84.2806 170.602 84.3846C170.392 84.6012 170.113 84.738 169.813 84.7715L171.281 86.9984ZM169.907 83.6818C169.915 83.5688 169.901 83.4554 169.864 83.3482C169.827 83.2411 169.77 83.1424 169.694 83.058C169.635 82.9937 169.563 82.9423 169.482 82.907C169.402 82.8716 169.316 82.8532 169.228 82.8527H168.889C168.889 83.0501 168.889 83.2317 168.889 83.3975C168.889 83.5634 168.889 83.7213 168.889 83.8555V84.6452H169.173C169.295 84.6384 169.414 84.6032 169.52 84.5425C169.643 84.478 169.745 84.3792 169.813 84.2583C169.907 84.0811 169.953 83.8824 169.947 83.6818H169.907Z" fill="#1D1D1B"/></svg>