<svg width="200" height="200" viewBox="0 0 200 200" fill="none" xmlns="http://www.w3.org/2000/svg"><g clip-path="url(#clip0_862_68)"><path d="M81.2397 108.441C78.7927 107.162 76.7445 105.235 75.3188 102.87C73.8705 100.423 73.1276 97.622 73.1723 94.7785C73.1244 91.9346 73.8675 89.1332 75.3188 86.687C76.7403 84.3159 78.7893 82.3837 81.2397 81.1038C83.8468 79.7548 86.7456 79.0673 89.6809 79.102C92.2367 79.0648 94.7718 79.566 97.1212 80.5732C99.2797 81.5014 101.173 82.9518 102.632 84.7938L97.2779 89.6294C95.9557 87.9387 94.0786 86.7695 91.9781 86.3282C89.8776 85.8869 87.6888 86.2019 85.7979 87.2176C84.5319 87.9169 83.5 88.9739 82.8315 90.2564C82.1109 91.6444 81.7502 93.1909 81.7823 94.7544C81.7533 96.3175 82.1138 97.8633 82.8315 99.2523C83.5037 100.529 84.5349 101.581 85.7979 102.279C87.1378 103.014 88.6473 103.384 90.1753 103.352C91.5503 103.351 92.9065 103.033 94.1385 102.423C95.3704 101.812 96.4448 100.925 97.2779 99.8312L102.692 104.739C101.233 106.578 99.3394 108.024 97.1815 108.948C94.8321 109.955 92.297 110.456 89.7412 110.419C86.7876 110.471 83.867 109.791 81.2397 108.441Z" fill="#181818"/><path d="M140.183 79.6447L127.268 109.792H118.827L105.96 79.6447H115.173L123.349 99.2764L131.694 79.6447H140.183Z" fill="#181818"/><path d="M158.344 101.773H153.701V109.78H145.176V79.6327H158.947C161.384 79.5783 163.805 80.0428 166.049 80.9953C167.969 81.7942 169.598 83.1596 170.721 84.9093C171.844 86.659 172.406 88.7096 172.332 90.7871C172.404 92.7838 171.88 94.7568 170.825 96.4537C169.77 98.1507 168.234 99.4946 166.411 100.314L172.911 109.78H163.782L158.344 101.773ZM162.396 87.5312C161.264 86.6592 159.853 86.2304 158.428 86.3253H153.701V95.1765H158.428C159.852 95.2562 161.257 94.829 162.396 93.9706C162.845 93.5632 163.197 93.0604 163.426 92.4991C163.656 91.9378 163.757 91.3322 163.722 90.7268C163.746 90.1298 163.64 89.5346 163.411 88.9827C163.182 88.4308 162.836 87.9355 162.396 87.5312Z" fill="#181818"/><path d="M32.6426 81.0074L33.149 81.1882C34.6564 81.7671 36.1396 82.3941 37.6108 83.0815C39.082 83.7688 40.4205 84.4682 41.7952 85.24C42.1784 84.9327 42.5812 84.6507 43.0011 84.3959C44.1807 83.6653 45.4286 83.0514 46.7273 82.5629C48.0049 82.0848 49.3095 81.6822 50.6343 81.3571C51.9547 81.0214 53.2963 80.7757 54.6499 80.6215C52.0996 81.4785 49.596 82.4687 47.1493 83.5879C45.9502 84.1503 44.7935 84.7992 43.6885 85.5294L43.0373 85.9876C45.7343 87.5418 48.3246 89.2741 50.7911 91.1729L51.1408 91.0765C51.7439 90.9067 52.3558 90.7699 52.9738 90.6665C53.5782 90.5268 54.1902 90.4221 54.8067 90.3529C55.4699 90.3529 56.0246 90.3529 56.6758 90.3529C56.0729 90.4494 55.4699 90.5459 54.8911 90.6665C54.3101 90.7986 53.7381 90.9678 53.1788 91.1729C52.6602 91.3659 52.1538 91.5829 51.6593 91.8121C53.6371 93.3983 55.5252 95.0931 57.3149 96.8888L58.2555 97.8535L59.1961 97.6968C59.765 97.6305 60.3396 97.6305 60.9085 97.6968C60.3512 97.75 59.8014 97.8632 59.2685 98.0344L58.5932 98.2756C59.2685 98.9991 59.9317 99.7347 60.5588 100.482C61.5838 101.688 62.5726 102.979 63.477 104.281C65.3125 106.88 66.8534 109.674 68.0714 112.614C70.652 75.5085 46.5464 69.8529 32.6426 81.0074Z" fill="#181818"/><path d="M30.9423 117.835C31.1407 118.019 31.2989 118.242 31.4071 118.49C31.5153 118.738 31.5711 119.005 31.5711 119.276C31.5711 119.547 31.5153 119.814 31.4071 120.062C31.2989 120.31 31.1407 120.533 30.9423 120.717C30.4474 121.089 29.8361 121.273 29.2179 121.236H27.8311V122.912H27.0232V117.316H29.2179C29.8361 117.279 30.4474 117.463 30.9423 117.835ZM30.3635 120.247C30.4886 120.125 30.588 119.98 30.6559 119.82C30.7238 119.659 30.7588 119.487 30.7588 119.312C30.7588 119.138 30.7238 118.965 30.6559 118.805C30.588 118.644 30.4886 118.499 30.3635 118.378C30.0125 118.13 29.5854 118.015 29.1576 118.052H27.8311V120.5H29.1938C29.6052 120.539 30.0177 120.437 30.3635 120.211V120.247Z" fill="#181818"/><path d="M35.8502 121.537H32.8597L32.2447 122.912H31.4126L33.9691 117.28H34.765L37.3817 122.912H36.5376L35.8502 121.537ZM35.5729 120.886L34.367 118.136L33.1611 120.886H35.5729Z" fill="#181818"/><path d="M41.7228 122.912L40.5169 121.175H38.7563V122.912H37.9604V117.316H40.1552C40.7696 117.278 41.3773 117.462 41.8675 117.835C42.0805 118.011 42.2492 118.235 42.3602 118.489C42.4712 118.742 42.5213 119.018 42.5066 119.294C42.5189 119.689 42.4049 120.078 42.181 120.403C41.9556 120.721 41.6344 120.957 41.2646 121.079L42.6031 122.912H41.7228ZM41.2887 120.174C41.4185 120.056 41.5221 119.911 41.593 119.75C41.664 119.59 41.7006 119.416 41.7006 119.24C41.7006 119.064 41.664 118.89 41.593 118.729C41.5221 118.568 41.4185 118.424 41.2887 118.305C40.9391 118.055 40.5109 117.939 40.0828 117.98H38.7563V120.5H40.131C40.5391 120.544 40.9495 120.442 41.2887 120.211V120.174Z" fill="#181818"/><path d="M47.1855 121.537H44.1949L43.5799 122.912H42.7478L45.3043 117.28H46.1002L48.6566 122.912H47.8125L47.1855 121.537ZM46.9081 120.886L45.7022 118.136L44.4963 120.886H46.9081Z" fill="#181818"/><path d="M52.3708 118.016H50.4414V117.317H55.0961V118.016H53.1667V122.912H52.3708V118.016Z" fill="#181818"/><path d="M56.6758 122.634C56.0065 122.248 55.5177 121.613 55.3165 120.867C55.1153 120.121 55.2182 119.325 55.6025 118.655C55.8621 118.22 56.2325 117.862 56.6758 117.618C57.149 117.373 57.6742 117.245 58.2072 117.245C58.7402 117.245 59.2655 117.373 59.7387 117.618C60.1871 117.855 60.5592 118.215 60.8119 118.655C61.07 119.102 61.2032 119.61 61.1978 120.126C61.2019 120.646 61.0688 121.158 60.8119 121.609C60.5549 122.043 60.1836 122.398 59.7387 122.634C59.2655 122.88 58.7402 123.008 58.2072 123.008C57.6742 123.008 57.149 122.88 56.6758 122.634ZM59.3287 122.007C59.654 121.824 59.9245 121.558 60.1125 121.236C60.2901 120.893 60.3828 120.512 60.3828 120.126C60.3828 119.74 60.2901 119.36 60.1125 119.017C59.9214 118.697 59.6516 118.431 59.3287 118.245C58.9872 118.052 58.5994 117.956 58.2072 117.968C57.8154 117.959 57.4283 118.055 57.0858 118.245C56.5894 118.541 56.2292 119.021 56.0826 119.58C55.936 120.139 56.0148 120.734 56.3019 121.236C56.4899 121.558 56.7605 121.824 57.0858 122.007C57.4274 122.201 57.8144 122.301 58.2072 122.297C58.6086 122.309 59.0053 122.208 59.3528 122.007H59.3287Z" fill="#181818"/><path d="M62.2471 117.316H64.6588C65.2099 117.302 65.7562 117.422 66.2506 117.666C66.6934 117.889 67.0651 118.232 67.3238 118.655C67.5687 119.107 67.6969 119.612 67.6969 120.126C67.6969 120.64 67.5687 121.146 67.3238 121.597C67.0687 122.023 66.696 122.367 66.2506 122.586C65.7573 122.834 65.2109 122.958 64.6588 122.948H62.2471V117.316ZM64.5744 122.248C64.9914 122.253 65.4039 122.163 65.7803 121.983C66.1125 121.816 66.389 121.557 66.5762 121.236C66.7663 120.897 66.8662 120.515 66.8662 120.126C66.8662 119.738 66.7663 119.356 66.5762 119.017C66.3923 118.696 66.1145 118.439 65.7803 118.281C65.4057 118.096 64.9919 118.005 64.5744 118.016H63.055V122.248H64.5744Z" fill="#181818"/><path d="M69.6995 122.634C69.2537 122.393 68.8825 122.035 68.6262 121.597C68.4294 121.267 68.3009 120.901 68.2484 120.52C68.1958 120.139 68.2203 119.752 68.3204 119.381C68.4205 119.009 68.5942 118.662 68.8311 118.359C69.068 118.057 69.3633 117.804 69.6995 117.618C70.175 117.367 70.7055 117.239 71.243 117.244C71.7727 117.24 72.2949 117.369 72.7624 117.618C73.2108 117.855 73.5829 118.215 73.8356 118.655C74.0937 119.102 74.2269 119.61 74.2215 120.126C74.2256 120.646 74.0925 121.158 73.8356 121.609C73.5786 122.043 73.2073 122.398 72.7624 122.634C72.297 122.889 71.7733 123.018 71.243 123.008C70.7048 123.019 70.173 122.891 69.6995 122.634ZM72.3524 122.007C72.6777 121.824 72.9482 121.558 73.1362 121.236C73.3138 120.893 73.4065 120.512 73.4065 120.126C73.4065 119.74 73.3138 119.36 73.1362 119.017C72.9451 118.697 72.6753 118.431 72.3524 118.245C71.8465 117.955 71.2476 117.873 70.6826 118.017C70.1176 118.162 69.6309 118.52 69.3256 119.017C69.1355 119.356 69.0356 119.738 69.0356 120.126C69.0356 120.515 69.1355 120.897 69.3256 121.236C69.5145 121.562 69.79 121.829 70.1215 122.007C70.4626 122.197 70.8465 122.297 71.237 122.297C71.6274 122.297 72.0114 122.197 72.3524 122.007Z" fill="#181818"/><path d="M77.1758 117.317H77.9837V122.249H81.0346V122.912H77.1758V117.317Z" fill="#181818"/><path d="M82.6987 122.634C82.2503 122.397 81.8782 122.037 81.6255 121.597C81.4287 121.267 81.3001 120.901 81.2476 120.52C81.1951 120.139 81.2196 119.752 81.3197 119.381C81.4198 119.009 81.5935 118.662 81.8304 118.359C82.0672 118.057 82.3625 117.804 82.6987 117.618C83.17 117.367 83.6965 117.239 84.2302 117.244C84.7637 117.24 85.2899 117.369 85.7617 117.618C86.2075 117.859 86.5786 118.218 86.8349 118.655C87.0929 119.102 87.2262 119.61 87.2208 120.126C87.2212 120.647 87.0839 121.159 86.8228 121.609C86.5625 122.04 86.1921 122.394 85.7496 122.634C85.2799 122.889 84.7523 123.018 84.2181 123.008C83.6878 123.017 83.1643 122.889 82.6987 122.634ZM85.3396 122.007C85.6674 121.828 85.9388 121.561 86.1234 121.236C86.3136 120.897 86.4134 120.515 86.4134 120.126C86.4134 119.738 86.3136 119.356 86.1234 119.017C85.9354 118.694 85.6649 118.428 85.3396 118.245C85.0019 118.053 84.6183 117.958 84.2302 117.968C83.8384 117.959 83.4513 118.055 83.1087 118.245C82.7809 118.425 82.5095 118.692 82.3249 119.017C82.1348 119.356 82.0349 119.738 82.0349 120.126C82.0349 120.515 82.1348 120.897 82.3249 121.236C82.5058 121.564 82.7781 121.832 83.1087 122.007C83.4503 122.201 83.8373 122.301 84.2302 122.297C84.6194 122.303 85.0029 122.203 85.3396 122.007Z" fill="#181818"/><path d="M96.0117 123.454C95.8389 123.666 95.6204 123.835 95.3725 123.949C95.1262 124.06 94.859 124.118 94.5887 124.118C94.243 124.118 93.9029 124.031 93.5999 123.864C93.2054 123.629 92.8478 123.336 92.5387 122.996C92.0326 122.978 91.5392 122.833 91.1037 122.574C90.6871 122.325 90.3423 121.972 90.1028 121.549C89.8701 121.111 89.7499 120.622 89.7531 120.126C89.7415 119.609 89.8752 119.1 90.139 118.655C90.3986 118.22 90.769 117.863 91.2123 117.618C91.6878 117.367 92.2182 117.239 92.7558 117.244C93.2855 117.24 93.8077 117.369 94.2752 117.618C94.7236 117.855 95.0957 118.215 95.3484 118.655C95.6065 119.102 95.7397 119.61 95.7343 120.126C95.7357 120.567 95.6411 121.004 95.457 121.404C95.2762 121.784 95.0074 122.115 94.6731 122.369C94.3194 122.645 93.9066 122.834 93.4673 122.924C93.6201 123.097 93.8042 123.24 94.0099 123.346C94.1719 123.436 94.355 123.482 94.5405 123.479C94.7365 123.48 94.9303 123.437 95.1076 123.353C95.285 123.27 95.4414 123.148 95.5655 122.996L96.0117 123.454ZM90.8384 121.236C91.0264 121.558 91.297 121.824 91.6223 122.007C91.9676 122.203 92.3589 122.303 92.7558 122.297C93.1446 122.3 93.5273 122.2 93.8652 122.007C94.1905 121.824 94.461 121.558 94.649 121.236C94.8266 120.893 94.9193 120.512 94.9193 120.126C94.9193 119.74 94.8266 119.36 94.649 119.017C94.4556 118.689 94.1781 118.419 93.8453 118.234C93.5124 118.05 93.1362 117.958 92.7558 117.968C92.36 117.958 91.9688 118.054 91.6223 118.245C91.1259 118.542 90.7657 119.021 90.6191 119.58C90.4725 120.139 90.5513 120.734 90.8384 121.236Z" fill="#181818"/><path d="M97.3383 122.369C96.8924 121.852 96.6673 121.181 96.7112 120.5V117.317H97.5192V120.5C97.5192 121.706 98.0498 122.321 99.1109 122.321C99.3321 122.336 99.5539 122.304 99.7617 122.227C99.9696 122.15 100.159 122.03 100.317 121.875C100.607 121.478 100.744 120.99 100.703 120.5V117.317H101.474V120.5C101.499 120.836 101.456 121.173 101.348 121.492C101.24 121.811 101.07 122.105 100.847 122.357C100.615 122.578 100.34 122.748 100.039 122.858C99.7387 122.968 99.4185 123.015 99.0989 122.996C98.7785 123.014 98.4577 122.968 98.1554 122.86C97.8531 122.753 97.5753 122.586 97.3383 122.369Z" fill="#181818"/><path d="M107.009 122.249V122.912H102.921V117.317H106.901V118.016H103.705V119.74H106.527V120.428H103.705V122.249H107.009Z" fill="#181818"/><path d="M114.172 122.249V122.912H110.084V117.317H114.052V118.016H110.941V119.74H113.762V120.428H110.941V122.249H114.172Z" fill="#181818"/><path d="M115.27 117.317H116.077V122.249H119.116V122.912H115.27V117.317Z" fill="#181818"/><path d="M122.806 122.634C122.364 122.394 121.993 122.04 121.733 121.609C121.476 121.157 121.343 120.646 121.347 120.126C121.36 119.604 121.514 119.096 121.793 118.655C122.05 118.218 122.421 117.859 122.867 117.618C123.338 117.369 123.865 117.24 124.398 117.244C124.812 117.237 125.222 117.315 125.604 117.473C125.961 117.613 126.279 117.837 126.533 118.124L126.014 118.631C125.811 118.414 125.564 118.242 125.289 118.128C125.015 118.014 124.719 117.959 124.422 117.968C124.027 117.959 123.636 118.055 123.289 118.245C122.961 118.424 122.689 118.692 122.505 119.017C122.315 119.356 122.215 119.738 122.215 120.126C122.215 120.515 122.315 120.897 122.505 121.236C122.686 121.563 122.958 121.832 123.289 122.007C123.635 122.201 124.026 122.301 124.422 122.297C124.72 122.301 125.015 122.243 125.289 122.126C125.563 122.01 125.81 121.838 126.014 121.621L126.533 122.128C126.279 122.416 125.961 122.639 125.604 122.779C125.221 122.935 124.811 123.013 124.398 123.008C123.843 123.033 123.292 122.903 122.806 122.634Z" fill="#181818"/><path d="M130.874 121.537H127.883L127.268 122.912H126.436L129.029 117.317H129.825L132.345 122.912H131.501L130.874 121.537ZM130.596 120.886L129.39 118.137L128.185 120.886H130.596Z" fill="#181818"/><path d="M138.193 122.912V118.836L136.155 122.261H135.782L133.744 118.86V122.912H132.972V117.317H133.635L136.047 121.272L138.362 117.317H139.025V122.912H138.193Z" fill="#181818"/><path d="M144.38 117.835C144.578 118.019 144.736 118.242 144.844 118.49C144.953 118.738 145.008 119.005 145.008 119.276C145.008 119.547 144.953 119.814 144.844 120.062C144.736 120.31 144.578 120.533 144.38 120.717C143.884 121.088 143.273 121.271 142.655 121.236H141.256V122.912H140.46V117.316H142.655C143.273 117.281 143.884 117.465 144.38 117.835ZM143.801 120.247C143.926 120.125 144.025 119.98 144.093 119.82C144.161 119.659 144.196 119.487 144.196 119.312C144.196 119.138 144.161 118.965 144.093 118.805C144.025 118.644 143.926 118.499 143.801 118.378C143.449 118.132 143.022 118.017 142.595 118.052H141.22V120.5H142.595C143.018 120.546 143.444 120.443 143.801 120.211V120.247Z" fill="#181818"/><path d="M147.117 122.634C146.671 122.393 146.3 122.035 146.044 121.597C145.847 121.267 145.718 120.901 145.666 120.52C145.613 120.139 145.638 119.752 145.738 119.381C145.838 119.009 146.012 118.662 146.249 118.359C146.485 118.057 146.781 117.804 147.117 117.618C147.593 117.367 148.123 117.239 148.66 117.244C149.19 117.24 149.712 117.369 150.18 117.618C150.628 117.855 151 118.215 151.253 118.655C151.511 119.102 151.644 119.61 151.639 120.126C151.643 120.646 151.51 121.158 151.253 121.609C150.996 122.043 150.625 122.398 150.18 122.634C149.715 122.889 149.191 123.018 148.66 123.008C148.122 123.019 147.59 122.891 147.117 122.634ZM149.77 122.007C150.095 121.824 150.366 121.558 150.554 121.236C150.731 120.893 150.824 120.512 150.824 120.126C150.824 119.74 150.731 119.36 150.554 119.017C150.363 118.697 150.093 118.431 149.77 118.245C149.432 118.053 149.049 117.958 148.66 117.968C148.265 117.958 147.873 118.054 147.527 118.245C147.031 118.542 146.67 119.021 146.524 119.58C146.377 120.139 146.456 120.734 146.743 121.236C146.931 121.558 147.202 121.824 147.527 122.007C147.872 122.203 148.264 122.303 148.66 122.297C149.033 122.294 149.399 122.194 149.722 122.007H149.77Z" fill="#181818"/><path d="M158.501 117.835C158.699 118.019 158.857 118.242 158.965 118.49C159.074 118.738 159.129 119.005 159.129 119.276C159.129 119.547 159.074 119.814 158.965 120.062C158.857 120.31 158.699 120.533 158.501 120.717C158.006 121.089 157.394 121.273 156.776 121.236H155.389V122.912H154.582V117.316H156.764C157.386 117.276 158.003 117.46 158.501 117.835ZM157.922 120.247C158.047 120.125 158.146 119.98 158.214 119.82C158.282 119.659 158.317 119.486 158.317 119.312C158.317 119.138 158.282 118.965 158.214 118.805C158.146 118.644 158.047 118.499 157.922 118.378C157.571 118.129 157.144 118.014 156.716 118.052H155.353V120.5H156.764C157.188 120.549 157.615 120.446 157.97 120.211L157.922 120.247Z" fill="#181818"/><path d="M160.116 117.317H160.912V122.912H160.116V117.317Z" fill="#181818"/><path d="M162.408 117.316H164.819C165.367 117.302 165.909 117.422 166.399 117.666C166.842 117.889 167.214 118.232 167.472 118.655C167.725 119.104 167.858 119.611 167.858 120.126C167.858 120.641 167.725 121.148 167.472 121.597C167.217 122.023 166.845 122.367 166.399 122.586C165.91 122.834 165.368 122.958 164.819 122.948H162.408V117.316ZM164.735 122.248C165.152 122.255 165.565 122.164 165.941 121.983C166.274 121.814 166.554 121.555 166.749 121.236C166.927 120.893 167.019 120.512 167.019 120.126C167.019 119.74 166.927 119.36 166.749 119.017C166.557 118.698 166.276 118.443 165.941 118.281C165.567 118.094 165.153 118.003 164.735 118.016H163.204V122.248H164.735Z" fill="#181818"/><path d="M172.935 122.249V122.912H168.823V117.317H172.802V118.016H169.631V119.74H172.441V120.428H169.619V122.249H172.935Z" fill="#181818"/><path d="M56.8205 99.6383L56.712 99.783C56.4019 100.246 56.1239 100.729 55.88 101.23C55.6292 101.735 55.4078 102.255 55.2167 102.786C55.0092 103.318 54.8321 103.861 54.6861 104.414C54.7261 103.839 54.8026 103.267 54.9153 102.701C55.0383 102.131 55.1912 101.567 55.3735 101.013C55.5703 100.454 55.8081 99.9095 56.085 99.3851L56.2297 99.1318L55.6267 98.6133C53.5589 96.8924 51.4014 95.2823 49.1632 93.7898C49.12 93.8269 49.0797 93.8672 49.0426 93.9103C48.6889 94.2962 48.3512 94.6982 48.0297 95.1162C47.3853 95.9511 46.7933 96.825 46.257 97.733C45.7144 98.6374 45.2079 99.578 44.7376 100.543C44.2673 101.507 43.8211 102.412 43.4111 103.413C43.4955 102.87 43.6161 102.339 43.7488 101.821C43.8814 101.302 44.0141 100.772 44.1829 100.241C44.5085 99.2162 44.8823 98.1792 45.3164 97.1662C45.7577 96.1492 46.2652 95.1623 46.8358 94.2118C47.1252 93.7536 47.4388 93.2953 47.7764 92.8492C45.353 91.2881 42.8494 89.8551 40.2758 88.5562C39.9744 88.8698 39.6729 89.1712 39.3955 89.4968C38.9631 89.9867 38.5604 90.5022 38.1897 91.0403C37.4655 92.1322 36.84 93.2864 36.3205 94.4892C35.3086 96.9731 34.4548 99.5186 33.7641 102.11C33.8843 100.758 34.0775 99.4138 34.3429 98.0827C34.6099 96.7413 34.9685 95.4198 35.4161 94.1274C35.8696 92.8071 36.4682 91.5413 37.2008 90.353C37.7353 89.4906 38.3533 88.6828 39.0458 87.9412C36.6886 86.7995 34.2736 85.7811 31.8105 84.8903C31.1111 84.6251 30.3876 84.3959 29.6761 84.1427C27.6985 87.1092 23.6467 94.8389 28.6511 102.762C36.5135 115.303 59.2805 107.645 68.0714 112.493C64.9467 107.698 61.1588 103.371 56.8205 99.6383Z" fill="#181818"/></g><defs><clipPath id="clip0_862_68"><rect width="194.328" height="82" fill="white" transform="translate(2.41113 59)"/></clipPath></defs></svg>