<svg width="200" height="200" viewBox="0 0 200 200" fill="none" xmlns="http://www.w3.org/2000/svg"><path d="M38.0814 132.15C41.3014 135.76 46.4114 135.26 48.3314 128.78H35.4614C36.2604 129.959 37.1356 131.085 38.0814 132.15Z" fill="#1D1D1B"/><path d="M59.9215 67.5401L51.0015 68.7301V122.5L65.2915 74.6001C66.2315 71.3901 64.8015 66.8901 59.9215 67.5401Z" fill="#1D1D1B"/><path d="M32.0015 67.8101V132.51H53.7215V67.8101H32.0015ZM51.7715 130.56H33.9215V69.7601H51.7715V130.56Z" fill="#EB671C"/><path d="M30.1714 66V130.7H51.9114V66H30.1714ZM50.0014 128.76H32.1214V68H50.0014V128.76Z" fill="#1D1D1B"/><path d="M50.0014 124.93V68.87L43.7714 69.7C38.8514 70.36 30.8714 71.5 26.0014 72.25L23.2014 72.69C18.3414 73.43 17.5814 76.46 21.5314 79.4L28.0014 84.19C30.0253 85.8782 31.5706 88.068 32.4831 90.5405C33.3957 93.0131 33.6433 95.6818 33.2014 98.28L29.7314 113.41C29.2628 115.857 29.4071 118.382 30.1514 120.76C30.7914 122.92 32.8414 126.06 35.4614 128.76H48.3414L50.0014 124.93Z" fill="#1D1D1B"/><path d="M42.6214 84.76H43.5414V87H38.7014V84.76H39.6514V74.17C39.6514 73.55 38.7014 73.57 38.7014 73.57V71.3C39.9214 70.82 42.6214 70.8 42.6214 72.67V84.76Z" fill="#EB671C"/><path d="M41.1213 92.7201C40.7814 92.6769 40.4361 92.716 40.1144 92.8341C39.7928 92.9522 39.5042 93.1458 39.2729 93.3986C39.0416 93.6515 38.8745 93.9561 38.7854 94.287C38.6964 94.6179 38.6881 94.9653 38.7613 95.3001H36.0913C36.2213 92.4901 37.1613 90.1801 41.1413 90.1801C41.1413 90.1801 46.1413 90.1801 46.1413 94.8201C46.1413 99.4601 39.0813 99.8901 39.0813 103.91H44.0013V103H46.1313V106.19H36.0913V103.91C36.0913 99.2001 43.1813 97.9101 43.1813 94.8201C43.1953 94.544 43.1518 94.268 43.0538 94.0096C42.9557 93.7512 42.8052 93.5159 42.6116 93.3185C42.418 93.1212 42.1857 92.9661 41.9292 92.8631C41.6727 92.7601 41.3976 92.7114 41.1213 92.7201Z" fill="#EB671C"/><path d="M41.1113 109.36C45.5113 109.36 46.9413 112.94 46.9413 117.43C46.9413 121.92 45.5113 125.54 41.1113 125.54C36.7113 125.54 35.3113 121.89 35.3113 117.43C35.3113 112.97 36.7513 109.36 41.1113 109.36ZM41.1113 111.87C38.9513 111.87 38.3013 114.3 38.3013 117.43C38.3013 120.56 38.9513 123.07 41.1113 123.07C43.2713 123.07 43.9413 120.59 43.9413 117.43C43.9413 114.27 43.3313 111.87 41.1113 111.87Z" fill="#EB671C"/><g style="mix-blend-mode:multiply"><path d="M29.6415 118.56C29.5915 118.3 29.5515 118.04 29.5015 117.78C29.5344 118.042 29.5812 118.303 29.6415 118.56Z" fill="black"/><path d="M29.6415 118.56C29.5915 118.3 29.5515 118.04 29.5015 117.78C29.5344 118.042 29.5812 118.303 29.6415 118.56Z" stroke="black" stroke-width="0.21" stroke-miterlimit="10"/></g><path d="M35.9413 90.5C34.9413 89.11 29.1113 84.72 26.8813 83.24C26.5617 83.0181 26.2276 82.8177 25.8813 82.64L28.0013 84.19C30.0252 85.8782 31.5706 88.068 32.4831 90.5405C33.3956 93.0131 33.6433 95.6818 33.2013 98.28L29.7313 113.41C29.3734 115.154 29.3565 116.95 29.6813 118.7C29.4813 116.77 29.3313 115.43 30.7913 110.78C32.4213 105.63 41.7013 98.88 35.9413 90.5Z" fill="#EB671C"/><path d="M71.5714 98.0001L74.6714 91.6801H79.0014V93.7701H78.1514L78.7914 104.12H79.6414V106.22H75.1714V104.12H76.0014L75.4514 95.7301L72.2614 101.8H70.8514L67.6014 95.7401L67.0714 104.13H68.0014V106.23H63.4714V104.13H64.3214L65.0014 93.7801H64.1514V91.6901H68.4714L71.5714 98.0001Z" fill="#1D1D1B"/><path d="M91.5313 106.23L90.2913 102.6H85.2913L84.0113 106.23H81.1013V104.13H82.0013L86.5313 91.6899H89.1313L93.6813 104.13H94.5313V106.23H91.5313ZM89.5313 100.51L87.7913 95.5099L86.0213 100.51H89.5313Z" fill="#1D1D1B"/><path d="M96.8615 93.7799H96.0015V91.6899H101.701C103.061 91.6899 106.701 91.6899 106.701 96.2099C106.701 99.9699 104.361 100.33 104.361 100.33C105.771 102 105.561 103.9 107.711 104.13V106.23C106.571 106.59 104.801 106.54 104.091 105.33L101.631 100.8H99.6315V104.13H100.521V106.23H96.0015V104.13H96.8915L96.8615 93.7799ZM104.001 96.2499C104.001 93.6099 101.751 93.7799 101.751 93.7799H99.6315V98.7099H101.701C102.024 98.7341 102.347 98.6857 102.648 98.5683C102.949 98.4508 103.22 98.2673 103.441 98.0312C103.662 97.7951 103.827 97.5125 103.924 97.2043C104.021 96.896 104.047 96.5699 104.001 96.2499Z" fill="#1D1D1B"/><path d="M110.331 93.7799H109.431V91.6899H113.101V98.6299L116.881 93.7799H116.121V91.6899H120.621V93.7799H119.621L115.861 98.6299C117.311 100.02 118.491 104.13 120.571 104.13V106.23C119.93 106.476 119.226 106.512 118.563 106.332C117.9 106.152 117.311 105.766 116.881 105.23L114.191 100.81H113.101V104.1H114.001V106.2H109.511V104.1H110.331V93.7799Z" fill="#1D1D1B"/><path d="M123.131 93.7799H122.281V91.6899H133.151V94.6399H131.151V93.7799H125.901V97.8499H130.741V99.8499H125.901V104.13H131.151V103.28H133.151V106.23H122.281V104.13H123.131V93.7799Z" fill="#1D1D1B"/><path d="M142.571 104.13V106.23H138.091V104.13H139.001V93.7799H136.901V94.6399H134.901V91.6899H145.901V94.6399H143.901V93.7799H141.701V104.13H142.571Z" fill="#1D1D1B"/><path d="M148.441 93.7799H147.591V91.6899H152.071V93.7799H151.211V104.13H152.071V106.23H147.591V104.13H148.441V93.7799Z" fill="#1D1D1B"/><path d="M162.691 93.7799H161.831V91.6899H166.311V93.7799H165.461V104.13H166.311V106.23H162.691L157.451 95.9999V104.14H158.311V106.24H153.851V104.14H154.701V93.7799H153.851V91.6899H158.311L162.691 100.69V93.7799Z" fill="#1D1D1B"/><path d="M180.151 106.23H175.551C172.241 106.23 169.451 104.77 168.421 101.67C167.747 99.4341 167.857 97.0351 168.731 94.8699C169.285 93.7418 170.157 92.8001 171.239 92.1605C172.321 91.5209 173.566 91.2114 174.821 91.2699C176.646 91.262 178.454 91.6013 180.151 92.2699V94.4599H178.151V93.7999C177.104 93.5926 176.03 93.5554 174.971 93.6899C173.774 93.8043 172.668 94.3835 171.893 95.3032C171.117 96.2229 170.732 97.41 170.821 98.6099C170.821 101.21 172.651 104.13 175.571 104.13H177.371C177.371 103.34 177.371 101.5 177.371 100.95H176.541V98.9499H180.151V106.23Z" fill="#1D1D1B"/><path d="M69.4014 111.07C69.4014 111.07 76.4014 110.76 76.4014 118.3C76.4014 118.3 76.4014 125.59 69.4014 125.6H63.4714V123.51H64.3414V113.16H63.4714V111.07H69.4014ZM69.4014 113.16H67.1114V123.51H69.4014C73.5914 123.51 73.5914 118.3 73.5914 118.3C73.5914 113.2 69.4014 113.16 69.4014 113.16Z" fill="#1D1D1B"/><path d="M78.9113 113.16H78.0613V111.07H82.5413V113.16H81.6813V123.51H82.5413V125.6H78.0613V123.51H78.9113V113.16Z" fill="#1D1D1B"/><path d="M96.1814 125.6H91.5914C88.2714 125.6 85.4814 124.15 84.4614 121.05C83.7822 118.815 83.8917 116.414 84.7714 114.25C85.3233 113.122 86.1926 112.179 87.2726 111.538C88.3527 110.896 89.5965 110.584 90.8514 110.64C92.6754 110.632 94.4843 110.972 96.1814 111.64V113.83H94.1814V113.19C93.1347 112.979 92.061 112.939 91.0014 113.07C89.799 113.179 88.688 113.758 87.9094 114.681C87.1307 115.604 86.747 116.796 86.8414 118C86.8414 120.6 88.6614 123.52 91.5914 123.52H93.3914C93.3914 122.73 93.3914 120.89 93.3914 120.34H92.5614V118.34H96.1614L96.1814 125.6Z" fill="#1D1D1B"/><path d="M98.8215 113.16H98.0015V111.07H102.481V113.16H101.631V123.51H102.481V125.6H98.0015V123.51H98.8615L98.8215 113.16Z" fill="#1D1D1B"/><path d="M111.931 123.51V125.6H107.461V123.51H108.311V113.16H106.221V114H104.221V111H115.221V114H113.221V113.14H111.061V123.51H111.931Z" fill="#1D1D1B"/><path d="M124.741 125.6L123.501 122H118.501L117.261 125.6H114.321V123.51H115.171L119.711 111.07H122.301L126.861 123.51H127.711V125.6H124.741ZM122.741 119.89L120.991 114.89L119.231 119.89H122.741Z" fill="#1D1D1B"/><path d="M136.801 123.51V122.7H138.801V125.6H129.211V123.51H130.001V113.16H129.151V111.07H133.651V113.16H132.771V123.51H136.801Z" fill="#1D1D1B"/></svg>