<svg xmlns="http://www.w3.org/2000/svg" id="Capa_1" data-name="Capa 1" viewBox="0 0 276.18 68"><defs><style>.cls-1{fill:none;}.cls-2{fill:#1d1d1b;}</style></defs><rect class="cls-1" width="276.18" height="68"></rect><path class="cls-2" d="M110.83,18.61c0,2,0,3.63.13,4.49.07.61.12,1,.78,1.09a8.11,8.11,0,0,0,1,.1.18.18,0,0,1,.2.17c0,.1-.12.17-.37.17-1.17,0-2.54-.07-2.66-.07s-1.48.07-2.12.07c-.24,0-.34,0-.34-.17a.17.17,0,0,1,.17-.17,2.67,2.67,0,0,0,.63-.1c.45-.1.52-.51.59-1.12.09-.85.09-2.41.09-4.41V16.59c0-.1,0-.12-.12-.12H99.82c-.08,0-.13,0-.13.12v2.07c0,2,0,3.58.1,4.44.08.61.15,1,.78,1.09a8.54,8.54,0,0,0,1,.1.17.17,0,0,1,.17.17c0,.1-.1.17-.34.17-1.19,0-2.57-.07-2.66-.07s-1.48.07-2.14.07c-.22,0-.34,0-.34-.17a.16.16,0,0,1,.17-.17,3,3,0,0,0,.65-.1c.42-.1.47-.48.56-1.09a43.13,43.13,0,0,0,.12-4.49V15c0-3.21,0-3.8,0-4.46s-.17-1-.88-1.14a5.67,5.67,0,0,0-.73-.06.2.2,0,0,1-.18-.16c0-.12.1-.17.35-.17,1,0,2.34,0,2.46,0s1.47,0,2.12,0c.25,0,.35,0,.35.17a.2.2,0,0,1-.18.16,2,2,0,0,0-.54.06c-.58.11-.7.41-.75,1.14s0,1.29,0,4.51v.44c0,.12,0,.12.13.12h8.94c.07,0,.12,0,.12-.12V15c0-3.22,0-3.85,0-4.51s-.14-1-.85-1.14a5.53,5.53,0,0,0-.73-.06.18.18,0,0,1-.17-.16c0-.12.1-.17.34-.17,1,0,2.34,0,2.44,0s1.49,0,2.12,0c.25,0,.37,0,.37.17a.21.21,0,0,1-.2.16,2,2,0,0,0-.53.06c-.57.11-.69.41-.73,1.14s-.06,1.25-.06,4.46Z"></path><path class="cls-2" d="M121.69,8.66c4.82,0,8.48,3,8.48,7.78a8.31,8.31,0,0,1-8.61,8.46,7.94,7.94,0,0,1-8.38-8.14A8.22,8.22,0,0,1,121.69,8.66Zm.48,15.39c1.93,0,5.81-1,5.81-7,0-5-3-7.57-6.42-7.57-3.58,0-6.16,2.23-6.16,6.75C115.4,21,118.3,24.05,122.17,24.05Z"></path><path class="cls-2" d="M148.73,22c.07.73.21,1.85,1.09,2.14a4.42,4.42,0,0,0,1.39.2c.1,0,.17.05.17.14s-.2.2-.43.2c-.5,0-2.88,0-3.67-.12-.51-.05-.6-.12-.6-.22a.18.18,0,0,1,.14-.17c.13,0,.15-.34.1-.73l-1-10.49h0l-5.17,10.58c-.43.91-.57,1.11-.75,1.11s-.32-.2-.73-1c-.57-1-2-3.68-2.52-4.8-.63-1.32-2.36-4.8-2.73-5.66h-.1L133,22.53c0,.32,0,.72,0,1a.59.59,0,0,0,.52.59,3.28,3.28,0,0,0,.82.12c.07,0,.17.08.17.14s-.14.2-.39.2c-.81,0-1.83-.07-2-.07s-1.22.07-1.8.07c-.22,0-.36,0-.36-.2s.08-.14.21-.14a4,4,0,0,0,.64-.07c.7-.13.73-.88.83-1.66L133.2,9c0-.22.11-.37.24-.37a.49.49,0,0,1,.44.32l6.48,12.87L146.61,9c.09-.2.19-.35.34-.35s.26.18.31.57Z"></path><path class="cls-2" d="M153.73,15c0-3.21,0-3.8-.06-4.46s-.16-1-.88-1.14a5.52,5.52,0,0,0-.72-.06.2.2,0,0,1-.18-.16c0-.12.1-.17.35-.17,1,0,2.36,0,2.48,0s4.63,0,5.13,0,.79-.1,1-.12.2-.11.3-.11.1.11.1.2a8.21,8.21,0,0,0-.17,1c0,.19-.08,1.11-.13,1.36,0,.1-.1.22-.19.22s-.17-.1-.17-.27a2.24,2.24,0,0,0-.12-.73c-.15-.34-.37-.49-1.54-.63-.37-.05-2.85-.07-3.1-.07-.09,0-.11.07-.11.21v5.63c0,.15,0,.22.11.22.27,0,3.1,0,3.59,0s.83-.07,1.05-.3.24-.27.31-.27.12.05.12.17a10.41,10.41,0,0,0-.16,1.15c-.06.41-.1,1.19-.1,1.34s0,.39-.2.39-.14-.07-.14-.19a1.85,1.85,0,0,0-.1-.69c-.08-.29-.27-.53-1.1-.63-.59-.07-2.87-.1-3.24-.1-.12,0-.14.08-.14.15v1.73c0,.71,0,3.12,0,3.53,0,1.4.43,1.66,2.55,1.66a7.15,7.15,0,0,0,2.15-.22,1.57,1.57,0,0,0,1-1.44c0-.24.09-.31.21-.31s.15.17.15.31a17.26,17.26,0,0,1-.29,2c-.15.53-.37.53-1.2.53-1.61,0-2.85-.05-3.73-.07s-1.46-.05-1.78-.05c0,0-.46,0-.93,0s-.89,0-1.24,0-.34,0-.34-.17a.17.17,0,0,1,.17-.17,4.77,4.77,0,0,0,.66-.1c.42-.07.47-.48.56-1.09a39.83,39.83,0,0,0,.13-4.49Z"></path><path class="cls-2" d="M171.76,8.66c4.83,0,8.49,3,8.49,7.78a8.31,8.31,0,0,1-8.61,8.46,8,8,0,0,1-8.39-8.14A8.22,8.22,0,0,1,171.76,8.66Zm.49,15.39c1.92,0,5.8-1,5.8-7,0-5-3-7.57-6.41-7.57-3.58,0-6.17,2.23-6.17,6.75C165.47,21,168.37,24.05,172.25,24.05Z"></path><path class="cls-2" d="M182.78,15c0-3.21,0-3.8-.05-4.46s-.17-1-.87-1.14a5.83,5.83,0,0,0-.74-.06.19.19,0,0,1-.16-.16c0-.12.09-.17.34-.17,1,0,2.31,0,2.48,0,.46,0,2.07,0,3.05,0,2.75,0,3.74.85,4.1,1.17A3.47,3.47,0,0,1,192,12.61c0,3-2.25,4.95-5.54,4.95-.12,0-.48,0-.61,0a.24.24,0,0,1-.22-.2c0-.17.13-.21.57-.21,2.31,0,4-1.47,4-3.35A4.19,4.19,0,0,0,189,10.64a3.61,3.61,0,0,0-2.9-1,7.21,7.21,0,0,0-1.19.14c-.13,0-.17.18-.17.39v8.44c0,2,0,3.63.09,4.49.08.61.2,1,.85,1.09a7.84,7.84,0,0,0,1,.1.16.16,0,0,1,.16.17c0,.1-.09.17-.33.17-1.17,0-2.59-.07-2.69-.07s-1.45.07-2.12.07c-.22,0-.34,0-.34-.17a.17.17,0,0,1,.17-.17,2.93,2.93,0,0,0,.66-.1c.42-.1.46-.48.56-1.09a43.13,43.13,0,0,0,.12-4.49Z"></path><path class="cls-2" d="M196.9,9.37c.27-.68.37-.8.51-.8s.29.29.51.75c.39.88,3.83,9.44,5.14,12.58.79,1.86,1.38,2.12,1.84,2.27a2.82,2.82,0,0,0,.84.12c.13,0,.27.05.27.17s-.24.17-.48.17-1.9,0-3.39,0c-.42,0-.75,0-.75-.16s0-.09.14-.14a.38.38,0,0,0,.19-.55L199.8,19c-.05-.1-.08-.13-.2-.13h-4.94a.24.24,0,0,0-.23.17l-1.22,3.32a4.41,4.41,0,0,0-.31,1.4c0,.41.36.55.73.55h.2c.17,0,.22.08.22.17s-.13.17-.32.17c-.52,0-1.69-.07-1.93-.07s-1.29.07-2.16.07c-.28,0-.42,0-.42-.17a.19.19,0,0,1,.2-.17,4.56,4.56,0,0,0,.62-.05c1-.12,1.4-.85,1.81-1.9ZM199.29,18c.09,0,.09-.05.07-.15l-2.13-5.68c-.11-.31-.24-.31-.35,0l-2,5.68c0,.1,0,.15.06.15Z"></path><path class="cls-2" d="M210.5,18.61c0,2,0,3.63.1,4.49.07.61.18,1,.82,1.09a8.33,8.33,0,0,0,1,.1.16.16,0,0,1,.18.17c0,.1-.11.17-.35.17-1.17,0-2.53-.07-2.66-.07s-1.58.07-2.21.07c-.25,0-.35,0-.35-.17a.16.16,0,0,1,.18-.15,2.9,2.9,0,0,0,.63-.09c.44-.1.56-.51.63-1.12.1-.86.1-2.49.1-4.49V9.91l-3.09.05c-1.34,0-1.86.17-2.18.65a4.59,4.59,0,0,0-.34.66c0,.17-.12.19-.21.19a.15.15,0,0,1-.15-.16c0-.23.44-2.07.46-2.25s.15-.39.22-.39a6.87,6.87,0,0,0,1,.25c.62.07,1.44.1,1.69.1H214a10.26,10.26,0,0,0,1.53-.1c.32-.05.51-.1.61-.1s.1.12.1.24c0,.64-.07,2.13-.07,2.37a.23.23,0,0,1-.2.26c-.1,0-.14-.06-.17-.36l0-.22c-.08-.63-.54-1.1-2.58-1.14l-2.69-.05Z"></path><path class="cls-2" d="M220.69,18.61c0,2,0,3.63.1,4.49.07.61.15,1,.78,1.09a8.13,8.13,0,0,0,1,.1.16.16,0,0,1,.16.17c0,.1-.09.17-.34.17-1.19,0-2.58-.07-2.68-.07s-1.46.07-2.12.07c-.22,0-.34,0-.34-.17a.17.17,0,0,1,.17-.17,3.11,3.11,0,0,0,.66-.1c.41-.1.49-.48.56-1.09.1-.86.12-2.49.12-4.49V15c0-3.21,0-3.8-.05-4.46s-.22-1-.68-1.12a4,4,0,0,0-.66-.08.17.17,0,0,1-.17-.16c0-.12.1-.17.35-.17.7,0,2,0,2.16,0s1.49,0,2.15,0c.24,0,.34,0,.34.17a.2.2,0,0,1-.18.16,2,2,0,0,0-.53.06c-.58.11-.7.41-.76,1.14s0,1.25,0,4.46Zm2.73-12.92c.12.22,0,.29-.09.29a3.23,3.23,0,0,0-.74,0,15.08,15.08,0,0,0-3.7,1,1.6,1.6,0,0,1-.37.12A.14.14,0,0,1,218.4,7c0-.07,0-.12.17-.19.88-.61,3.15-2,3.31-2.08.42-.24.56-.31.69-.31s.12,0,.24.22S223.15,5.21,223.42,5.69Z"></path><path class="cls-2" d="M230,9.37c.27-.68.36-.8.51-.8s.29.29.51.75c.39.88,3.83,9.44,5.14,12.58.79,1.86,1.37,2.12,1.83,2.27a2.94,2.94,0,0,0,.86.12c.12,0,.27.05.27.17s-.25.17-.49.17-1.9,0-3.39,0c-.42,0-.75,0-.75-.16s0-.09.15-.14a.38.38,0,0,0,.18-.55L232.93,19c-.05-.1-.07-.13-.2-.13h-4.94a.26.26,0,0,0-.23.17l-1.21,3.32a4.19,4.19,0,0,0-.32,1.4c0,.41.37.55.73.55h.2c.16,0,.21.08.21.17s-.11.17-.31.17c-.51,0-1.68-.07-1.93-.07s-1.29.07-2.16.07c-.27,0-.43,0-.43-.17a.2.2,0,0,1,.21-.17,4.83,4.83,0,0,0,.63-.05c1-.12,1.39-.85,1.81-1.9ZM232.42,18c.1,0,.1-.05.07-.15l-2.12-5.68q-.18-.47-.36,0l-2,5.68c0,.1,0,.15.07.15Z"></path><path class="cls-2" d="M77.17,23.43c.63-1.73.83-2.05,1.15-2.05s.52.27,1.15,1.89c.79,2,9,23.62,12.21,31.59,1.89,4.66,3.4,5.5,4.51,5.82a6.76,6.76,0,0,0,2.09.31c.31,0,.53.06.53.31s-.48.42-1,.42c-.79,0-4.61,0-8.23-.1-1,0-1.57,0-1.57-.37s.16-.31.37-.36.63-.58.32-1.42L83.77,46.58a.47.47,0,0,0-.48-.31H72a.55.55,0,0,0-.53.42L68.37,56a10.88,10.88,0,0,0-.74,3.51c0,1.05,1.11,1.52,2,1.52h.53c.37,0,.52.11.52.31s-.32.42-.78.42c-1.26,0-3.52-.15-4.08-.15s-3.47.15-5.93.15c-.68,0-1-.1-1-.42s.2-.31.47-.31,1.1-.05,1.52-.1c2.41-.32,3.45-2.31,4.4-4.93Zm5.45,21c.26,0,.26-.16.21-.38l-5-14.14c-.27-.79-.52-.79-.79,0L72.46,44c-.11.27,0,.38.15.38Z"></path><path class="cls-2" d="M103.31,49.65c0,6.16.09,8.67.88,9.4s2.36,1,5.76,1c2.27,0,4.18,0,5.22-1.28a5.13,5.13,0,0,0,1-2.36c0-.3.2-.54.45-.54s.29.19.29.63a25.73,25.73,0,0,1-.64,4.19c-.3,1-.44,1.13-2.75,1.13-3.1,0-5.52,0-7.54-.14s-3.45-.1-4.73-.1c-.19,0-.94,0-1.77,0s-1.82.11-2.51.11c-.44,0-.68-.11-.68-.35a.33.33,0,0,1,.34-.35A6.1,6.1,0,0,0,98,60.83c.83-.2.93-1,1.13-2.22a83.89,83.89,0,0,0,.25-9V42.18c0-6.51,0-7.69-.1-9s-.35-2.11-1.77-2.31a14,14,0,0,0-1.48-.1.41.41,0,0,1-.34-.34c0-.25.19-.35.68-.35,2,0,4.67.1,4.92.1s3.45-.1,4.78-.1c.44,0,.69.1.69.35s-.2.29-.34.29c-.3,0-.94.05-1.43.1-1.28.25-1.53.88-1.62,2.36s0,2.51,0,9Z"></path><path class="cls-2" d="M119.8,42.18c0-6.51,0-7.69-.1-9s-.36-2.11-1.78-2.31a13.76,13.76,0,0,0-1.47-.1.43.43,0,0,1-.35-.34c0-.25.2-.35.69-.35,2,0,4.77.1,5,.1s9.36.05,10.35,0c.83-.05,1.62-.2,2-.25s.4-.19.6-.19.2.19.2.39-.25.79-.35,2c-.05.4-.15,2.26-.24,2.75,0,.2-.21.45-.4.45s-.35-.2-.35-.54a4.5,4.5,0,0,0-.24-1.48c-.3-.69-.73-1-3.1-1.28-.74-.1-5.76-.15-6.26-.15-.19,0-.24.15-.24.44V43.64c0,.3,0,.45.24.45.55,0,6.26,0,7.24-.09s1.67-.16,2.12-.6c.29-.29.49-.54.64-.54s.25.1.25.35a21.92,21.92,0,0,0-.35,2.31c-.1.84-.19,2.41-.19,2.71s-.11.78-.4.78-.3-.14-.3-.39a3.6,3.6,0,0,0-.2-1.37c-.14-.6-.53-1.09-2.21-1.29-1.18-.15-5.8-.2-6.54-.2a.26.26,0,0,0-.3.3v3.5c0,1.42,0,6.3,0,7.13.1,2.81.89,3.35,5.17,3.35a14.51,14.51,0,0,0,4.33-.44,3.17,3.17,0,0,0,2-2.91c.1-.5.2-.64.45-.64s.29.35.29.64a36.06,36.06,0,0,1-.59,4c-.3,1.08-.74,1.08-2.41,1.08-3.26,0-5.76-.09-7.54-.14s-3-.1-3.6-.1c-.09,0-.93,0-1.86,0s-1.82.11-2.51.11c-.44,0-.69-.11-.69-.35a.33.33,0,0,1,.35-.35,12.34,12.34,0,0,0,1.32-.19c.84-.15.93-1,1.13-2.22a80.68,80.68,0,0,0,.26-9Z"></path><path class="cls-2" d="M173.45,56.3c.14,1.47.44,3.74,2.21,4.33a9.25,9.25,0,0,0,2.81.39.3.3,0,0,1,.34.3c0,.25-.39.4-.88.4-1,0-5.81-.11-7.39-.25-1-.1-1.23-.25-1.23-.45a.36.36,0,0,1,.29-.34c.25,0,.3-.69.21-1.48L167.73,38h-.09L157.21,59.4c-.9,1.82-1.14,2.21-1.53,2.21s-.64-.39-1.48-1.92c-1.14-2.06-4-7.43-5.07-9.69-1.28-2.66-4.78-9.7-5.51-11.42h-.2l-1.68,18.9c0,.64,0,1.43,0,2.12a1.17,1.17,0,0,0,1,1.18,7.34,7.34,0,0,0,1.67.24c.15,0,.35.16.35.3s-.3.4-.79.4c-1.62,0-3.69-.15-4-.15s-2.47.15-3.65.15c-.44,0-.73-.11-.73-.4s.19-.3.43-.3a9.37,9.37,0,0,0,1.29-.14c1.43-.25,1.47-1.77,1.67-3.34l3.15-27.33c0-.44.25-.74.5-.74a1,1,0,0,1,.88.64l13.09,26,12.61-25.94c.2-.39.39-.69.68-.69s.54.35.64,1.13Z"></path><path class="cls-2" d="M190,30.9c.55-1.38.73-1.63,1-1.63s.59.6,1,1.53c.78,1.77,7.73,19.05,10.38,25.39,1.58,3.75,2.77,4.29,3.7,4.59a6.16,6.16,0,0,0,1.73.24c.24,0,.54.11.54.35s-.5.35-1,.35-3.83,0-6.84-.11c-.83,0-1.52,0-1.52-.29s.09-.19.29-.3a.77.77,0,0,0,.4-1.12l-3.9-9.61c-.09-.19-.14-.24-.38-.24h-10a.44.44,0,0,0-.44.34l-2.47,6.7A8.74,8.74,0,0,0,182,59.9c0,.83.75,1.12,1.49,1.12h.39c.34,0,.45.16.45.35s-.25.35-.65.35c-1,0-3.39-.15-3.89-.15s-2.61.15-4.38.15c-.54,0-.84-.11-.84-.35a.39.39,0,0,1,.4-.35c.29,0,.93-.05,1.28-.09,2-.25,2.8-1.73,3.64-3.84Zm4.83,17.42c.19,0,.19-.09.14-.29l-4.28-11.47c-.25-.64-.49-.64-.74,0L186,48c0,.2,0,.29.15.29Z"></path><path class="cls-2" d="M212,56c.09,3.45.48,4.48,1.66,4.78a10.7,10.7,0,0,0,2.17.24.34.34,0,0,1,.34.35c0,.24-.29.35-.78.35-2.46,0-4.19-.15-4.58-.15s-2.21.15-4.19.15c-.44,0-.68,0-.68-.35a.34.34,0,0,1,.34-.35,7.08,7.08,0,0,0,1.77-.24c1.08-.3,1.24-1.43,1.24-5.22v-24c0-1.68.24-2.12.59-2.12s1.23.84,1.66,1.28c.7.69,7,7.38,13.7,14.27,4.28,4.44,8.9,9.41,10.23,10.79l-.44-21c0-2.7-.29-3.63-1.63-3.88a13.55,13.55,0,0,0-2.11-.2.34.34,0,0,1-.35-.39c0-.25.35-.3.84-.3,2,0,4,.1,4.53.1s1.92-.1,3.7-.1c.43,0,.78.05.78.3a.49.49,0,0,1-.49.39,4.85,4.85,0,0,0-1,.1c-1.42.29-1.51,1.13-1.51,3.64L237.67,59c0,2.77,0,3-.33,3-.45,0-.89-.34-3.3-2.56-.45-.4-6.7-6.55-11.28-11.33-5-5.26-9.89-10.38-11.22-11.85Z"></path><path class="cls-2" d="M254.54,23.43c.63-1.73.84-2.05,1.15-2.05s.52.27,1.16,1.89c.78,2,9,23.62,12.21,31.59,1.88,4.66,3.4,5.5,4.5,5.82a6.8,6.8,0,0,0,2.09.31c.32,0,.53.06.53.31s-.47.42-1,.42c-.8,0-4.62,0-8.23-.1-1,0-1.57,0-1.57-.37s.15-.31.36-.36.63-.58.32-1.42l-4.87-12.89a.48.48,0,0,0-.48-.31H249.41a.57.57,0,0,0-.53.42L245.74,56a11.15,11.15,0,0,0-.74,3.51c0,1.05,1.11,1.52,2,1.52h.52c.37,0,.53.11.53.31s-.32.42-.79.42c-1.25,0-3.51-.15-4.08-.15s-3.46.15-5.93.15c-.67,0-1-.1-1-.42s.2-.31.48-.31,1.09-.05,1.51-.1c2.42-.32,3.46-2.31,4.4-4.93Zm5.46,21c.25,0,.25-.16.2-.38l-5-14.14c-.27-.79-.53-.79-.8,0L249.83,44c-.11.27,0,.38.15.38Z"></path><path class="cls-2" d="M28.39,6.82A28.39,28.39,0,1,0,56.78,35.21,28.43,28.43,0,0,0,28.39,6.82Zm0,53.4a25,25,0,1,1,25-25A25,25,0,0,1,28.39,60.22Z"></path><path class="cls-2" d="M35.9,27.32l-1.7,9.44c0,.16,0,.25,0,.25H38c.08,0,.08-.09.05-.25l-1.81-9.44C36.11,26.8,36,26.8,35.9,27.32Z"></path><path class="cls-2" d="M28.39,12.2a23,23,0,1,0,23,23A23,23,0,0,0,28.39,12.2ZM28.6,48c-1,0-2.17-.12-2.27-.12s-1.27.12-1.82.12c-.2,0-.28-.07-.28-.28s0-.29.15-.29a1.51,1.51,0,0,0,.53-.15c.37-.17.44-.85.51-1.87.08-1.42.08-4,.08-7.32V34.66c0-.17-.05-.21-.11-.21H17.75c-.07,0-.11,0-.11.21V38.1c0,3.32,0,5.94.09,7.37.06,1,.13,1.65.67,1.82a4.46,4.46,0,0,0,.83.15c.11,0,.15.17.15.29a.26.26,0,0,1-.3.28c-1,0-2.19-.12-2.27-.12S15.54,48,15,48c-.2,0-.3-.07-.3-.28s0-.29.15-.29a1.73,1.73,0,0,0,.56-.15c.35-.17.39-.81.48-1.82C16,44,16,41.33,16,38V31.94c0-5.33,0-6.31,0-7.4s-.15-1.74-.75-1.9a3.09,3.09,0,0,0-.63-.09c-.06,0-.14-.16-.14-.28s.08-.28.3-.28c.82,0,2,.08,2.09.08S18.07,22,18.62,22c.21,0,.29.08.29.28s-.08.28-.15.28a1,1,0,0,0-.45.09c-.5.19-.6.68-.65,1.9s0,2.14,0,7.48v.74c0,.2,0,.2.11.2h7.64c.06,0,.11,0,.11-.2V32c0-5.34,0-6.39-.05-7.48s-.12-1.74-.72-1.9a3.2,3.2,0,0,0-.62-.09c-.09,0-.16-.16-.16-.28s.09-.28.3-.28c.81,0,2,.08,2.08.08S27.6,22,28.14,22c.21,0,.32.08.32.28s-.09.28-.17.28a1,1,0,0,0-.46.09c-.48.19-.58.68-.62,1.9s0,2.07,0,7.4V38c0,3.32,0,6,.1,7.46.06,1,.1,1.65.66,1.82a4.67,4.67,0,0,0,.82.15c.12,0,.17.17.17.29S28.81,48,28.6,48Zm14.7,0c-.28,0-1.63,0-2.9-.07-.35,0-.66,0-.66-.25s0-.16.13-.25.29-.36.18-.92l-1.66-7.9c0-.16-.06-.2-.16-.2H34c-.07,0-.14.08-.17.28l-1,5.51a12.82,12.82,0,0,0-.27,2.31c0,.69.32.92.63.92h.17c.14,0,.19.13.19.29a.24.24,0,0,1-.28.28c-.44,0-1.44-.12-1.64-.12s-1.11.12-1.86.12c-.23,0-.36-.07-.36-.28s.08-.29.17-.29a2.15,2.15,0,0,0,.55-.08c.83-.19,1.18-1.41,1.54-3.15l4.31-21.53c.23-1.14.31-1.34.43-1.34s.25.49.45,1.26c.33,1.45,3.26,15.66,4.38,20.88.67,3.08,1.18,3.52,1.57,3.77a1.44,1.44,0,0,0,.73.19c.11,0,.23.09.23.29S43.5,48,43.3,48Z"></path></svg>