<?xml version="1.0" standalone="no"?>
<!DOCTYPE svg PUBLIC "-//W3C//DTD SVG 20010904//EN"
 "http://www.w3.org/TR/2001/REC-SVG-20010904/DTD/svg10.dtd">
<svg version="1.0" xmlns="http://www.w3.org/2000/svg"
 width="600.000000pt" height="600.000000pt" viewBox="0 0 600.000000 600.000000"
 preserveAspectRatio="xMidYMid meet">
<metadata>
Created by potrace 1.14, written by Peter Selinger 2001-2017
</metadata>
<g transform="translate(0.000000,600.000000) scale(0.100000,-0.100000)"
fill="#000000" stroke="none">
<path d="M1033 4474 l2 -448 225 -79 c124 -43 234 -82 245 -87 11 -5 94 -34
185 -65 91 -31 174 -65 185 -76 20 -19 20 -34 22 -697 2 -475 -1 -685 -9 -705
-6 -15 -20 -33 -31 -38 -11 -6 -110 -42 -221 -79 -190 -64 -413 -143 -446
-157 -8 -3 -17 -7 -20 -8 -62 -18 -89 -30 -110 -47 l-25 -20 -3 -445 -3 -446
31 6 c17 4 59 18 93 31 34 13 172 65 307 116 135 50 254 95 265 100 11 5 88
34 170 65 83 31 159 60 170 65 38 17 527 199 1520 565 264 97 487 179 495 183
8 3 17 6 20 7 3 1 19 7 35 14 32 13 81 31 300 111 327 120 461 172 481 188 53
44 52 35 54 489 l1 421 -23 7 c-23 8 -538 201 -678 254 -74 29 -428 162 -545
206 -402 150 -1117 420 -1139 431 -16 8 -33 14 -39 14 -5 0 -23 6 -40 14 -18
8 -185 72 -372 142 -187 69 -367 137 -400 149 -86 32 -667 252 -687 260 -15 6
-16 -27 -15 -441z m1902 -1115 c187 -66 387 -138 445 -159 86 -31 229 -82 544
-193 28 -9 24 -12 -70 -45 -54 -18 -142 -49 -194 -68 -52 -19 -103 -37 -112
-39 -9 -2 -61 -19 -115 -39 -54 -19 -215 -75 -358 -125 -143 -49 -305 -105
-360 -124 -156 -54 -140 -56 -142 16 -1 34 -4 253 -7 486 -6 400 -5 423 12
416 9 -3 170 -60 357 -126z"/>
</g>
</svg>
